<svg width="538" height="724" viewBox="0 0 538 724" fill="none" xmlns="http://www.w3.org/2000/svg">
<rect x="13.9999" y="9.99805" width="513" height="702" fill="#EBBA30"/>
<path d="M14.684 10.2578C14.4741 24.3217 9.17177 37.9217 9.17177 51.5993C9.17177 59.0146 10.5498 66.4204 10.5498 73.6481C10.5498 82.5843 10.4069 91.8104 12.0044 100.597C14.3923 113.73 10.7189 125.088 10.5498 138.11C10.3518 153.361 12.2362 168.868 10.5498 184.045C9.71199 191.586 14.9339 207.372 14.7605 215C14.6466 220.014 16.6007 236.13 14.7605 240.5C10.2384 251.24 12.0044 264.295 12.0044 275.5C12.0044 284.508 12.0044 286.992 12.0044 296C12.0044 305.851 12.0045 318.725 12.0045 328.576C12.0045 333.884 12.0045 339.192 12.0045 344.5C12.0045 350.414 8.95454 360.53 8.95454 366.299C8.95454 387.255 16.4811 408.699 14.5 429.5C12.2216 453.423 14.5 451.112 14.5 475.5C14.5 479.609 4.96106 491.889 4.96106 495.998C4.96106 501.983 7.4999 512.248 7.4999 517.998C7.4999 524.397 6.7407 529.14 7.4999 535.498C8.2015 541.374 6.78332 545.957 8.99991 551.498" stroke="black" stroke-width="9" stroke-linecap="round"/>
<path d="M13 415.5C9.25205 423.464 6.41553 459.124 6.41553 467.77C6.41553 473.502 9.17163 478.639 9.17163 484.306C9.17163 498.189 9.17163 512.072 9.17163 525.954C9.17163 558.915 10.5497 592.174 10.5497 624.791C10.5497 638.367 10.5497 651.944 10.5497 665.52C10.5497 672.18 10.5497 678.841 10.5497 685.502C10.5497 691.861 7.79358 693.823 7.79358 699.588C7.79358 706.097 9.35169 715.489 16.0619 717.886C21.1553 719.705 27.5373 718.36 32.9047 718.575C46.6169 719.123 61.658 719.746 76.007 718.498C109.173 715.614 142.89 718.575 175.916 718.575C191.67 718.575 228.147 711.5 244 711.5C266.1 711.5 286.4 711.5 308.5 711.5C332.414 711.5 352.592 711.978 376.5 711.5C398.659 711.057 402.976 711.5 425 711.5C458.014 700.047 490.955 711.5 523 711.5" stroke="black" stroke-width="9" stroke-linecap="round"/>
<path d="M18.6176 12.3129C31.9259 12.3129 40.7131 11.1919 52.7197 8.52376C63.627 6.09993 74.4131 4.93945 85.9002 4.93945C125.017 4.93945 164.794 8.62617 204.182 8.62617C225.669 8.62617 246.596 4.93945 267.881 4.93945C284.661 4.93945 299.029 11.5543 315.5 8.62617C328.098 6.38652 341.128 8.62633 354 8.62633C364.119 8.62633 381.97 7.23521 392 8.62824C402.848 10.1349 409.943 8.23557 420.88 8.62617C449.322 9.64197 477.349 14.1563 506.186 14.1563C510.863 14.1563 529.037 11.7004 530 16.9978C531.361 24.4825 526.5 31.0043 526.5 38.9978C526.5 55.1791 533.154 70.6941 526.5 86.4978C523.957 92.5379 533.102 115.707 532.915 121.89C532.548 133.988 531.046 147.585 527.795 159.372C515.933 202.371 525.542 248.604 525.542 293.528C525.542 342.928 527.385 392.591 527.385 442.225C527.385 470.346 525.542 498.845 525.542 526.61C525.542 550.785 517.039 574.559 524.722 598.706C528.519 610.639 531.072 622.875 531.072 635.369C531.072 646.675 533.859 661.857 530.662 672.645C525.363 690.53 525 693.783 525 712.5" stroke="black" stroke-width="9" stroke-linecap="round"/>
</svg>
