<svg width="735" height="613" viewBox="0 0 735 613" fill="none" xmlns="http://www.w3.org/2000/svg">
<path d="M278.5 17.1687C262.357 5.99256 203.091 51.693 184 51.693C156.5 63 137.741 72.0525 113 84.5C90.0658 96.0383 73.2842 115.691 56 134.5C16.034 177.992 10.5376 258.431 10.5376 317.407C10.5376 341.507 12.1479 358.262 21.775 380.446C30.84 401.335 37.3696 423.794 49.1832 443.348C82.8083 499.003 122.16 547.948 183.758 573.674C221.887 589.598 264.123 593.375 304.902 597.793C363.856 604.18 426.854 603.72 485.796 597.793C560.57 590.274 635.637 559.549 664.224 484.323C673.541 459.804 688.08 437.625 696.291 412.788C707.065 380.197 716.882 347.395 721.781 313.296C725.761 285.588 723.615 256.267 723.425 228.33C723.178 191.947 711.382 162.292 696.154 129.661C684.388 104.448 669.943 71.7515 645.86 56.0697C624.466 42.1388 604.477 31.3211 579.806 24.4132C537.596 12.5943 498.073 11.2573 454.414 11.2573C411.045 11.2573 367.285 9.5887 323.951 11.3943C285.5 12.9964 249.799 23.0137 214.181 37.021C184.454 48.7114 126.427 61.8758 107 87.7779" stroke="black" stroke-width="20" stroke-linecap="round"/>
</svg>
