<svg width="54" height="56" viewBox="0 0 54 56" fill="none" xmlns="http://www.w3.org/2000/svg">
<path d="M52 28.0002C52 41.255 41.2548 52.0002 28 52.0002C14.7452 52.0002 4 41.255 4 28.0002C4 14.7454 10.5 4.12464e-05 28 4.0002C41.2548 4.0002 52 14.7454 52 28.0002Z" fill="none"/>
<path d="M28.7655 2.54905C25.2462 2.54905 21.7123 2.82358 18.181 2.82358C15.6341 2.82358 13.5811 2.58484 11.3178 3.73867C9.21253 4.81194 8.9315 6.7954 8.02349 8.74115C7.12226 10.6724 5.31874 12.3167 4.74442 14.3842C3.85502 17.5861 2.22685 20.8006 2.13642 24.2366C2.09862 25.6733 2.13642 27.1157 2.13642 28.5528C2.13642 31.3268 1.66612 34.5142 2.47196 37.2004C2.91163 38.666 3.17901 40.1284 3.50906 41.6233C3.81115 42.9916 4.24647 43.0562 5.5375 43.4535C7.26792 43.9859 8.26622 45.8257 10.0367 46.5038C11.7812 47.1719 13.3592 47.9616 14.9324 48.9593C16.3225 49.8408 17.9721 50.2265 19.2791 51.2012C22.46 53.5735 27.1643 53.611 30.9922 53.611C33.4694 53.611 35.8097 52.5584 38.0384 51.5978C40.4873 50.5422 42.9309 49.8992 45.1455 48.3339C47.1003 46.9524 48.395 45.9444 49.5227 43.9263C50.5509 42.0863 50.6969 40.3527 50.7276 38.2985C50.7567 36.3486 51.4548 34.4871 51.6122 32.5334C51.8903 29.08 52.3747 25.7801 52.3747 22.2997C52.3747 19.5946 52.8193 16.4287 51.5512 13.9266C50.6624 12.1731 48.9623 9.854 47.5553 8.51237C45.7154 6.75805 42.8926 6.31164 40.6006 5.41633C39.3315 4.9206 38.1398 4.2581 36.8488 3.81492C35.9231 3.49717 34.6223 3.48942 33.768 3.0371C33.2066 2.73991 32.5685 2.82358 31.9378 2.82358C30.5173 2.82358 29.055 2.27753 27.6674 2" stroke="#F4B73F" stroke-width="3" stroke-linecap="round"/>
<path d="M21 4.49652C19.4627 3.92307 17.1045 3.87035 15.5101 4.21513C14.4622 4.44175 12.428 4.71123 11.707 5.53871C11.4655 5.81596 11.5398 6.38145 11.4556 6.71639C11.3584 7.10327 11.126 7.22729 10.9632 7.53972C10.6521 8.13642 10.0704 8.58918 9.71644 9.17596C9.45108 9.61589 9.27026 10.022 8.93067 10.3953C7.3636 12.1183 5.98555 14.1967 5.72476 16.5963C5.66094 17.1836 5.57382 17.4569 5.15901 17.8574C4.62995 18.3682 4.54127 19.3247 4.41515 20.0043C4.11333 21.6306 4.02751 23.4702 4.02751 25.1319C4.02751 26.603 3.94336 28.1045 4.06942 29.5716C4.2563 31.7467 5.27943 33.6161 5.57808 35.7414C5.84137 37.615 7.24463 39.026 7.44296 40.9002C7.56204 42.0255 8.13898 43.2929 8.56398 44.3499C8.70973 44.7123 9.96337 45.4224 9.78977 44.6625C9.5209 43.4857 8.90053 42.9142 8.40683 41.932C7.63475 40.3959 7.36238 38.9545 6.10192 37.7007" stroke="none" stroke-width="3" stroke-linecap="round"/>
<path d="M5.86865 37.4526C5.96407 38.9316 6.25643 40.389 6.52229 41.8443C6.61112 42.3305 6.68333 42.7963 6.97167 43.2128C7.50279 43.98 9.30538 44.0338 10.1071 44.0809C11.4052 44.1573 12.1424 44.9202 13.3446 45.2146C14.6344 45.5305 15.7638 46.4713 16.9907 47.0019C19.0322 47.8847 21.1394 48.5809 23.1492 49.5858C25.2915 50.657 27.3796 51.4242 29.7673 51.4242" stroke="none" stroke-width="3" stroke-linecap="round"/>
<path d="M31.2382 51.6081C32.331 51.4867 33.3875 51.1099 34.4349 50.7911C35.3276 50.5194 36.3385 50.4994 37.2537 50.3009C39.2946 49.8583 41.6565 49.2126 43.3203 48.0131C43.704 47.7365 44.7126 47.4359 44.8829 46.9714C45.2117 46.0746 45.5691 45.1893 45.9042 44.2956C46.4028 42.9659 47.3013 41.8446 47.8243 40.5371C48.2476 39.4787 48.6463 38.5031 49.5401 37.7285C50.9452 36.5108 50.541 34.6103 50.541 32.8875C50.541 29.1513 50.4689 25.5195 50.0099 21.8471C49.8962 20.9375 50.0024 19.9842 49.9486 19.0692C49.9073 18.3674 50.0916 16.9654 49.7648 16.3116C49.4287 15.6395 48.9184 15.0622 48.5596 14.3712C48.2861 13.8444 48.0284 13.3087 47.763 12.7779C47.1401 11.5322 46.6205 11.2316 45.4957 10.5106C44.1488 9.64722 43.2076 8.46144 41.7066 7.77348C40.1653 7.06706 38.2231 6.61968 36.5286 6.56834C35.3122 6.53148 34.2925 6.06316 33.1174 5.83299C31.5474 5.52548 29.9683 5.26606 28.3989 4.95467C26.1992 4.51821 23.9201 4.3623 21.6787 4.3623" stroke="none" stroke-width="3" stroke-linecap="round"/>
<path d="M43.3657 46.9596C43.5208 46.6106 44.5424 46.5516 44.8475 46.4478C45.9653 46.0674 46.1744 45.2885 46.8411 44.4407C47.3494 43.7943 47.8754 43.2133 48.3363 42.5279C48.5054 42.2764 48.7894 42.0374 48.8212 41.7197C48.8846 41.0852 49.1849 40.5225 49.1849 39.8743C49.1849 38.9003 49.4291 37.9747 49.5486 37.0186" stroke="none" stroke-width="3" stroke-linecap="round"/>
<path d="M9.66309 43.2017C10.5556 43.2612 11.3 43.6596 12.0069 44.1715C12.6867 44.6638 12.5053 45.5186 13.4348 45.8284C14.0167 46.0224 14.812 46.2143 15.361 46.5019C15.9379 46.804 16.3432 47.0061 17.0179 47.0811C17.5401 47.1391 17.8833 47.5596 18.3312 47.8018C19.285 48.3173 20.0479 49.0751 20.9984 49.627C22.6106 50.5631 24.6253 50.9614 26.4404 51.2569C28.6616 51.6185 30.939 51.5667 33.1823 51.5667" stroke="none" stroke-width="3" stroke-linecap="round"/>
<path d="M7.72331 41.6257C7.62126 40.4522 6.91196 39.3886 6.41669 38.3524C5.79731 37.0566 5.94162 35.6026 5.366 34.2978C5.25991 34.0574 5.01536 33.9259 4.87433 33.7051C4.60985 33.2912 4.40956 32.7598 4.26144 32.2908C4.11082 31.8138 4.20755 30.7562 4.20755 31.9877C4.20755 35.3898 3.49094 41.1197 7.60207 42.3531" stroke="none" stroke-width="3" stroke-linecap="round"/>
</svg>
