<svg width="5495" height="1392" viewBox="0 0 5495 1392" fill="none" xmlns="http://www.w3.org/2000/svg">
<path d="M212.951 24.8398C296.229 24.8398 370.141 50.9454 451.344 67.1858C595.63 96.0431 734.746 109.532 882.646 109.532C1084.99 109.532 1300.25 90.2585 1500.58 123.647C1698.42 156.619 1910.36 137.763 2110.68 137.763C2285.29 137.763 2455.07 180.109 2629.81 180.109C3248.71 180.109 3868.84 194.224 4486.76 194.224C4738.76 194.224 4991.2 208.339 5244.28 208.339C5359.47 208.339 5379.16 267.864 5379.16 363.608C5379.16 396.402 5377.44 429.692 5379.16 462.415C5382.68 529.234 5461.67 563.908 5463.86 620.821C5466.26 683.232 5480.85 785.982 5456.01 842.745C5426.46 910.29 5407.39 951.329 5407.39 1027.03C5407.39 1067.81 5431.68 1191.71 5393.28 1197.2C5351.64 1203.15 5316.52 1238.76 5273.3 1238.76C5231.38 1238.76 5164.37 1246.18 5125.87 1259.93C5056.37 1284.75 4977.49 1281.32 4905.52 1295.22C4786.79 1318.16 4664.72 1350.15 4544.79 1362.66C4422.81 1375.39 4415.84 1353.04 4293 1357.95C4169.49 1362.89 4074.48 1357.17 3951 1362.66C3865.75 1366.45 3717.84 1337.99 3635.5 1357.95C3548.87 1378.95 3340.54 1323.45 3251.5 1323.45C3116.4 1323.45 2994.84 1332.12 2860.5 1323.45C2724.26 1314.66 2660.81 1302.04 2524.5 1295.22C2426.65 1290.33 2208.57 1309.72 2110.68 1295.22C2047.43 1285.85 1953.43 1305.96 1890.5 1295.22C1732.92 1268.32 1583.62 1267.04 1425.48 1260.72C1366.56 1258.36 1347.26 1252.87 1287 1252.87C1232.24 1252.87 1094.23 1277.19 1041.5 1260.72C919.607 1222.62 899.581 1252.87 772.86 1252.87C639.885 1252.87 462.14 1222.39 334.5 1259.93C258.618 1282.25 164.484 1266.99 85.9135 1266.99C1.13788 1266.99 29.4521 1198.27 29.4521 1125.05C29.4521 937.674 21.1975 745.671 44.3517 560.438C54.531 479.004 95.7439 402.675 100.029 321.262C102.232 279.397 135.082 270.429 150.217 233.433C171.081 182.432 171.404 120.455 184.721 67.1858" stroke="black" stroke-width="49" stroke-linecap="round"/>
</svg>
