<svg width="5330" height="1057" viewBox="0 0 5330 1057" fill="none" xmlns="http://www.w3.org/2000/svg">
<path d="M136.62 25.53C365.063 57.5921 597.36 36.8649 827.231 43.8308C1010.99 49.3993 1192.96 60.2051 1377.22 60.2051C1593.61 60.2051 1810.01 60.2051 2026.41 60.2051C2365.28 60.2051 2704.3 77.5426 3044.51 77.5426C3380.4 77.5426 3720.06 103.847 4054.9 112.218C4292.58 118.16 4575.59 146.788 4809.08 103.549C4862.26 93.6997 5288.05 -8.18008 5302.24 69.837C5314.67 138.24 5285.86 195.569 5285.86 259.586C5285.86 308.061 5290.68 358.754 5285.86 406.955C5281.99 445.699 5251.19 467.417 5251.19 510.98C5251.19 583.773 5236.63 642.958 5233.85 715.178C5230.87 792.629 5243.85 909.743 5154.87 909.743C4863.54 909.743 4574.5 944.418 4284.14 944.418C4122.72 944.418 3978.34 979.093 3819.88 979.093C3708.05 979.093 3595.42 974.979 3483.72 980.056C3385.11 984.539 3294.13 1013.77 3193.8 1013.77C2883.3 1013.77 2569.05 1031.11 2262.39 1031.11C2131.4 1031.11 2000.4 1031.11 1869.41 1031.11C1787.58 1031.11 1705.6 1032.74 1623.79 1031.11C1564.45 1029.92 1505.63 1018.51 1450.42 996.431C1430.91 988.628 1406.26 963.011 1384.92 961.756C1207.77 951.335 1005.88 993.922 839.753 918.412C777.755 890.231 672.509 909.743 604.733 909.743C506.032 909.743 404.128 892.406 302.29 892.406C145.915 892.406 94.4398 918.741 36.4978 736.001C4.00591 633.526 51.4993 599.469 51.4993 494.501C51.4993 462.416 49.7505 398.972 70.9997 373.001C101.106 336.204 93.7272 256.229 105 205.501C141.47 41.3869 16.5 6.93111 193.5 32.4573" stroke="black" stroke-width="49" stroke-linecap="round"/>
</svg>
