<svg width="4567" height="2663" viewBox="0 0 4567 2663" fill="none" xmlns="http://www.w3.org/2000/svg">
<path d="M51.9219 27.104C430.253 27.104 808.584 27.104 1186.92 27.104C1286.61 27.104 1397.79 14.592 1496 29.9368C1541.25 37.0076 1594.14 21.5388 1636.38 38.435C1677.23 54.7756 1741.31 44.1006 1785.57 44.1006C1839.58 44.1006 1890.23 43.6971 1943.58 35.917C1999.3 27.7911 2052.42 26.1215 2107.88 20.1795C2191.6 11.2095 2274 10.1074 2359.05 10.1074C2386.54 10.1074 2414.03 10.1074 2441.51 10.1074C2493.46 10.1074 2540.73 49.7661 2591.02 49.7661C2668.08 49.7661 2739.69 72.4282 2817.01 72.4282C2857.51 72.4282 2883.93 47.975 2923.08 44.4153C2961.32 40.9392 2993.62 15.7729 3031.99 15.7729" stroke="black" stroke-width="20" stroke-linecap="round"/>
<path d="M3028.88 20.92C3100.45 20.92 3170.36 11.3174 3241.2 11.3174C3273.02 11.3174 3300.16 25.7213 3331.63 25.7213C3396.41 25.7213 3461.52 30.5226 3527.15 30.5226C3665.63 30.5226 3804.86 25.7213 3943.79 25.7213C4143.42 25.7213 4342.16 30.5226 4541.29 30.5226" stroke="black" stroke-width="20" stroke-linecap="round"/>
<path d="M4556.56 28.6279C4536.32 36.2195 4534.79 115.162 4534.79 133.251C4534.79 166.738 4526.79 194.653 4524.21 226.989C4518.95 292.713 4513.02 355.581 4513.02 422.931C4513.02 510.695 4514.36 605.483 4528.74 691.746C4537.38 743.571 4534.16 796.902 4541.44 848.681C4551.28 918.654 4557.72 991.58 4548.4 1062.46C4538.73 1135.95 4528.88 1208.42 4518.46 1281.39C4503.98 1382.75 4485.8 1479.82 4485.8 1582.25C4485.8 1605.03 4484.08 1627.96 4493.67 1649.38C4507.76 1680.88 4527.51 1698.39 4533.58 1734.05C4542.1 1784.12 4534.79 1841.76 4534.79 1892.8C4534.79 1923.68 4529.35 1940.72 4518.16 1968.69C4507.28 1995.89 4511.31 2022.7 4501.83 2050.34C4481.12 2110.75 4480.36 2177.1 4480.36 2240.84C4480.36 2289.7 4491.25 2337.43 4491.25 2386.89C4491.25 2428.11 4491.25 2469.33 4491.25 2510.56" stroke="black" stroke-width="20" stroke-linecap="round"/>
<path d="M4496.69 2521.44C4497.39 2562.34 4500.32 2603.08 4513.02 2641.19" stroke="black" stroke-width="20" stroke-linecap="round"/>
<path d="M40.2523 30.3369C40.2523 115.942 30.7921 196.93 30.7921 282.609C30.7921 354.302 11.8717 423.637 11.8717 495.727C11.8717 526.954 7.64706 562.081 12.3973 592.957C15.5993 613.77 25.3551 636.461 29.741 658.39C34.3764 681.567 30.7921 708.35 30.7921 731.707C30.7921 781.098 56.7609 824.594 54.1799 874.924C51.1593 933.826 33.474 991.525 25.0109 1048.89C11.1219 1143.02 11.8717 1235.44 11.8717 1331.12C11.8717 1388.2 7.41775 1445.66 20.2808 1501.4C24.1614 1518.22 21.3319 1538.73 21.3319 1555.8C21.3319 1586.4 30.7921 1615.65 30.7921 1645.67C30.7921 1695.92 29.718 1742.91 21.8575 1792.04C11.631 1855.95 16.6018 1923.34 16.6018 1988.08C16.6018 2031.48 8.61899 2081.8 17.3902 2124.2C25.6614 2164.18 59.1728 2197.65 59.1728 2239.3" stroke="black" stroke-width="20" stroke-linecap="round"/>
<path d="M77.8564 2239.3C77.8564 2330 64.0291 2419.26 64.0291 2510.19C64.0291 2537.24 52.0728 2588.32 68.6382 2610.3" stroke="black" stroke-width="20" stroke-linecap="round"/>
<path d="M68.8271 2595.45C189.605 2598.55 319.962 2590.44 435.812 2624.77C509.399 2646.57 598.294 2628.34 674.996 2645.87C741.636 2661.1 819.16 2644.71 883.697 2632.97C954.747 2620.05 1022.14 2595.45 1094.74 2595.45C1159.09 2595.45 1208.71 2558.24 1269.44 2545.04C1360.04 2525.34 1460.09 2553.24 1550.83 2553.24C1655.44 2553.24 1757.61 2574.35 1862.71 2574.35C2048.79 2574.35 2224.36 2595.45 2409.09 2595.45C2499.86 2595.45 2583.44 2620.72 2672.89 2627.11C2758.45 2633.22 2842.16 2637.66 2928.49 2637.66C3093.42 2637.66 3258.35 2637.66 3423.28 2637.66C3773.52 2637.66 4118.84 2606.01 4469.12 2606.01" stroke="black" stroke-width="20" stroke-linecap="round"/>
</svg>
