<svg width="2100" height="1851" viewBox="0 0 2100 1851" fill="none" xmlns="http://www.w3.org/2000/svg">
<path d="M94.0605 845.612C94.0605 964.725 94.0605 1083.84 94.0605 1202.95C94.0605 1237.19 94.0605 1271.43 94.0605 1305.67C94.0605 1346.74 111.83 1387.19 115.081 1427.83C121.194 1504.25 147.542 1632.93 226.13 1670.15C245.225 1679.2 259.548 1691.83 275.705 1705.05C285.657 1713.2 313.721 1715.73 326.867 1719.73C400.345 1742.09 462.3 1759.39 540.637 1759.39C641.299 1759.39 731.832 1776.31 829.365 1745.51C870.439 1732.54 916.363 1737.97 959.055 1737.97C977.895 1737.97 1001.35 1742.4 1018.94 1734.4C1051.11 1719.78 1073.67 1698.58 1110.16 1694.74C1158.54 1689.65 1202.69 1611.71 1236.28 1580.52C1276.39 1543.28 1297.95 1490.82 1319.17 1441.31C1332.9 1409.28 1350.5 1381.45 1350.5 1345.33C1350.5 1303.2 1353.6 1254.26 1359.23 1212.07C1365.38 1165.92 1364.78 1120.57 1364.78 1074.06C1364.78 1052.53 1377.68 1038.47 1379.06 1018.53C1380.68 994.973 1379.06 970.755 1379.06 947.143C1379.06 860.947 1379.06 774.752 1379.06 688.556C1379.06 647.791 1382.13 586.473 1364.78 549.745C1332.67 481.751 1265.6 469.93 1198.21 454.56C1072.03 425.784 945.248 431.557 816.674 431.557C716.201 431.557 615.728 431.557 515.255 431.557C476.213 431.557 432.503 426.292 393.894 431.557C345.754 438.121 300.389 485.471 252.702 497.393C81.1251 540.287 86.9217 749.199 86.9217 888.445" stroke="#F4B73F" stroke-width="172" stroke-linecap="round"/>
<path d="M219.305 911.724C219.305 1007.47 219.305 1103.23 219.305 1198.98C219.305 1226.5 219.305 1254.02 219.305 1281.55C219.305 1314.56 235.344 1347.08 238.278 1379.74C243.796 1441.18 267.579 1544.62 338.515 1574.54C355.751 1581.81 368.68 1591.97 383.263 1602.6C392.246 1609.14 417.578 1611.18 429.444 1614.39C495.767 1632.37 551.69 1646.27 622.4 1646.27C713.261 1646.27 794.979 1659.87 883.016 1635.11C920.091 1624.69 961.543 1629.06 1000.08 1629.06C1017.08 1629.06 1038.25 1632.62 1054.13 1626.19C1083.17 1614.44 1103.54 1597.39 1136.47 1594.31C1180.14 1590.21 1219.99 1527.56 1250.31 1502.49C1286.52 1472.55 1305.98 1430.38 1325.13 1390.58C1337.52 1364.84 1353.41 1342.47 1353.41 1313.43C1353.41 1279.56 1356.21 1240.22 1361.29 1206.31C1366.84 1169.2 1366.3 1132.75 1366.3 1095.36C1366.3 1078.06 1377.95 1066.76 1379.19 1050.73C1380.65 1031.79 1379.19 1012.32 1379.19 993.34C1379.19 924.051 1379.19 854.762 1379.19 785.473C1379.19 752.703 1381.96 703.412 1366.3 673.888C1337.32 619.23 1276.77 609.728 1215.95 597.372C1102.06 574.24 987.615 578.881 871.56 578.881C780.87 578.881 690.179 578.881 599.489 578.881C564.249 578.881 524.794 574.649 489.944 578.881C446.492 584.158 405.544 622.221 362.5 631.804C207.629 666.285 212.861 834.221 212.861 946.156" stroke="#F4B73F" stroke-width="172" stroke-linecap="round"/>
<path d="M591.943 105.845C591.943 247.97 578.447 389.762 578.447 532.488C578.447 588.635 601.1 721.636 571.698 768.678C541.435 817.1 564.95 941.11 564.95 999.62C564.95 1100.74 601.778 1201.04 669.924 1277.05C734.87 1349.49 747.76 1389 848.379 1421.01C1014.28 1473.8 1201.8 1439.01 1373.25 1475.75C1558.89 1515.53 1759.51 1496 1949.1 1496C1971.31 1496 2040.17 1507.42 2054.83 1486.25C2094.08 1429.54 2063.07 1273.88 2063.07 1205.82C2063.07 1036.77 1971.85 885.068 1968.6 719.191C1966.86 630.458 1955.1 541.212 1955.1 453.758C1955.1 370.923 1973.02 265.194 1947.6 185.325C1902.62 43.9581 1779.76 24.8652 1644.68 24.8652C1398.24 24.8652 1151.8 24.8652 905.365 24.8652C773.624 24.8652 694.703 42.2717 591.943 119.342" stroke="#F4B73F" stroke-width="49" stroke-linecap="round"/>
<rect x="240" y="631" width="1062" height="931" fill="#F4B73F"/>
</svg>
