<svg width="50" height="49" viewBox="0 0 50 49" fill="none" xmlns="http://www.w3.org/2000/svg">
<g clip-path="url(#clip0_456_30)">
<path d="M10.4122 23.3022C10.4122 22.1713 11.3602 21.2423 12.5122 21.2423H16.0542C17.2082 21.2423 18.1962 22.1713 18.1962 23.3434V36.4342C18.6082 36.3127 19.1022 36.1912 19.6802 36.0697C20.4622 35.8678 21.0402 35.1818 21.0402 34.3723V18.1298C21.0402 16.9989 21.9882 16.0287 23.1822 16.0287H26.7242C27.8782 16.0287 28.8662 16.9577 28.8662 18.1298V33.2022C28.8662 33.2022 29.7322 32.8376 30.5962 32.475C31.2562 32.1928 31.6682 31.5872 31.6682 30.858V12.879C31.6682 11.748 32.6162 10.7778 33.7702 10.7778H37.3122C38.4662 10.7778 39.4142 11.7069 39.4142 12.879V27.7083C42.4622 25.5268 45.5942 22.9004 48.0662 19.7488C48.8082 18.8197 49.0142 17.6065 48.6022 16.4756C44.0702 3.70812 29.8182 -3.08132 16.8002 1.36396C3.78218 5.80924 -3.13782 19.788 1.39218 32.5574C1.88618 34.0117 2.54618 35.3856 3.32818 36.7184C3.94618 37.769 5.10018 38.3746 6.33618 38.2531C6.99618 38.212 7.82018 38.1316 8.84818 38.0101C9.75418 37.9297 10.4142 37.1614 10.4142 36.2716L10.4122 23.3022Z" fill="#21325B"/>
<path d="M10.3281 44.3133C21.4921 52.2729 37.1061 49.8484 45.2201 38.8998C48.3101 34.6976 49.9981 29.6467 49.9981 24.4762C49.9981 23.9097 49.9561 23.3452 49.9161 22.7788C40.8141 36.1519 23.9641 42.4141 10.3281 44.3133Z" fill="#979695"/>
</g>
<defs>
<clipPath id="clip0_456_30">
<rect width="50" height="49" fill="white"/>
</clipPath>
</defs>
</svg>
