<svg width="1235" height="1236" viewBox="0 0 1235 1236" fill="none" xmlns="http://www.w3.org/2000/svg">
<path d="M19.001 14.3596C42.6926 9.49974 68.25 12.4855 92.3973 10.4732C96.5464 10.1275 100.782 10.3622 104.945 10.3622C118.565 10.3622 132.186 10.3622 145.807 10.3622C168.977 10.3622 192.147 10.3622 215.317 10.3622C242.632 10.3622 269.948 10.3622 297.263 10.3622C310.823 10.3622 326.158 8.47195 339.014 13.4713C351.217 18.2169 363.59 15.1595 376.322 16.8024C405.9 20.6188 436.463 18.3569 466.264 18.3569C489.635 18.3569 513.15 20.3556 536.662 20.3556C579.005 20.3556 621.347 20.3556 663.69 20.3556C750.999 20.3556 852.855 18.5 940 18.5" stroke="#EBBA30" stroke-width="20" stroke-linecap="round"/>
<path d="M706.5 21.7743C722.429 23.2492 762.076 19.5614 778.105 20.5759C785.907 21.0697 792.811 22.6407 800.476 23.8383C811.295 25.5287 822.839 24.4375 833.766 24.4375C845.824 24.4375 857.388 22.1647 869.32 20.9088C877.661 20.0307 886.313 21.8789 894.62 20.5759C920.282 16.5505 947.189 16.5299 973.185 16.0484C979.727 15.9273 985.525 13.6516 991.96 13.6516C996.665 13.6516 1001.37 13.6516 1006.08 13.6516C1012.77 13.6516 1019.1 12.4531 1025.78 12.4531C1042.28 12.4531 1059.27 14.5186 1075.58 16.9806C1084.82 18.374 1095.54 18.4453 1104.81 18.4453C1113.12 18.4453 1121.82 20.5985 1130.05 21.7743C1150.6 24.7104 1172.27 23.2391 1193.03 23.2391C1201.26 23.2391 1211.35 23.3326 1218.73 19.6438" stroke="#EBBA30" stroke-width="20" stroke-linecap="round"/>
<path d="M1220.19 23.5469C1209.69 62.2947 1203.75 123.908 1217 161C1224.12 180.949 1225.12 201.011 1222.71 220.918C1220.95 235.427 1220.19 251.482 1220.19 265.981C1220.19 296.896 1220.19 330.082 1220.19 360.5C1220.19 381.563 1220.19 409.937 1220.19 431C1220.19 466.143 1215.5 522.145 1215.5 557.5" stroke="#EBBA30" stroke-width="20" stroke-linecap="round"/>
<path d="M1224.73 508.416C1224.73 549.943 1217.93 589.258 1217.93 630.766C1217.93 647.759 1217.93 664.752 1217.93 681.745C1217.93 700.924 1211.12 718.621 1214.53 738.389C1219.51 767.29 1215.66 798.997 1215.66 828.389C1215.66 838.515 1219.05 854.903 1215.16 864.138C1211.12 873.744 1208.4 890.851 1212.14 900.893C1216.84 913.528 1215.66 926.409 1215.66 939.914C1215.66 953.41 1217.45 968.325 1215.54 981.704C1213.72 994.43 1208.87 1004.69 1208.87 1018.21C1208.87 1035.04 1208.94 1051.42 1211.01 1067.93C1211.82 1074.42 1210.87 1081.17 1211.13 1087.69C1211.6 1099.01 1217.29 1108.9 1217.93 1120.17C1218.27 1126.12 1222.46 1129.81 1222.46 1136.03C1222.46 1140.39 1222.46 1144.75 1222.46 1149.12C1222.46 1159.77 1216.25 1168 1215.66 1179.08C1214.95 1192.61 1211.13 1205.83 1211.13 1219.86" stroke="#EBBA30" stroke-width="20" stroke-linecap="round"/>
<path d="M15.1547 14.502C15.1547 129.048 15.1547 243.593 15.1547 358.139C15.1547 408.913 23.7218 457.885 23.7218 509.253C23.7218 554.203 19.4382 600.366 19.4382 644.186C19.4382 729.91 10.8711 817.789 10.8711 905.483C10.8711 1010.28 15.1547 1113.44 15.1547 1218.18" stroke="#EBBA30" stroke-width="20" stroke-linecap="round"/>
<path d="M19.3516 1210.8C34.4057 1222.09 70.1021 1215.33 88.5826 1215.33C104.622 1215.33 134.333 1212.34 150 1215.33C173.2 1219.75 180.311 1222.63 204 1222.63C226.929 1222.63 246.249 1220.38 268.5 1215.33C323.694 1202.78 386.33 1218.08 441.913 1209.66C484.235 1203.25 528.707 1206.26 571.689 1206.26C598.027 1206.26 623.336 1211.09 649.228 1212.94C662.955 1213.92 676.178 1216.32 689.885 1217.47C697.058 1218.06 705.286 1216.1 712.165 1218.6C717.809 1220.65 721.889 1222.77 728.025 1223.89C748.896 1227.68 765.302 1222.12 786.5 1222.12C807.716 1222.12 842.752 1215.64 863.5 1218.6C879.078 1220.83 911.237 1212.08 927 1212.94C946.857 1214.01 983.297 1206 1003.19 1206C1015.61 1206 1020.1 1212.94 1032.5 1212.94C1046.47 1212.94 1029.05 1222.12 1042.59 1222.12C1057.44 1222.12 1070.25 1218.75 1084.63 1217.72C1103.38 1216.38 1122.6 1217.59 1141.4 1217.59C1166.91 1217.59 1192.42 1217.59 1217.93 1217.59" stroke="#EBBA30" stroke-width="20" stroke-linecap="round"/>
</svg>
