<svg width="24" height="28" viewBox="0 0 24 28" fill="none" xmlns="http://www.w3.org/2000/svg">
<path d="M9.45333 13.9505L21.8187 9.50785V16.8945C21.0435 16.4513 20.1649 16.2209 19.272 16.2265C16.6613 16.2265 14.5453 18.1279 14.5453 20.4732C14.5453 22.8185 16.6613 24.7199 19.272 24.7199C21.884 24.7199 24 22.8185 24 20.4732V7.98918C24 6.49585 24 5.24385 23.8827 4.24652C23.8666 4.10833 23.8475 3.97052 23.8253 3.83318C23.7133 3.15318 23.5133 2.51585 23.1293 1.98518C22.8899 1.65081 22.5828 1.37052 22.228 1.16252L22.216 1.15585C21.188 0.541185 20.0307 0.585184 18.84 0.857184C17.688 1.12118 16.2587 1.65718 14.5067 2.31718L11.4613 3.46252C10.6413 3.77052 9.94533 4.03185 9.39867 4.30252C8.81867 4.59052 8.31867 4.93052 7.94267 5.43718C7.568 5.94385 7.412 6.49052 7.34 7.08252C7.27333 7.63985 7.27333 8.31718 7.27333 9.11585V19.5079C6.49814 19.0647 5.61959 18.8342 4.72667 18.8399C2.116 18.8399 0 20.7412 0 23.0865C0 25.4319 2.116 27.3332 4.72667 27.3332C7.33867 27.3332 9.45467 25.4319 9.45467 23.0865L9.45333 13.9505Z" fill="#FFA30A"/>
</svg>
