<svg width="967" height="137" viewBox="0 0 967 137" fill="none" xmlns="http://www.w3.org/2000/svg">
<path d="M0.500049 43.8C0.300049 44.5 0.300049 45.3 0.300049 46.1C0.300049 46.9 0.400049 47.6 0.500049 48.4C1.10005 50.5 2.40005 52.6 4.10005 54.4C5.80005 56.3 8.00005 57.9 10.5 59C15.5 61.3 20.2 60.8 26.1 60.1C32 59.4 39.0001 58.3 48.7001 59.2C57.5001 60 63.6 63.2 68.8 65.8C74 68.4 78.4 70.6 83.7 69.5C86.4 68.9 88 67.9 89.3 67.1C90.6 66.3 91.6 65.8 93.1 66C95.8 66.4 97.4 69.2 98.5 72.7C99.6 76.2 100 80.4 100.3 83.6C100.3 80.8 100.5 77.4 101.6 74.5C102.6 71.6 104.4 69.2 107.5 68.4C107.8 68.3 107.9 68.3 108.7 68.2C109.5 68.1 111.1 68 114.4 67.7C118 67.3 120.2 67 122 66.8C123.8 66.6 125.2 66.4 127.2 66.2C129.2 66.1 131 66 132.7 66C134.4 66 135.9 66 137.5 66C149.1 66.1 160.3 67.1 168.6 68.1C176.9 69.1 182.3 70.1 182.3 70.1C191.1 71.5 196.5 72.9 200.9 74.2C205.2 75.5 208.5 76.6 212.7 77.5C214.7 77.9 216.5 78.3 218.2 78.5C219.9 78.8 221.6 78.9 223.7 78.9C224.5 78.9 225.5 78.9 226.6 78.8C227.7 78.7 229 78.6 230.2 78.3C231.8 77.9 232.7 77.4 233.4 77C234.1 76.6 234.5 76.3 234.9 76.3C236.2 76.6 236.6 78.5 236.9 80.2C237.1 82 237.1 83.7 237.4 83.7C237.6 83.7 237.6 82.1 237.9 80.5C238.1 78.9 238.5 77.3 239.3 77.3C239.6 77.3 239.9 77.6 240.2 78C240.5 78.4 240.8 79 241.1 79.6C241.9 80.9 242.4 82.2 242.8 83.2C243.2 84.2 243.3 85 243.3 85.3C243.6 87.3 243.8 89 244 90.3C244.2 91.6 244.2 92.3 244.2 92.3L244.5 88.3L244.8 84.3C245 83.3 245 82.3 245.3 81.5C245.5 80.7 245.9 80.2 246.7 80C247 80 247.3 80.1 247.6 80.1C247.9 80.1 248.1 80.2 248.3 80.2C250.3 81 251.1 82.7 251.5 84.2C251.9 85.7 251.8 87 252.1 87C252.4 87 252.7 85 253.2 83C253.7 81 254.3 79 255.2 79C255.5 79 255.9 79.4 256.3 79.9C256.7 80.4 257 81.1 257.1 81.6C258.2 84.1 258.5 86.3 258.6 87.9C258.7 89.5 258.5 90.5 258.7 90.5C259.2 90.5 259.2 88.5 260 86C260.8 83.5 262.5 80.3 266.2 78C267.6 77.1 269.1 76.5 270.7 75.7C272.3 74.9 274.1 73.9 276.2 72.3C277.5 71.3 278.2 70.5 278.7 70C279.2 69.5 279.5 69.2 280 69.2C282.3 69.3 284.3 77.1 285.8 84.9C287.3 92.7 288.3 100.4 288.8 100.4C289.3 100.4 289.2 94.3 290.1 87.9C291 81.5 293 74.9 297.5 73.9C298 73.8 298.7 73.7 299.9 73.5C301.2 73.3 303 73.1 305.6 72.7C305.9 72.6 306.8 72.4 307.9 72.2C309.1 72 310.6 71.7 312.1 71.4C314.1 71 315.9 70.6 317.2 70.3C318.5 70 319.5 69.8 319.9 69.7C319.9 69.7 321.5 69.4 324.5 68.8C327.5 68.2 332 67.3 337.8 66.2C347 64.6 358.1 63.5 369.8 62.9C381.5 62.3 393.9 62 405.8 61.9C412.7 61.9 417.6 62.1 420.8 62.3C424 62.5 425.5 62.7 425.5 62.7C426.9 62.8 428.2 62.9 429.6 62.9C431 62.9 432.5 62.9 434.2 62.9C438.4 63 440.7 62.9 442.1 62.8C443.5 62.7 444.1 62.7 444.8 62.9C449 63.9 450.7 68.4 451.4 72.7C452.1 77 452 81 452.6 81C453.2 81 452.6 77.9 453.1 73.9C453.6 70 455.1 65.3 460.1 62.1C464.5 59.3 470 59 475.7 58.5C481.4 58 487.4 57.2 492.7 53.5C495.4 51.8 496.8 50 498 48.6C499.1 47.3 499.9 46.4 501.2 46.5C504 46.7 505.7 51.6 506.8 56.4C507.9 61.2 508.6 66 509.3 66C510.1 66 509.5 62.6 509.7 58.7C509.9 54.9 510.9 50.6 515 48.9C518.3 47.7 521.5 48.8 526.6 50.8C531.7 52.8 538.6 55.7 549.5 57.9C558.4 59.9 567.5 60.9 576.2 61.9C584.9 62.9 593.3 63.7 600.8 65.3C607.2 66.6 610.9 67.5 613.8 68.2C616.7 68.9 618.9 69.5 622.4 70.2H623.2H624C624.9 70.3 625.4 70.4 625.6 70.4C625.8 70.4 625.8 70.4 625.8 70.4C626.7 70.6 627.1 71.5 627.2 72.3C627.4 73.1 627.4 73.9 627.7 73.9C628 73.9 628.3 72.8 628.6 71.7C628.9 70.6 629.2 69.5 629.5 69.5C629.7 69.5 629.8 69.7 630 70.1C630.2 70.5 630.3 71.3 630.5 72.4C630.8 73.8 631 74.9 631.1 75.5C631.2 76.2 631.3 76.5 631.5 76.5C631.7 76.5 631.7 75.3 631.9 74.1C632.1 72.9 632.4 71.7 633 71.6C633.3 71.6 633.6 71.9 633.9 72.3C634.2 72.7 634.4 73.1 634.6 73.5C635.5 75.2 635.9 76.8 636.1 78C636.3 79.2 636.2 79.9 636.2 79.9C636.5 79.9 636.9 77.4 637.3 74.9C637.7 72.4 638.2 69.9 638.7 69.9C639.2 69.9 639.6 71.6 639.9 73.3C640.3 75 640.6 76.7 640.9 76.7C641.1 76.7 641.2 76.4 641.4 75.8C641.6 75.2 641.8 74.3 642.1 73C642.3 72.3 642.3 71.8 642.4 71.4C642.5 71.1 642.6 70.9 642.7 70.9C643 70.9 643.3 71.4 643.6 71.8C643.8 72.3 644 72.8 644 72.9C644.2 73.3 644.2 73.7 644.3 74C644.3 74.3 644.3 74.5 644.3 74.5C644.3 74.5 644.5 73.9 644.8 73.2C645.1 72.6 645.4 71.9 645.5 71.8C645.7 71.6 646 71.4 646.4 71.3C646.8 71.2 647.3 71.1 647.7 71.2C648.6 71.3 649 72.3 649.2 73.4C649.4 74.5 649.4 75.8 649.6 76.5C649.6 76 649.7 75.1 650 74.2C650.3 73.3 650.7 72.5 651.5 72.2C652 72.1 652.4 72.1 652.9 72.2C653.4 72.3 654 72.3 655 72.2C655.8 72.1 656.5 71.9 657.1 71.7C657.7 71.5 658.2 71.3 658.5 71.2C659.9 70.6 666.7 68.4 676.5 66.4C686.3 64.4 699.2 62.6 712.6 62.6C716 62.6 718.8 62.7 720.9 62.9C723 63.1 724.5 63.3 725.4 63.5C730.9 64.5 734.9 66.5 743.6 69.2C752.2 71.9 765.5 75.4 789.3 79.5C790.4 79.7 791.7 79.9 793.5 80.1C795.3 80.3 797.6 80.6 800.5 81C802.4 81.2 803.5 81.4 804.2 81.5C804.9 81.6 805.2 81.7 805.5 81.8C808 82.9 808.9 85 809.3 86.9C809.6 88.8 809.3 90.5 809.3 91.1C809.8 90.4 810.2 88.5 810.6 86.8C811 85.1 811.4 83.5 811.9 83.5C812.4 83.5 813 86.5 813.6 89.5C814.2 92.5 814.7 95.5 815 95.5C815.5 95.5 815.2 93.4 815.3 91.2C815.5 89 816.1 86.6 818.4 85.8C820.1 85.2 821.9 85.7 823.9 86.2C825.9 86.7 828 87.3 830.3 86.8C832.8 86.3 834.2 85 835.3 83.8C836.4 82.6 837.1 81.6 838.2 81.6C840.7 81.6 842.5 88 844 94.4C845.4 100.8 846.5 107.2 847.6 107.2C848.9 107.2 849.6 98.4 850.6 89.6C851.7 80.8 853.1 72 855.7 71.9C856 71.9 856.4 72 857.6 73.6C858.8 75.2 860.8 78.2 864.4 84C866.9 88 868.5 90.6 869.7 92.2C870.9 93.8 871.8 94.4 872.9 94.4C875.2 94.4 877 91.5 878.4 88.5C879.8 85.6 881 82.6 882.3 82.6C884 82.7 884.9 87.7 885.4 92.7C885.9 97.7 886.2 102.7 886.7 102.7C887.2 102.7 887.1 96.7 888 90.5C888.9 84.3 890.8 78 895.2 77.2C897.2 76.9 899 77.9 901.3 79C903.7 80.2 906.7 81.5 911.4 81.9C915.2 82.2 917.7 81.7 919.9 81.2C922 80.7 923.7 80.1 925.5 80.3C933.8 80.9 938.6 95 941.6 108.9C944.7 122.8 946 136.6 947.4 136.6C948.8 136.6 951.3 124.6 953.2 110.3C955.1 96 956.4 79.4 955.5 70.1C955.3 68.8 955.1 66.9 955.3 64.7C955.5 62.5 956.1 59.9 957.7 57C959.6 53.8 961.7 52.1 963.4 50.6C965.1 49.2 966.3 48 966.5 46.1C966.7 45.3 966.6 44.5 966.3 43.8C966 43.1 965.6 42.3 964.9 41.6C964.3 40.7 963.4 39.8 962.4 39C961.4 38.2 960.2 37.4 959 36.7C956.5 35.2 953.8 33.8 951.3 32.7C948.8 31.6 946.5 30.6 945 29.9C937.6 27 930.4 25.4 924.6 24.6C918.8 23.7 914.3 23.6 912.4 23.6C903.5 23.4 898.6 24.4 894.4 25.2C890.2 26 886.6 26.8 880.2 26C871.1 25 865.5 22 860.7 19.5C855.9 17 852 15 846.4 15.9C842.3 16.5 840.5 18.3 838.3 20.3C836 22.3 833.3 24.5 827.3 25.9C825.6 26.4 823.2 26.9 819.5 27.2C815.8 27.5 810.7 27.5 803.5 26.9C797.7 26.5 792.8 26 787.8 25.3C782.9 24.6 777.9 23.8 772.1 22.8C758.5 20.3 748.2 18.5 740.5 17.3C732.9 16.1 727.9 15.7 725.1 16C717.9 16.5 714.4 17.8 710.9 19C707.4 20.2 704 21.3 696.9 21.4C691.6 21.6 686.8 21.1 681.5 20.2C676.2 19.2 670.3 17.7 662.8 15.9C660.8 15.4 657.9 14.6 653.6 13.3C649.3 12 643.6 10.3 635.9 8.09999C629.8 6.29999 626.4 5.19999 624.1 4.59999C621.8 3.89999 620.5 3.59999 618.7 3.19999C615.7 2.59999 611.3 1.69999 606.3 1.09999C601.3 0.499989 595.7 0.299989 590.2 0.999989C584.1 1.69999 580.8 3.29999 577.4 5.39999C574 7.49999 570.5 10.1 563.9 12.9C558.1 15.4 551 16.8 541.1 17.9C531.2 19 518.5 19.6 501.6 20.5C495.3 20.8 490 21.1 484.7 21.3C479.4 21.5 474.2 21.5 468.1 21.3C459.8 21.1 455.4 20.6 452.1 20.3C448.8 20 446.5 19.8 442.4 20.2C435.2 21 431.1 22.6 426.6 24.2C422.2 25.8 417.5 27.4 409.2 28.5C404 29.1 399.4 29.3 395.9 29.3C392.3 29.3 389.8 29.1 388.9 29.1C380.1 28.4 375.7 26.8 371.4 25.2C367.1 23.6 363.1 22.1 355.1 21.5C350.1 21.2 345.2 21.3 340.3 21.7C335.5 22.1 330.8 22.7 326.3 23.3C324.3 23.6 322.3 23.9 320.3 24.2C318.3 24.5 316.2 24.9 313.8 25.3C302.4 27.5 295.4 29.3 290.2 30.7C285 32.1 281.6 33.2 277.2 33.9C266.1 35.5 259.4 33.1 250.6 29.8C241.8 26.5 230.7 22.4 210.8 20.8C205.8 20.4 200.6 20 195 19.9C189.4 19.8 183.3 20.2 176.4 21.2C169.5 22.2 165.3 23.5 161.1 24.6C157 25.7 152.9 26.6 146.3 26.9C139.7 27.3 136.3 26.8 132.5 26.2C128.7 25.6 124.4 24.8 116.3 24.6C111.9 24.5 109.3 24.7 103.8 25.2C98.3 25.8 90 26.8 74.4 28.5C65.6 29.4 61.3 29.8 57.5 30.2C53.7 30.6 50.6001 30.9 44.4001 31.6C26.1001 33.7 16 35.1 10.2 36.4C4.40005 37.7 3.00005 38.8 2.10005 40C1.80005 40.5 1.50005 41 1.20005 41.6C0.900048 42.6 0.700049 43.2 0.500049 43.8Z" fill="#FEECD4"/>
<path d="M0.500049 43.8C0.300049 44.5 0.300049 45.3 0.300049 46.1C0.300049 46.9 0.400049 47.6 0.500049 48.4C1.10005 50.5 2.40005 52.6 4.10005 54.4C5.80005 56.3 8.00005 57.9 10.5 59C15.5 61.3 20.2 60.8 26.1 60.1C32 59.4 39.0001 58.3 48.7001 59.2C57.5001 60 63.6 63.2 68.8 65.8C74 68.4 78.4 70.6 83.7 69.5C86.4 68.9 88 67.9 89.3 67.1C90.6 66.3 91.6 65.8 93.1 66C95.8 66.4 97.4 69.2 98.5 72.7C99.6 76.2 100 80.4 100.3 83.6C100.3 80.8 100.5 77.4 101.6 74.5C102.6 71.6 104.4 69.2 107.5 68.4C107.8 68.3 107.9 68.3 108.7 68.2C109.5 68.1 111.1 68 114.4 67.7C118 67.3 120.2 67 122 66.8C123.8 66.6 125.2 66.4 127.2 66.2C129.2 66.1 131 66 132.7 66C134.4 66 135.9 66 137.5 66C149.1 66.1 160.3 67.1 168.6 68.1C176.9 69.1 182.3 70.1 182.3 70.1C191.1 71.5 196.5 72.9 200.9 74.2C205.2 75.5 208.5 76.6 212.7 77.5C214.7 77.9 216.5 78.3 218.2 78.5C219.9 78.8 221.6 78.9 223.7 78.9C224.5 78.9 225.5 78.9 226.6 78.8C227.7 78.7 229 78.6 230.2 78.3C231.8 77.9 232.7 77.4 233.4 77C234.1 76.6 234.5 76.3 234.9 76.3C236.2 76.6 236.6 78.5 236.9 80.2C237.1 82 237.1 83.7 237.4 83.7C237.6 83.7 237.6 82.1 237.9 80.5C238.1 78.9 238.5 77.3 239.3 77.3C239.6 77.3 239.9 77.6 240.2 78C240.5 78.4 240.8 79 241.1 79.6C241.9 80.9 242.4 82.2 242.8 83.2C243.2 84.2 243.3 85 243.3 85.3C243.6 87.3 243.8 89 244 90.3C244.2 91.6 244.2 92.3 244.2 92.3L244.5 88.3L244.8 84.3C245 83.3 245 82.3 245.3 81.5C245.5 80.7 245.9 80.2 246.7 80C247 80 247.3 80.1 247.6 80.1C247.9 80.1 248.1 80.2 248.3 80.2C250.3 81 251.1 82.7 251.5 84.2C251.9 85.7 251.8 87 252.1 87C252.4 87 252.7 85 253.2 83C253.7 81 254.3 79 255.2 79C255.5 79 255.9 79.4 256.3 79.9C256.7 80.4 257 81.1 257.1 81.6C258.2 84.1 258.5 86.3 258.6 87.9C258.7 89.5 258.5 90.5 258.7 90.5C259.2 90.5 259.2 88.5 260 86C260.8 83.5 262.5 80.3 266.2 78C267.6 77.1 269.1 76.5 270.7 75.7C272.3 74.9 274.1 73.9 276.2 72.3C277.5 71.3 278.2 70.5 278.7 70C279.2 69.5 279.5 69.2 280 69.2C282.3 69.3 284.3 77.1 285.8 84.9C287.3 92.7 288.3 100.4 288.8 100.4C289.3 100.4 289.2 94.3 290.1 87.9C291 81.5 293 74.9 297.5 73.9C298 73.8 298.7 73.7 299.9 73.5C301.2 73.3 303 73.1 305.6 72.7C305.9 72.6 306.8 72.4 307.9 72.2C309.1 72 310.6 71.7 312.1 71.4C314.1 71 315.9 70.6 317.2 70.3C318.5 70 319.5 69.8 319.9 69.7C319.9 69.7 321.5 69.4 324.5 68.8C327.5 68.2 332 67.3 337.8 66.2C347 64.6 358.1 63.5 369.8 62.9C381.5 62.3 393.9 62 405.8 61.9C412.7 61.9 417.6 62.1 420.8 62.3C424 62.5 425.5 62.7 425.5 62.7C426.9 62.8 428.2 62.9 429.6 62.9C431 62.9 432.5 62.9 434.2 62.9C438.4 63 440.7 62.9 442.1 62.8C443.5 62.7 444.1 62.7 444.8 62.9C449 63.9 450.7 68.4 451.4 72.7C452.1 77 452 81 452.6 81C453.2 81 452.6 77.9 453.1 73.9C453.6 70 455.1 65.3 460.1 62.1C464.5 59.3 470 59 475.7 58.5C481.4 58 487.4 57.2 492.7 53.5C495.4 51.8 496.8 50 498 48.6C499.1 47.3 499.9 46.4 501.2 46.5C504 46.7 505.7 51.6 506.8 56.4C507.9 61.2 508.6 66 509.3 66C510.1 66 509.5 62.6 509.7 58.7C509.9 54.9 510.9 50.6 515 48.9C518.3 47.7 521.5 48.8 526.6 50.8C531.7 52.8 538.6 55.7 549.5 57.9C558.4 59.9 567.5 60.9 576.2 61.9C584.9 62.9 593.3 63.7 600.8 65.3C607.2 66.6 610.9 67.5 613.8 68.2C616.7 68.9 618.9 69.5 622.4 70.2H623.2H624C624.9 70.3 625.4 70.4 625.6 70.4C625.8 70.4 625.8 70.4 625.8 70.4C626.7 70.6 627.1 71.5 627.2 72.3C627.4 73.1 627.4 73.9 627.7 73.9C628 73.9 628.3 72.8 628.6 71.7C628.9 70.6 629.2 69.5 629.5 69.5C629.7 69.5 629.8 69.7 630 70.1C630.2 70.5 630.3 71.3 630.5 72.4C630.8 73.8 631 74.9 631.1 75.5C631.2 76.2 631.3 76.5 631.5 76.5C631.7 76.5 631.7 75.3 631.9 74.1C632.1 72.9 632.4 71.7 633 71.6C633.3 71.6 633.6 71.9 633.9 72.3C634.2 72.7 634.4 73.1 634.6 73.5C635.5 75.2 635.9 76.8 636.1 78C636.3 79.2 636.2 79.9 636.2 79.9C636.5 79.9 636.9 77.4 637.3 74.9C637.7 72.4 638.2 69.9 638.7 69.9C639.2 69.9 639.6 71.6 639.9 73.3C640.3 75 640.6 76.7 640.9 76.7C641.1 76.7 641.2 76.4 641.4 75.8C641.6 75.2 641.8 74.3 642.1 73C642.3 72.3 642.3 71.8 642.4 71.4C642.5 71.1 642.6 70.9 642.7 70.9C643 70.9 643.3 71.4 643.6 71.8C643.8 72.3 644 72.8 644 72.9C644.2 73.3 644.2 73.7 644.3 74C644.3 74.3 644.3 74.5 644.3 74.5C644.3 74.5 644.5 73.9 644.8 73.2C645.1 72.6 645.4 71.9 645.5 71.8C645.7 71.6 646 71.4 646.4 71.3C646.8 71.2 647.3 71.1 647.7 71.2C648.6 71.3 649 72.3 649.2 73.4C649.4 74.5 649.4 75.8 649.6 76.5C649.6 76 649.7 75.1 650 74.2C650.3 73.3 650.7 72.5 651.5 72.2C652 72.1 652.4 72.1 652.9 72.2C653.4 72.3 654 72.3 655 72.2C655.8 72.1 656.5 71.9 657.1 71.7C657.7 71.5 658.2 71.3 658.5 71.2C659.9 70.6 666.7 68.4 676.5 66.4C686.3 64.4 699.2 62.6 712.6 62.6C716 62.6 718.8 62.7 720.9 62.9C723 63.1 724.5 63.3 725.4 63.5C730.9 64.5 734.9 66.5 743.6 69.2C752.2 71.9 765.5 75.4 789.3 79.5C790.4 79.7 791.7 79.9 793.5 80.1C795.3 80.3 797.6 80.6 800.5 81C802.4 81.2 803.5 81.4 804.2 81.5C804.9 81.6 805.2 81.7 805.5 81.8C808 82.9 808.9 85 809.3 86.9C809.6 88.8 809.3 90.5 809.3 91.1C809.8 90.4 810.2 88.5 810.6 86.8C811 85.1 811.4 83.5 811.9 83.5C812.4 83.5 813 86.5 813.6 89.5C814.2 92.5 814.7 95.5 815 95.5C815.5 95.5 815.2 93.4 815.3 91.2C815.5 89 816.1 86.6 818.4 85.8C820.1 85.2 821.9 85.7 823.9 86.2C825.9 86.7 828 87.3 830.3 86.8C832.8 86.3 834.2 85 835.3 83.8C836.4 82.6 837.1 81.6 838.2 81.6C840.7 81.6 842.5 88 844 94.4C845.4 100.8 846.5 107.2 847.6 107.2C848.9 107.2 849.6 98.4 850.6 89.6C851.7 80.8 853.1 72 855.7 71.9C856 71.9 856.4 72 857.6 73.6C858.8 75.2 860.8 78.2 864.4 84C866.9 88 868.5 90.6 869.7 92.2C870.9 93.8 871.8 94.4 872.9 94.4C875.2 94.4 877 91.5 878.4 88.5C879.8 85.6 881 82.6 882.3 82.6C884 82.7 884.9 87.7 885.4 92.7C885.9 97.7 886.2 102.7 886.7 102.7C887.2 102.7 887.1 96.7 888 90.5C888.9 84.3 890.8 78 895.2 77.2C897.2 76.9 899 77.9 901.3 79C903.7 80.2 906.7 81.5 911.4 81.9C915.2 82.2 917.7 81.7 919.9 81.2C922 80.7 923.7 80.1 925.5 80.3C933.8 80.9 938.6 95 941.6 108.9C944.7 122.8 946 136.6 947.4 136.6C948.8 136.6 951.3 124.6 953.2 110.3C955.1 96 956.4 79.4 955.5 70.1C955.3 68.8 955.1 66.9 955.3 64.7C955.5 62.5 956.1 59.9 957.7 57C959.6 53.8 961.7 52.1 963.4 50.6C965.1 49.2 966.3 48 966.5 46.1C966.7 45.3 966.6 44.5 966.3 43.8C966 43.1 965.6 42.3 964.9 41.6C964.3 40.7 963.4 39.8 962.4 39C961.4 38.2 960.2 37.4 959 36.7C957.4 37.1 955.9 37.7 954.4 38.5C952.9 39.2 951.5 40.1 950.3 41C946.5 43.8 945.6 46.3 944.6 48.7C943.6 51.1 942.6 53.2 938.7 55.2C935.3 57 932.1 57.4 927.1 57.5C922.1 57.6 915.2 57.6 904.2 58.7C896.4 59.5 893 60.3 890.6 60.9C888.2 61.5 886.8 61.8 882.9 61.8C873.8 61.8 867.5 60 861.9 58.4C856.3 56.9 851.5 55.7 845.4 57C842.3 57.7 840.9 58.6 839.5 59.6C838.1 60.6 836.8 61.7 833.8 63C826.9 65.6 819.2 65.6 810.6 64.3C802 63 792.5 60.5 782.2 58.1C767.2 54.4 755.9 51.6 747 49.7C738.1 47.7 731.5 46.6 725.9 46.2C709.6 44.9 700.4 46.9 690.3 49.3C680.2 51.7 669.3 54.4 649.5 54.4C644.3 54.4 637.4 53.7 627.4 52.4C617.4 51.1 604.3 49.1 586.9 46.4C560.5 42.4 547.5 40 539.4 38.6C531.3 37.2 528.2 36.9 521.5 37C506.5 37.4 498.3 39.8 489.1 42.4C479.9 45 469.5 47.9 450.1 49.3C439.5 50 435 49.7 429.2 49.2C423.4 48.8 416.3 48.3 400.3 48.8C378.1 49.5 366.7 51.3 356.9 52.6C347.1 54 339 55 323.3 54.3C314.1 53.9 307.3 53.1 301 52.8C294.7 52.5 288.8 52.7 281.3 54.3C275.5 55.5 271.8 56.9 267.8 58.2C263.8 59.5 259.5 60.8 252.5 61.9C251.1 62.1 247.3 62.7 241.7 63C236.2 63.4 229 63.5 220.8 62.9C210 62 204.2 60.1 198.6 58.2C193 56.3 187.6 54.3 177.6 53C167.6 51.8 162.9 52.5 157.6 53.3C152.4 54.1 146.6 54.9 134.4 53.9C124.4 53.2 118 51.8 111.8 50.8C105.5 49.7 99.4 48.9 89.7 49.2C85 49.3 82.1 49.6 79.4 49.8C76.7 50 74.2 50.1 70.3 49.8C62.9 49 58.5 47.3 54.5 46C50.5 44.6 47 43.5 41.5 43.7C36.5 43.9 33.8 45.1 31.1 46.3C28.4 47.5 25.9001 48.7 21.2001 48.9C16.7001 49.1 12.7 48.4 9.30005 47.3C5.90005 46.5 3.00005 45 0.500049 43.8Z" fill="#D29B58"/>
<path d="M0.5 48.3C1.1 50.4 2.4 52.5 4.1 54.3C5.8 56.2 8 57.8 10.5 58.9C15.5 61.2 20.2 60.7 26.1 60C32 59.3 39 58.2 48.7 59.1C57.5 59.9 63.6 63.1 68.8 65.7C74 68.3 78.4 70.5 83.7 69.4C86.4 68.8 88 67.8 89.3 67C90.6 66.2 91.6 65.7 93.1 65.9C95.8 66.3 97.4 69.1 98.5 72.6C99.6 76.1 100 80.3 100.3 83.5C100.3 80.7 100.5 77.3 101.6 74.4C102.6 71.5 104.4 69.1 107.5 68.3C107.8 68.2 107.9 68.2 108.7 68.1C109.5 68 111.1 67.9 114.4 67.6C118 67.2 120.2 66.9 122 66.7C123.8 66.5 125.2 66.3 127.2 66.1C129.2 66 131 65.9 132.7 65.9C134.4 65.9 135.9 65.9 137.5 65.9C149.1 66 160.3 67 168.6 68C176.9 69 182.3 70 182.3 70C191.1 71.4 196.5 72.8 200.9 74.1C205.2 75.4 208.5 76.5 212.7 77.4C214.7 77.8 216.5 78.2 218.2 78.4C219.9 78.7 221.6 78.8 223.7 78.8C224.5 78.8 225.5 78.8 226.6 78.7C227.7 78.6 229 78.5 230.2 78.2C231.8 77.8 232.7 77.3 233.4 76.9C234.1 76.5 234.5 76.2 234.9 76.2C236.2 76.5 236.6 78.4 236.9 80.1C237.1 81.9 237.1 83.6 237.4 83.6C237.6 83.6 237.6 82 237.9 80.4C238.1 78.8 238.5 77.2 239.3 77.2C239.6 77.2 239.9 77.5 240.2 77.9C240.5 78.3 240.8 78.9 241.1 79.5C241.9 80.8 242.4 82.1 242.8 83.1C243.2 84.1 243.3 84.9 243.3 85.2C243.6 87.2 243.8 88.9 244 90.2C244.2 91.5 244.2 92.2 244.2 92.2L244.5 88.2L244.8 84.2C245 83.2 245 82.2 245.3 81.4C245.5 80.6 245.9 80.1 246.7 79.9C247 79.9 247.3 80 247.6 80C247.9 80 248.1 80.1 248.3 80.1C250.3 80.9 251.1 82.6 251.5 84.1C251.9 85.6 251.8 86.9 252.1 86.9C252.4 86.9 252.7 84.9 253.2 82.9C253.7 80.9 254.3 78.9 255.2 78.9C255.5 78.9 255.9 79.3 256.3 79.8C256.7 80.3 257 81 257.1 81.5C258.2 84 258.5 86.2 258.6 87.8C258.7 89.4 258.5 90.4 258.7 90.4C259.2 90.4 259.2 88.4 260 85.9C260.8 83.4 262.5 80.2 266.2 77.9C267.6 77 269.1 76.4 270.7 75.6C272.3 74.8 274.1 73.8 276.2 72.2C277.5 71.2 278.2 70.4 278.7 69.9C279.2 69.4 279.5 69.1 280 69.1C282.3 69.2 284.3 77 285.8 84.8C287.3 92.6 288.3 100.3 288.8 100.3C289.3 100.3 289.2 94.2 290.1 87.8C291 81.4 293 74.8 297.5 73.8C298 73.7 298.7 73.6 299.9 73.4C301.2 73.2 303 73 305.6 72.6C305.9 72.5 306.8 72.3 307.9 72.1C309.1 71.9 310.6 71.6 312.1 71.3C314.1 70.9 315.9 70.5 317.2 70.2C318.5 69.9 319.5 69.7 319.9 69.6C319.9 69.6 321.5 69.3 324.5 68.7C327.5 68.1 332 67.2 337.8 66.1C347 64.5 358.1 63.4 369.8 62.8C381.5 62.2 393.9 61.9 405.8 61.8C412.7 61.8 417.6 62 420.8 62.2C424 62.4 425.5 62.6 425.5 62.6C426.9 62.7 428.2 62.8 429.6 62.8C431 62.8 432.5 62.8 434.2 62.8C438.4 62.9 440.7 62.8 442.1 62.7C443.5 62.6 444.1 62.6 444.8 62.8C449 63.8 450.7 68.3 451.4 72.6C452.1 76.9 452 80.9 452.6 80.9C453.2 80.9 452.6 77.8 453.1 73.8C453.6 69.9 455.1 65.2 460.1 62C464.5 59.2 470 58.9 475.7 58.4C481.4 57.9 487.4 57.1 492.7 53.4C495.4 51.7 496.8 49.9 498 48.5C499.1 47.2 499.9 46.3 501.2 46.4C504 46.6 505.7 51.5 506.8 56.3C507.9 61.1 508.6 65.9 509.3 65.9C510.1 65.9 509.5 62.5 509.7 58.6C509.9 54.8 510.9 50.5 515 48.8C518.3 47.6 521.5 48.7 526.6 50.7C531.7 52.7 538.6 55.6 549.5 57.8C558.4 59.8 567.5 60.8 576.2 61.8C584.9 62.8 593.3 63.6 600.8 65.2C607.2 66.5 610.9 67.4 613.8 68.1C616.7 68.8 618.9 69.4 622.4 70.1H623.2H624C624.9 70.2 625.4 70.3 625.6 70.3C625.8 70.3 625.8 70.3 625.8 70.3C626.7 70.5 627.1 71.4 627.2 72.2C627.4 73 627.4 73.8 627.7 73.8C628 73.8 628.3 72.7 628.6 71.6C628.9 70.5 629.2 69.4 629.5 69.4C629.7 69.4 629.8 69.6 630 70C630.2 70.4 630.3 71.2 630.5 72.3C630.8 73.7 631 74.8 631.1 75.4C631.2 76.1 631.3 76.4 631.5 76.4C631.7 76.4 631.7 75.2 631.9 74C632.1 72.8 632.4 71.6 633 71.5C633.3 71.5 633.6 71.8 633.9 72.2C634.2 72.6 634.4 73 634.6 73.4C635.5 75.1 635.9 76.7 636.1 77.9C636.3 79.1 636.2 79.8 636.2 79.8C636.5 79.8 636.9 77.3 637.3 74.8C637.7 72.3 638.2 69.8 638.7 69.8C639.2 69.8 639.6 71.5 639.9 73.2C640.3 74.9 640.6 76.6 640.9 76.6C641.1 76.6 641.2 76.3 641.4 75.7C641.6 75.1 641.8 74.2 642.1 72.9C642.3 72.2 642.3 71.7 642.4 71.3C642.5 71 642.6 70.8 642.7 70.8C643 70.8 643.3 71.3 643.6 71.7C643.8 72.2 644 72.7 644 72.8C644.2 73.2 644.2 73.6 644.3 73.9C644.3 74.2 644.3 74.4 644.3 74.4C644.3 74.4 644.5 73.8 644.8 73.1C645.1 72.5 645.4 71.8 645.5 71.7C645.7 71.5 646 71.3 646.4 71.2C646.8 71.1 647.3 71 647.7 71.1C648.6 71.2 649 72.2 649.2 73.3C649.4 74.4 649.4 75.7 649.6 76.4C649.6 75.9 649.7 75 650 74.1C650.3 73.2 650.7 72.4 651.5 72.1C652 72 652.4 72 652.9 72.1C653.4 72.2 654 72.2 655 72.1C655.8 72 656.5 71.8 657.1 71.6C657.7 71.4 658.2 71.2 658.5 71.1C659.9 70.5 666.7 68.3 676.5 66.3C686.3 64.3 699.2 62.5 712.6 62.5C716 62.5 718.8 62.6 720.9 62.8C723 63 724.5 63.2 725.4 63.4C730.9 64.4 734.9 66.4 743.6 69.1C752.2 71.8 765.5 75.3 789.3 79.4C790.4 79.6 791.7 79.8 793.5 80C795.3 80.2 797.6 80.5 800.5 80.9C802.4 81.1 803.5 81.3 804.2 81.4C804.9 81.5 805.2 81.6 805.5 81.7C808 82.8 808.9 84.9 809.3 86.8C809.6 88.7 809.3 90.4 809.3 91C809.8 90.3 810.2 88.4 810.6 86.7C811 85 811.4 83.4 811.9 83.4C812.4 83.4 813 86.4 813.6 89.4C814.2 92.4 814.7 95.4 815 95.4C815.5 95.4 815.2 93.3 815.3 91.1C815.5 88.9 816.1 86.5 818.4 85.7C820.1 85.1 821.9 85.6 823.9 86.1C825.9 86.6 828 87.2 830.3 86.7C832.8 86.2 834.2 84.9 835.3 83.7C836.4 82.5 837.1 81.5 838.2 81.5C840.7 81.5 842.5 87.9 844 94.3C845.4 100.7 846.5 107.1 847.6 107.1C848.9 107.1 849.6 98.3 850.6 89.5C851.7 80.7 853.1 71.9 855.7 71.8C856 71.8 856.4 71.9 857.6 73.5C858.8 75.1 860.8 78.1 864.4 83.9C866.9 87.9 868.5 90.5 869.7 92.1C870.9 93.7 871.8 94.3 872.9 94.3C875.2 94.3 877 91.4 878.4 88.4C879.8 85.5 881 82.5 882.3 82.5C884 82.6 884.9 87.6 885.4 92.6C885.9 97.6 886.2 102.6 886.7 102.6C887.2 102.6 887.1 96.6 888 90.4C888.9 84.2 890.8 77.9 895.2 77.1C897.2 76.8 899 77.8 901.3 78.9C903.7 80.1 906.7 81.4 911.4 81.8C915.2 82.1 917.7 81.6 919.9 81.1C922 80.6 923.7 80 925.5 80.2C933.8 80.8 938.6 94.9 941.6 108.8C944.7 122.7 946 136.5 947.4 136.5C948.8 136.5 951.3 124.5 953.2 110.2C955.1 95.9 956.4 79.3 955.5 70C955.3 68.7 955.1 66.8 955.3 64.6C955.5 62.4 956.1 59.8 957.7 56.9C959.6 53.7 961.7 52 963.4 50.5C965.1 49.1 966.3 47.9 966.5 46C966.7 45.2 966.6 44.4 966.3 43.7C966 43 965.6 42.2 964.9 41.5C963 42.1 961.3 42.8 959.7 43.6C958.1 44.4 956.7 45.3 955.5 46.2C951.9 49 951 51.6 949.9 54.3C948.8 56.9 947.7 59.6 943.6 62.2C940 64.4 935.8 65.6 931.7 66.3C927.6 67 923.6 67.3 920.5 67.5C914.2 67.9 910.2 67.4 906.2 67C902.1 66.6 898 66.3 891.4 67.1C887 67.6 884.9 68.2 883.2 68.7C881.5 69.2 880.1 69.5 877.3 69.4C871.5 69.2 868.1 67.4 864.8 65.7C861.5 64 858.5 62.3 853.5 62.2C849.4 62 847 63 844.1 64.4C841.2 65.8 837.8 67.6 831.9 68.9C830.8 69.1 828.5 69.6 823.9 69.7C819.4 69.8 812.6 69.6 802.8 68.5C795.1 67.6 789.3 66.5 783.4 65.2C777.5 63.9 771.5 62.4 763.7 60.7C752.4 58.1 743.9 56.2 737.1 54.8C730.3 53.4 725.1 52.7 720.6 52.5C710.9 51.9 705.6 52.7 698.4 53.9C691.2 55.2 682.1 57 664.9 58.4C654.7 59.2 646.5 59.9 638.8 60.1C631.1 60.3 624 60.1 616 59.2C606.8 58.2 602.5 56.9 596.7 55.1C590.9 53.3 583.6 50.9 568.5 47.7C557.5 45.4 548.2 44 540.4 43.1C532.6 42.1 526.2 41.7 521.2 41.4C513.5 41 507.6 40.7 502.3 40.8C497 40.9 492.3 41.5 487.1 42.8C480.2 44.5 476.5 46.5 473 48.5C469.5 50.5 466.1 52.5 459.9 54.2C454 55.7 448.9 56 443 55.8C437.1 55.6 430.3 54.8 420.7 54.2C410.1 53.4 400 52.7 390 52.4C380 52.1 370.2 52.4 360 53.6C344.2 55.6 334.9 58.9 326.9 61.3C319 63.7 312.4 65.3 302.1 63.6C297.9 63 293.9 62 289.7 61.3C285.5 60.7 281 60.4 275.8 61.3C271.6 62.1 269.3 63.2 267 64.4C264.7 65.6 262.2 66.8 257.7 67.9C254.9 68.4 252.4 68.7 248.2 68.7C244 68.7 238 68.5 228.3 67.9C219.5 67.3 213 66.8 208.2 66.4C203.4 66 200.3 65.7 198.2 65.4C186.9 63.8 181.5 61.8 177 60.1C172.4 58.4 168.7 57 160.7 56.4C151.8 55.7 146.8 56.7 141.6 57.7C136.3 58.7 130.7 59.6 120.4 58.7C114.5 58.2 111.2 57.5 107.8 56.8C104.4 56.1 100.7 55.4 93.8 55C87.1 54.7 83.2 54.9 79.7 55.1C76.2 55.3 73.2 55.3 68.2 54.6C61.8 53.7 58.5 52.3 55.6 51.2C52.7 50 50.1 49 45.1 48.7C39.2 48.3 35.4 49.3 31.8 50.4C28.2 51.5 24.8 52.7 19.4 52.8C15.5 52.8 12 52.2 9 51.2C5.5 50.9 2.9 49.7 0.5 48.3Z" fill="#BF8C4B"/>
</svg>
