<svg width="448" height="129" viewBox="0 0 448 129" fill="none" xmlns="http://www.w3.org/2000/svg">
<path d="M424 5H428.5V0.5H424V5ZM400 105C400 118.255 410.745 129 424 129C437.255 129 448 118.255 448 105C448 91.7452 437.255 81 424 81C410.745 81 400 91.7452 400 105ZM0 9.5H5.04762V0.5H0V9.5ZM15.1429 9.5H25.2381V0.5H15.1429V9.5ZM35.3333 9.5H45.4286V0.5H35.3333V9.5ZM55.5238 9.5H65.6191V0.5H55.5238V9.5ZM75.7143 9.5H85.8095V0.5H75.7143V9.5ZM95.9048 9.5H106V0.5H95.9048V9.5ZM116.095 9.5H126.19V0.5H116.095V9.5ZM136.286 9.5H146.381V0.5H136.286V9.5ZM156.476 9.5H166.571V0.5H156.476V9.5ZM176.667 9.5H186.762V0.5H176.667V9.5ZM196.857 9.5H206.952V0.5H196.857V9.5ZM217.048 9.5H227.143V0.5H217.048V9.5ZM237.238 9.5H247.333V0.5H237.238V9.5ZM257.429 9.5H267.524V0.5H257.429V9.5ZM277.619 9.5H287.714V0.5H277.619V9.5ZM297.81 9.5H307.905V0.5H297.81V9.5ZM318 9.5H328.095V0.5H318V9.5ZM338.191 9.5H348.286V0.5H338.191V9.5ZM358.381 9.5H368.476V0.5H358.381V9.5ZM378.572 9.5H388.667V0.5H378.572V9.5ZM398.762 9.5H408.857V0.5H398.762V9.5ZM418.953 9.5H424V0.5H418.953V9.5ZM419.5 5V10H428.5V5H419.5ZM419.5 20V30H428.5V20H419.5ZM419.5 40V50H428.5V40H419.5ZM419.5 60V70H428.5V60H419.5ZM419.5 80V90H428.5V80H419.5ZM419.5 100V105H428.5V100H419.5Z" fill="black"/>
</svg>
