<svg width="452" height="127" viewBox="0 0 452 127" fill="none" xmlns="http://www.w3.org/2000/svg">
<path d="M24 5V0.5H19.5V5H24ZM0 103C0 116.255 10.7452 127 24 127C37.2548 127 48 116.255 48 103C48 89.7452 37.2548 79 24 79C10.7452 79 0 89.7452 0 103ZM28.5 103V98.1H19.5V103H28.5ZM28.5 88.3V78.5H19.5V88.3H28.5ZM28.5 68.7V58.9H19.5V68.7H28.5ZM28.5 49.1V39.3H19.5V49.1H28.5ZM28.5 29.5V19.7H19.5V29.5H28.5ZM28.5 9.9V5H19.5V9.9H28.5ZM24 9.5H29.0952V0.5H24V9.5ZM39.2857 9.5H49.4762V0.5H39.2857V9.5ZM59.6667 9.5H69.8571V0.5H59.6667V9.5ZM80.0476 9.5H90.2381V0.5H80.0476V9.5ZM100.429 9.5H110.619V0.5H100.429V9.5ZM120.81 9.5H131V0.5H120.81V9.5ZM141.19 9.5H151.381V0.5H141.19V9.5ZM161.571 9.5H171.762V0.5H161.571V9.5ZM181.952 9.5H192.143V0.5H181.952V9.5ZM202.333 9.5H212.524V0.5H202.333V9.5ZM222.714 9.5H232.905V0.5H222.714V9.5ZM243.095 9.5H253.286V0.5H243.095V9.5ZM263.476 9.5H273.667V0.5H263.476V9.5ZM283.857 9.5H294.048V0.5H283.857V9.5ZM304.238 9.5H314.429V0.5H304.238V9.5ZM324.619 9.5H334.81V0.5H324.619V9.5ZM345 9.5H355.191V0.5H345V9.5ZM365.381 9.5H375.572V0.5H365.381V9.5ZM385.762 9.5H395.953V0.5H385.762V9.5ZM406.143 9.5H416.334V0.5H406.143V9.5ZM426.524 9.5H436.714V0.5H426.524V9.5ZM446.905 9.5H452V0.5H446.905V9.5Z" fill="black"/>
</svg>
