<svg width="622" height="283" viewBox="0 0 622 283" fill="none" xmlns="http://www.w3.org/2000/svg">
<g clip-path="url(#clip0_412_17)">
<path d="M168.535 224.214C167.772 226.67 167.541 228.824 166.503 230.491C163.157 235.854 159.563 241.049 155.968 246.253C155.374 247.104 154.38 247.725 153.474 248.31C145.425 253.576 128.82 253.363 120.921 247.893C115.241 243.957 113.022 238.248 112.863 231.617C112.747 226.803 112.836 221.98 112.499 216.962C110.458 220.251 107.786 223.079 105.958 226.422C98.5651 239.994 86.5839 247.282 72.1888 251.262C69.828 251.909 68.6477 252.459 68.2039 255.411C67.3076 261.475 65.6302 267.521 59.7106 271.058C58.7876 271.608 58.7433 272.734 58.3616 273.62C56.8884 277.016 55.1134 280.172 51.6611 281.972C47.623 284.073 43.0524 282.885 40.2124 278.984C37.8783 275.775 36.9109 272.042 36.8222 268.168C36.7245 263.647 36.8399 259.108 37.1062 254.587C37.2127 252.814 36.7157 252.202 35.0383 251.838C28.6483 250.447 22.5158 248.257 16.8624 244.923C7.70348 239.524 1.61528 231.883 0.23966 221.12C-0.754333 213.363 1.26028 206.288 5.9995 200.029C6.59412 199.249 7.36623 198.531 7.71236 197.645C10.9073 189.577 16.2057 183.788 25.0451 181.785C24.4327 180.348 23.2346 179.985 22.3205 179.347C5.41375 167.423 -0.177462 150.898 6.09712 131.226C7.49936 126.82 7.89873 122.165 9.62934 117.83C16.0282 101.749 28.5951 92.9542 44.6232 88.2999C50.5073 86.5889 50.4629 86.6864 50.5517 80.5693C50.6404 74.3991 51.4126 68.3441 54.0928 62.6703C54.9803 60.7908 56.1251 59.0887 57.625 57.6259C63.4913 51.9344 71.532 53.0425 75.366 60.2146C77.3629 63.938 78.3214 68.0249 78.4722 72.2537C78.6231 76.3761 78.7385 80.5162 78.5965 84.6385C78.5344 86.5357 79.1822 87.2095 80.9128 87.5729C87.995 89.0623 94.8021 91.3939 100.944 95.2858C110.928 101.616 117.096 110.437 116.75 122.555C116.519 130.57 114.114 138.283 110.28 145.348C106.987 151.412 101.716 155.286 94.1543 157.077C103.003 162.299 109.916 168.611 113.883 177.866C114.22 171.971 114.478 166.075 114.922 160.189C115.898 147.245 115.951 134.213 118.463 121.403C119.146 117.928 119.865 114.461 120.477 110.969C122.652 98.4862 129.707 90.1616 141.999 86.9524C159.509 82.3867 177.117 81.6509 194.343 88.2024C212.209 95.0021 223.364 107.981 228.175 126.421C228.397 127.281 228.601 128.141 228.814 129.001C228.84 129.089 228.902 129.178 229.018 129.382C230.145 128.832 230.109 127.653 230.447 126.74C233.828 117.511 238.31 108.912 244.753 101.421C265.112 77.759 300.106 77.7236 320.518 101.332C323.35 104.612 325.746 108.211 328.107 111.891C329.322 111.421 329.66 110.321 330.263 109.506C350.267 82.1828 385.909 80.0729 408.939 104.878C409.871 105.889 410.43 106.775 411.815 105.171C422.341 92.9719 436.23 87.5729 451.841 86.0215C461.026 85.1084 470.177 85.8265 479.105 88.3354C489.213 91.1723 498.621 95.2592 505.481 103.965C505.898 103.353 506.209 102.981 506.413 102.564C510.016 95.339 516.06 91.3318 523.719 89.4613C531.698 87.5109 539.836 86.6421 548.019 86.2343C565.467 85.3655 582.924 85.0286 600.212 88.2467C619.879 91.9081 627.929 110.641 617.208 127.609C616.427 128.85 615.805 130.206 615.184 131.536C611.936 138.54 606.815 143.114 598.899 144.089C596.644 144.364 594.399 144.896 592.154 144.887C589.376 144.869 588.55 145.845 588.515 148.673C588.258 168.957 588.488 189.232 589.092 209.507C589.234 214.232 589.314 218.957 588.63 223.656C588.036 227.796 586.9 231.741 584.406 235.18C583.643 236.235 583.146 237.388 582.791 238.629C580.332 247.202 574.564 252.087 565.857 253.487C559.955 254.445 554.045 254.223 548.267 252.557C540.643 250.358 535.745 245.402 533.464 237.822C531.706 231.989 531.591 225.978 531.476 219.976C531.05 198.017 531.822 176.075 532.053 154.125C532.124 147.015 531.733 146.492 524.58 145.791C518.367 145.189 512.146 144.79 507.229 140.171C505.73 138.761 505.481 140.446 505.099 141.314C502.543 147.112 498.692 151.687 492.834 154.355C491.343 155.038 489.737 155.481 487.767 156.182C488.974 156.988 489.87 157.68 490.837 158.238C514.631 171.9 515.554 202.299 505.916 218.638C504.416 221.173 503.085 223.815 501.789 226.466C497.245 235.686 490.074 242.335 480.942 246.652C458.666 257.193 436.327 256.652 414.14 246.2C411.549 244.977 409.135 243.399 407.022 241.457C405.682 240.225 404.777 240.021 403.41 241.51C387.711 258.656 355.867 260.154 337.097 249.675C330.396 245.934 325.293 240.517 321.095 234.214C319.888 232.397 319.214 231.821 317.59 233.895C299.13 257.432 262.388 255.571 245.587 244.267C240.866 241.094 236.934 237.104 233.615 232.539C232.461 230.952 232.018 231.023 230.74 232.574C228.255 235.597 226.027 238.638 224.376 242.273C222.512 246.368 218.687 248.736 214.445 250.172C207.469 252.539 200.325 252.929 193.145 251.36C185.859 249.764 180.694 245.181 176.904 238.993C174.588 235.216 172.547 231.28 170.372 227.414C169.849 226.492 169.316 225.579 168.526 224.205L168.535 224.214ZM124.107 187.84C124.125 198.859 124.391 209.879 124.986 220.881C125.438 229.196 129.565 233.886 137.766 235.482C142.753 236.448 147.777 236.298 152.747 235.287C158.24 234.17 161.648 230.952 162.633 225.322C163.263 221.723 163.468 218.097 163.654 214.462C163.814 211.129 163.814 207.751 164.746 204.515C166.077 199.897 169.724 198.93 173.23 202.272C175.094 204.045 176.505 206.2 177.836 208.389C181.049 213.691 184.359 218.939 187.394 224.338C195.417 238.602 211.898 237.796 221.936 233.469C226.471 231.51 228.468 227.672 228.086 222.707C227.793 218.904 226.373 215.455 224.598 212.14C221.581 206.492 217.969 201.2 214.507 195.827C212.058 192.024 209.546 188.256 207.727 184.09C206.254 180.721 206.538 177.529 208.827 174.657C210.487 172.582 212.289 170.623 214.072 168.655C218.386 163.912 221.581 158.558 223.24 152.343C228.938 131.057 218.75 106.633 199.296 96.2698C180.303 86.1545 160.388 87.0322 140.464 93.0694C132.716 95.4099 128.207 101.323 126.308 109.169C125.217 113.69 124.657 118.282 124.64 122.91C124.578 138.841 124.107 182.13 124.116 187.831L124.107 187.84ZM48.3063 244.923C47.9602 249.941 48.9719 255.296 50.1346 260.606C50.8002 263.612 52.2468 266.732 55.6104 267.113C58.8853 267.486 60.252 264.383 61.6986 261.945C61.8938 261.608 62.1069 261.253 62.1956 260.881C63.3316 256.404 65.151 252.033 64.7161 247.29C64.4587 244.418 65.4616 241.67 65.3196 238.833C65.2575 237.565 66.1183 237.76 66.8904 237.725C74.2744 237.379 81.2678 235.446 87.9329 232.37C100.784 226.448 109.126 216.909 111.23 202.6C113.093 189.923 110.094 172.449 93.8525 162.928C89.5215 160.393 85.1018 158.008 80.6821 155.632C75.0376 152.609 69.3399 149.692 64.228 145.783C62.3376 144.338 60.5271 142.822 59.4799 140.623C57.3144 136.057 59.826 131.908 64.8581 131.722C67.7336 131.616 70.2274 132.715 72.6236 134.187C77.6557 137.29 82.7233 140.33 88.563 141.758C98.219 144.116 106.34 139.967 110.04 130.774C114.54 119.586 110.04 107.148 98.7426 99.9489C91.829 95.5429 84.1522 93.0872 76.0849 91.9081C73.6975 91.5623 72.9432 90.7822 72.9698 88.2644C73.023 82.4311 74.1146 76.6331 73.1473 70.7554C72.6503 67.7501 72.1 64.8334 70.538 62.2447C68.4613 58.8139 64.8315 58.344 61.8229 60.9947C58.7433 63.7075 57.3055 67.3068 56.6221 71.2253C55.5394 77.4044 55.1667 83.6899 53.7733 89.8336C53.4005 91.5003 52.7882 91.7485 51.3948 92.0056C41.8454 93.7964 33.1657 97.4755 25.622 103.761C9.0436 117.564 5.0055 147.689 27.4325 163.664C30.9647 166.182 34.6389 168.469 38.4019 170.614C45.4131 174.621 52.6195 178.292 59.0272 183.274C60.749 184.604 62.4441 185.96 63.5002 187.919C64.6983 190.136 65.0178 192.423 63.7043 194.675C62.3376 197.024 60.0035 197.467 57.5451 197.352C55.0246 197.237 52.797 196.235 50.6582 194.923C45.6261 191.829 40.5763 188.771 34.7365 187.326C24.7522 184.861 16.3477 189.32 12.8598 198.983C8.8661 210.056 13.4012 221.98 24.3529 229.046C29.7133 232.503 35.624 234.631 41.801 236.094C43.9842 236.608 47.0283 236.484 48.0845 237.876C49.1761 239.303 48.3241 242.211 48.3241 244.941L48.3063 244.923ZM458.257 90.7822C444.803 91.0747 431.571 94.3815 420.37 103.779C403.455 117.981 400.961 146.465 419.607 161.643C423.752 165.011 428.251 167.831 432.875 170.473C439.966 174.533 447.27 178.247 453.758 183.274C455.48 184.604 457.175 185.96 458.231 187.919C459.429 190.136 459.748 192.423 458.435 194.675C457.059 197.024 454.734 197.467 452.276 197.352C449.755 197.228 447.528 196.235 445.389 194.923C440.605 191.998 435.83 189.028 430.319 187.565C417.823 184.232 407.44 191.501 406.366 204.444C405.372 216.51 411.132 225.163 421.409 230.322C442.487 240.899 464.115 241.475 485.406 230.952C499.26 224.108 506.235 212.299 506.422 196.9C506.599 181.944 500.91 169.896 487.474 162.237C482.859 159.604 478.164 157.104 473.478 154.595C468.002 151.678 462.517 148.753 457.716 144.772C453.651 141.412 452.391 137.325 454.388 134.267C456.278 131.368 460.92 130.827 465.437 133.141C467.887 134.4 470.185 135.942 472.59 137.29C477.081 139.816 481.741 141.873 486.977 142.334C498.931 143.38 508.303 132.165 505.108 120.676C504.585 118.788 503.919 116.793 504.052 114.905C504.327 111.075 502.499 108.327 500.209 105.694C496.792 101.749 492.524 98.956 487.784 96.8638C478.643 92.8123 469.04 90.9418 458.257 90.7911V90.7822ZM371.398 240.163C385.545 240.198 397.189 235.899 405.505 227.805C407.102 226.244 407.431 225.269 406.073 223.257C401.653 216.705 400.1 209.462 401.547 201.599C403.437 191.306 411.087 183.212 420.486 181.731C423.326 181.282 424.823 179.619 424.976 176.74C425.003 176.253 424.932 175.739 425.047 175.269C425.669 172.795 424.604 171.395 422.509 170.056C415.001 165.251 408.629 159.284 405.079 150.907C399.683 138.167 400.437 125.579 406.481 113.247C407.076 112.041 407.564 111.172 406.463 109.878C395.334 96.7486 381.347 90.8265 364.201 93.4861C350.498 95.6138 340.017 103.203 333.041 114.869C315.167 144.754 312.904 176.368 325.204 208.655C333.414 230.216 348.963 240.101 371.407 240.163H371.398ZM282.72 236.235C284.495 236.147 286.27 236.12 288.036 235.969C300.488 234.888 311.315 230.562 319.64 220.765C322.045 217.929 323.376 215.508 320.918 212.104C320.075 210.943 319.684 209.436 319.205 208.044C308.937 178.035 310.605 148.664 324.024 119.967C324.876 118.149 324.965 116.82 323.918 115.144C322.036 112.139 320.199 109.107 317.936 106.367C306.745 92.8212 292.5 86.7485 275.008 89.6208C260.266 92.0411 249.563 100.756 242.588 113.495C226.275 143.309 224.287 174.426 236.854 205.952C244.939 226.235 260.586 236.475 282.729 236.244L282.72 236.235ZM541.895 178.806H541.584C541.584 183.921 541.442 189.045 541.62 194.152C541.922 203.097 541.371 212.069 542.569 220.969C543.892 230.845 548.409 235.907 557.444 237.556C561.73 238.337 566.07 238.434 570.392 237.689C576.995 236.555 581.202 232.858 582.826 226.289C583.953 221.75 584.024 217.131 583.944 212.503C583.714 199.817 583.376 187.13 583.243 174.435C583.128 163.513 583.012 152.591 583.643 141.678C583.998 135.623 586.616 132.813 592.659 131.944C594.612 131.66 596.582 131.545 598.535 131.27C602.324 130.747 606.291 130.738 609.46 128.167C615.672 123.123 617.412 116.35 616.267 108.814C615.211 101.846 611.217 96.9968 604.401 94.6741C601.126 93.557 597.736 92.9542 594.319 92.4932C578.326 90.3478 562.272 90.401 546.217 91.5357C538.07 92.112 529.869 92.7237 522.068 95.4188C509.102 99.8957 504.931 116.43 514.081 126.704C516.397 129.302 519.211 130.96 522.69 131.412C526.302 131.882 529.949 132.165 533.526 132.813C539.383 133.877 541.868 136.882 541.895 142.777C541.939 154.781 541.913 166.785 541.913 178.788L541.895 178.806ZM219.504 193.345C218.945 187.139 219.14 180.987 219.273 174.285C217.108 176.918 215.386 179.036 213.629 181.12C212.999 181.864 212.706 182.556 213.185 183.505C214.951 186.971 217.019 190.233 219.504 193.336V193.345Z" fill="#343230"/>
<path d="M124.631 122.919C124.649 118.291 125.208 113.699 126.299 109.178C128.198 101.323 132.707 95.4188 140.455 93.0783C160.379 87.0499 180.303 86.1634 199.287 96.2787C218.749 106.642 228.938 131.066 223.231 152.352C221.572 158.566 218.377 163.921 214.063 168.664C212.28 170.632 210.469 172.591 208.818 174.666C206.52 177.538 206.236 180.73 207.718 184.099C209.546 188.265 212.049 192.033 214.498 195.836C217.96 201.209 221.563 206.501 224.589 212.148C226.364 215.464 227.775 218.913 228.077 222.716C228.468 227.68 226.471 231.519 221.927 233.478C211.898 237.805 195.417 238.611 187.385 224.347C184.35 218.948 181.04 213.7 177.827 208.398C176.496 206.209 175.085 204.054 173.221 202.281C169.724 198.939 166.068 199.905 164.737 204.524C163.805 207.76 163.814 211.138 163.645 214.471C163.467 218.106 163.263 221.732 162.624 225.331C161.639 230.961 158.231 234.179 152.738 235.296C147.768 236.306 142.745 236.457 137.757 235.491C129.556 233.895 125.421 229.205 124.977 220.89C124.382 209.888 124.107 198.868 124.098 187.849C124.098 182.139 124.098 176.439 124.098 170.73C124.267 170.73 124.56 138.859 124.622 122.928L124.631 122.919ZM164.124 139.737C164.275 142.263 164.231 144.94 164.648 147.547C165.216 151.075 167.656 152.724 171.215 152.441C174.064 152.21 176.221 150.783 177.88 148.54C181.519 143.62 181.324 134.701 177.499 129.94C176.363 128.522 174.961 127.467 173.248 126.864C168.748 125.268 165.349 127.219 164.648 131.962C164.275 134.479 164.293 137.05 164.124 139.737Z" fill="#FDFDFD"/>
<path d="M48.2974 244.923C48.2974 242.193 49.1494 239.285 48.0578 237.858C47.0017 236.475 43.9487 236.599 41.7743 236.076C35.5974 234.613 29.6867 232.485 24.3262 229.028C13.3745 221.971 8.83944 210.038 12.8332 198.966C16.321 189.302 24.7256 184.843 34.7099 187.308C40.5496 188.744 45.5994 191.811 50.6315 194.905C52.7704 196.217 54.998 197.21 57.5185 197.334C59.9768 197.45 62.3109 197.006 63.6777 194.657C64.9912 192.405 64.6717 190.118 63.4736 187.902C62.4174 185.943 60.7135 184.595 59.0006 183.256C52.5929 178.283 45.3864 174.604 38.3752 170.597C34.6123 168.442 30.938 166.164 27.4058 163.646C4.98772 147.662 9.01694 117.547 25.5953 103.743C33.1301 97.4667 41.8098 93.7787 51.3681 91.9879C52.7615 91.7308 53.365 91.4826 53.7466 89.8159C55.14 83.6634 55.5127 77.3867 56.5955 71.2076C57.2789 67.2891 58.7166 63.6898 61.7962 60.977C64.8048 58.3263 68.4435 58.7962 70.5114 62.227C72.0734 64.8157 72.6236 67.7324 73.1206 70.7377C74.0969 76.6154 72.9964 82.4134 72.9431 88.2467C72.9254 90.7645 73.6709 91.5446 76.0582 91.8904C84.1255 93.0695 91.8024 95.5252 98.7159 99.9312C110.014 107.13 114.513 119.577 110.014 130.756C106.313 139.949 98.1923 144.107 88.5364 141.74C82.6967 140.313 77.638 137.263 72.597 134.169C70.2096 132.697 67.7158 131.598 64.8314 131.705C59.7993 131.891 57.2877 136.031 59.4532 140.605C60.5005 142.813 62.3109 144.32 64.2013 145.765C69.3133 149.675 75.011 152.582 80.6554 155.614C85.0752 157.99 89.4949 160.375 93.8259 162.91C110.076 172.432 113.067 189.914 111.203 202.583C109.1 216.9 100.748 226.43 87.9063 232.352C81.2412 235.429 74.2477 237.361 66.8638 237.707C66.1005 237.743 65.2308 237.548 65.2929 238.815C65.4349 241.652 64.4321 244.4 64.6894 247.273C65.1154 252.016 63.3049 256.386 62.1689 260.863C62.0713 261.236 61.8672 261.59 61.6719 261.927C60.2253 264.365 58.8497 267.468 55.5837 267.096C52.2201 266.714 50.7735 263.594 50.1079 260.589C48.9364 255.287 47.9335 249.932 48.2797 244.906L48.2974 244.923Z" fill="#FDFDFD"/>
<path d="M458.257 90.7823C469.04 90.933 478.652 92.7947 487.784 96.855C492.524 98.9561 496.792 101.74 500.209 105.685C502.499 108.327 504.318 111.066 504.052 114.896C503.919 116.784 504.585 118.779 505.108 120.667C508.303 132.157 498.931 143.371 486.977 142.325C481.749 141.864 477.09 139.808 472.59 137.281C470.185 135.933 467.887 134.391 465.437 133.132C460.92 130.818 456.278 131.359 454.388 134.258C452.4 137.316 453.66 141.403 457.716 144.763C462.526 148.744 468.002 151.669 473.478 154.586C478.173 157.086 482.859 159.595 487.474 162.228C500.91 169.888 506.599 181.935 506.422 196.891C506.235 212.29 499.26 224.099 485.406 230.943C464.106 241.466 442.487 240.89 421.409 230.314C411.123 225.154 405.363 216.51 406.366 204.436C407.44 191.501 417.823 184.232 430.319 187.556C435.83 189.028 440.605 191.989 445.389 194.914C447.528 196.226 449.764 197.219 452.276 197.343C454.734 197.459 457.068 197.015 458.435 194.666C459.748 192.414 459.429 190.127 458.231 187.911C457.175 185.951 455.471 184.604 453.758 183.265C447.261 178.23 439.966 174.515 432.875 170.464C428.251 167.822 423.752 165.003 419.607 161.634C400.961 146.456 403.455 117.963 420.37 103.77C431.562 94.3728 444.803 91.0571 458.257 90.7734V90.7823Z" fill="#FDFDFD"/>
<path d="M371.39 240.163C348.945 240.11 333.396 230.225 325.187 208.656C312.895 176.368 315.149 144.754 333.023 114.869C339.999 103.211 350.48 95.6139 364.183 93.4862C381.329 90.8266 395.325 96.7486 406.446 109.878C407.546 111.181 407.049 112.041 406.463 113.247C400.419 125.588 399.665 138.176 405.061 150.907C408.611 159.285 414.983 165.26 422.491 170.056C424.586 171.395 425.651 172.795 425.03 175.269C424.914 175.739 424.976 176.253 424.959 176.74C424.811 179.619 423.314 181.282 420.468 181.732C411.069 183.212 403.419 191.306 401.529 201.599C400.091 209.453 401.635 216.705 406.055 223.257C407.413 225.26 407.085 226.244 405.487 227.805C397.171 235.899 385.527 240.198 371.381 240.163H371.39ZM384.489 166.058C384.489 164.187 384.604 162.317 384.471 160.464C383.965 153.655 383.078 146.917 378.827 141.235C374.638 135.641 368.558 135.685 364.21 141.164C362.719 143.034 361.609 145.136 360.961 147.405C357.021 161.111 357.305 174.79 362 188.239C363.553 192.671 366.118 196.98 371.62 196.927C376.954 196.874 379.235 192.609 381.001 188.327C383.93 181.209 384.533 173.673 384.489 166.067V166.058Z" fill="#FDFDFD"/>
<path d="M282.711 236.236C260.568 236.466 244.922 226.235 236.837 205.943C224.27 174.418 226.258 143.3 242.57 113.486C249.545 100.747 260.249 92.0323 274.99 89.612C292.482 86.7397 306.736 92.8124 317.918 106.359C320.181 109.098 322.018 112.13 323.9 115.135C324.947 116.802 324.858 118.141 324.006 119.958C310.587 148.655 308.91 178.035 319.187 208.035C319.666 209.427 320.057 210.934 320.9 212.095C323.358 215.5 322.027 217.92 319.622 220.757C311.306 230.553 300.479 234.888 288.018 235.961C286.252 236.111 284.477 236.147 282.702 236.227L282.711 236.236ZM295.775 160.588C295.855 158.132 295.633 154.302 294.985 150.508C294.124 145.526 292.873 140.667 289.518 136.669C285.604 131.997 280.066 131.944 276.002 136.474C273.996 138.717 272.718 141.377 271.884 144.231C268.6 155.464 268.946 166.785 271.236 178.114C272.123 182.485 273.534 186.696 276.632 190.083C280.359 194.143 285.329 194.028 288.95 189.87C290.592 187.99 291.728 185.81 292.562 183.478C295.047 176.528 295.74 169.302 295.775 160.588Z" fill="#FDFDFD"/>
<path d="M541.886 178.806C541.886 166.802 541.922 154.799 541.868 142.795C541.842 136.9 539.357 133.894 533.499 132.83C529.923 132.183 526.275 131.9 522.663 131.43C519.184 130.978 516.362 129.32 514.054 126.722C504.904 116.447 509.075 99.9224 522.042 95.4365C529.843 92.7415 538.043 92.1298 546.19 91.5535C562.245 90.4188 578.3 90.3567 594.293 92.511C597.709 92.972 601.1 93.5748 604.374 94.6918C611.19 97.0057 615.184 101.864 616.24 108.832C617.385 116.368 615.646 123.141 609.433 128.185C606.265 130.765 602.289 130.765 598.508 131.288C596.556 131.563 594.585 131.678 592.633 131.962C586.589 132.83 583.971 135.632 583.616 141.696C582.977 152.609 583.101 163.531 583.217 174.453C583.35 187.139 583.696 199.826 583.918 212.521C583.998 217.148 583.918 221.758 582.799 226.306C581.175 232.876 576.969 236.572 570.366 237.707C566.044 238.452 561.704 238.354 557.417 237.574C548.383 235.925 543.874 230.863 542.543 220.987C541.345 212.078 541.895 203.106 541.593 194.17C541.425 189.063 541.558 183.939 541.558 178.824H541.868L541.886 178.806Z" fill="#FDFDFD"/>
<path d="M164.124 139.737C164.293 137.05 164.284 134.479 164.648 131.962C165.34 127.219 168.748 125.259 173.248 126.864C174.961 127.476 176.354 128.522 177.499 129.94C181.324 134.701 181.519 143.62 177.88 148.54C176.221 150.783 174.073 152.21 171.215 152.441C167.656 152.724 165.216 151.075 164.648 147.547C164.231 144.94 164.275 142.263 164.124 139.737ZM169.36 142.148C169.698 144.258 168.801 146.004 170.47 147.219C170.638 147.343 171.393 147.059 171.437 146.873C171.837 145.118 171.242 143.682 169.36 142.148Z" fill="#343230"/>
<path d="M384.489 166.058C384.524 173.664 383.93 181.191 381.001 188.319C379.235 192.6 376.954 196.865 371.62 196.918C366.118 196.971 363.553 192.663 362 188.23C357.296 174.781 357.021 161.102 360.961 147.396C361.609 145.136 362.728 143.034 364.21 141.155C368.558 135.676 374.638 135.641 378.827 141.226C383.078 146.9 383.965 153.646 384.471 160.455C384.613 162.308 384.489 164.187 384.489 166.049V166.058ZM363.659 165.907C363.588 169.746 363.828 173.567 364.449 177.352C365.204 181.918 366.118 186.457 369.064 190.233C369.668 191.005 370.378 191.794 371.496 191.661C372.65 191.519 372.685 190.437 372.845 189.622C374.682 180.304 375.41 170.942 373.582 161.545C372.996 158.549 372.144 155.605 370.209 153.141C369.357 152.05 368.381 150.987 366.766 151.35C365.142 151.722 364.733 153.079 364.485 154.462C363.828 158.247 363.571 162.059 363.659 165.898V165.907Z" fill="#343230"/>
<path d="M295.775 160.588C295.74 169.302 295.056 176.528 292.562 183.478C291.728 185.81 290.592 187.99 288.95 189.87C285.329 194.028 280.359 194.143 276.632 190.083C273.526 186.705 272.115 182.485 271.236 178.114C268.946 166.785 268.6 155.464 271.884 144.231C272.718 141.377 273.996 138.717 276.002 136.474C280.058 131.944 285.596 131.997 289.518 136.669C292.864 140.658 294.124 145.517 294.985 150.508C295.642 154.302 295.855 158.132 295.775 160.588ZM274.813 161.767C274.786 166.785 275.123 171.785 276.224 176.687C276.996 180.145 277.963 183.558 280.288 186.368C280.918 187.13 281.664 187.928 282.747 187.742C283.954 187.538 284.007 186.359 284.211 185.428C285.853 177.99 286.403 170.464 285.809 162.884C285.445 158.274 284.708 153.69 281.983 149.737C281.14 148.513 280.066 147.343 278.345 147.76C276.614 148.176 275.86 149.497 275.558 151.19C274.937 154.692 274.83 158.212 274.813 161.749V161.767Z" fill="#343230"/>
</g>
<path d="M445.502 112.135C427.232 119.447 431.72 112.017 338.408 119.703C280.96 124.437 285.503 126.738 257.773 127.271C239.475 127.623 221.17 132.309 202.962 130.422C194.179 129.51 183.194 127.623 175.874 134.203C174.507 135.433 170.792 139.186 168.942 152.49C166.429 170.604 171.994 173.231 172.719 197.89C173.016 208.029 175.184 218.037 175.868 228.155C176.006 230.152 176.296 234.859 179.644 238.245C182.475 241.114 186.259 241.784 188.462 242.026C235.035 247.265 284.219 237.61 284.219 237.61C291.987 236.089 317.535 232.391 368.637 224.996C407.588 219.364 427.108 216.917 429.117 216.8C456.799 215.203 469.911 217.643 477.624 207.974C482.837 201.429 482.761 192.886 482.664 181.49C482.547 167.861 479.24 165.801 475.732 146.18C471.63 123.234 474.102 114.602 467.543 110.241C460.652 105.659 450.391 110.172 445.495 112.135H445.502Z" fill="#FF4852"/>
<path d="M217.932 245.993C208.217 245.993 198.136 245.551 188.2 244.438C186.577 244.258 181.64 243.698 177.932 239.953C173.976 235.951 173.617 230.636 173.465 228.369C173.161 223.925 172.567 219.433 171.987 215.093C171.241 209.515 170.475 203.744 170.309 197.973C169.985 187.019 168.714 180.612 167.596 174.966C166.215 167.999 165.124 162.498 166.553 152.172C167.899 142.455 170.496 135.806 174.259 132.42C181.771 125.667 192.432 126.842 200.994 127.789C201.747 127.872 202.486 127.955 203.211 128.031C213.906 129.137 224.961 127.886 235.657 126.669C242.872 125.854 250.33 125.004 257.725 124.866C271.873 124.596 277.417 123.877 287.492 122.564C297.11 121.313 310.285 119.606 338.208 117.305C385.396 113.42 407.339 113.386 420.452 113.372C433.005 113.358 435.988 113.351 444.605 109.903L445.33 109.612C450.902 107.366 461.266 103.178 468.889 108.244C474.096 111.699 474.655 117.311 475.58 126.6C476.077 131.583 476.692 137.783 478.121 145.772C479.585 153.976 481.028 159.118 482.188 163.251C483.831 169.098 485.012 173.314 485.088 181.49C485.192 193.108 485.268 202.293 479.523 209.501C472.873 217.843 462.765 218.12 446.013 218.583C441.111 218.721 435.559 218.873 429.262 219.232C427.667 219.322 409.735 221.513 368.99 227.409C318.004 234.783 292.415 238.487 284.695 240.001C284.308 240.077 253.589 246 217.932 246V245.993ZM190.872 131.88C185.873 131.88 181.095 132.772 177.49 136.007C173.886 139.248 172.153 146.94 171.338 152.829C170.019 162.346 170.993 167.239 172.332 174.012C173.43 179.562 174.804 186.466 175.136 197.821C175.301 203.35 176.047 208.99 176.779 214.443C177.366 218.866 177.974 223.435 178.284 227.996C178.415 229.917 178.678 233.822 181.371 236.545C183.877 239.082 187.537 239.489 188.745 239.628C234.393 244.763 283.28 235.343 283.77 235.246C291.607 233.712 317.238 230 368.306 222.612C406.642 217.069 426.749 214.526 428.993 214.395C435.366 214.028 440.952 213.869 445.889 213.738C462.274 213.282 470.505 213.061 475.753 206.474C480.434 200.606 480.365 192.596 480.262 181.524C480.193 173.991 479.143 170.238 477.541 164.55C476.353 160.321 474.876 155.047 473.37 146.615C471.914 138.439 471.285 132.136 470.774 127.07C469.842 117.699 469.359 114.347 466.217 112.266C460.714 108.61 451.883 112.176 447.139 114.091L446.4 114.388C436.92 118.182 433.101 118.189 420.459 118.203C407.422 118.217 385.603 118.244 338.608 122.122C310.796 124.416 297.69 126.116 288.12 127.361C278.211 128.646 272.232 129.42 257.821 129.697C250.654 129.835 243.307 130.664 236.202 131.473C225.258 132.717 213.934 134.002 202.714 132.834C201.975 132.758 201.222 132.675 200.463 132.592C197.342 132.247 194.062 131.887 190.872 131.887V131.88Z" fill="#262626"/>
<path d="M241.022 201.083C240.967 202.597 240.11 204.104 238.667 205.209C236.651 206.751 233.696 207.711 229.643 208.14C226.087 208.513 220.963 208.437 216.71 205.935C214.348 204.546 212.242 202.362 210.447 199.438C209.729 198.264 209.08 196.999 208.535 195.672L208.493 195.568L208.155 194.739L208.189 194.76C208.024 194.317 207.872 193.868 207.734 193.419L207.713 193.46L207.478 192.596L207.45 192.486C206.974 190.703 206.712 188.933 206.663 187.226C206.498 181.137 208.976 175.463 213.465 171.669C213.651 171.51 213.844 171.351 214.038 171.199C215.011 170.432 216.082 169.754 217.214 169.181C219.486 168.034 222.013 167.308 224.72 167.018C228.566 166.61 231.666 166.921 233.938 167.937C234.331 168.11 234.745 168.351 235.146 168.628H235.153L235.229 168.683L236.071 169.278H235.974C236.789 169.996 237.763 171.137 237.804 172.498C237.825 173.176 237.597 173.818 237.134 174.399C236.451 175.263 235.312 175.823 233.972 175.961C233.889 175.968 233.799 175.975 233.717 175.982L233.786 176.037L232.743 175.982H232.646V175.975C231.914 175.926 231.182 175.809 230.471 175.691C230.216 175.65 229.96 175.608 229.698 175.567C226.384 175.055 222.924 176.14 220.666 178.394L220.508 178.546C219.803 179.285 219.203 180.204 218.74 181.276C217.221 184.766 217.393 189.604 219.154 193.032C220.604 195.852 223.283 198.056 226.328 198.927C228.386 199.514 230.105 199.21 231.659 198.796C232.204 198.651 232.743 198.478 233.295 198.312C234.448 197.953 235.643 197.586 236.948 197.386C237.052 197.372 237.155 197.365 237.259 197.358L237.162 197.255L238.039 197.372L238.149 197.386L238.163 197.4C239.89 197.704 241.084 199.217 241.022 201.07V201.083Z" fill="white"/>
<path d="M226.549 209.688C223.249 209.688 219.396 209.121 216.005 207.131C213.451 205.624 211.179 203.281 209.266 200.171C208.528 198.962 207.858 197.662 207.285 196.294C207.271 196.266 207.257 196.232 207.243 196.204L206.863 195.271C206.822 195.167 206.794 195.057 206.774 194.953C206.677 194.683 206.58 194.407 206.497 194.131C206.442 194.034 206.401 193.937 206.373 193.826L206.138 192.963C206.138 192.963 206.138 192.963 206.138 192.956L206.111 192.852C206.111 192.852 206.097 192.79 206.09 192.755C205.6 190.889 205.331 189.044 205.282 187.275C205.103 180.764 207.761 174.689 212.574 170.625C212.76 170.459 212.967 170.287 213.181 170.121C214.224 169.298 215.37 168.566 216.592 167.951C219.016 166.727 221.702 165.953 224.574 165.649C228.669 165.221 232.011 165.566 234.504 166.686C234.925 166.872 235.381 167.128 235.843 167.446C235.878 167.467 235.912 167.488 235.94 167.508L236.016 167.564C236.016 167.564 236.036 167.577 236.043 167.584L236.865 168.165C237.038 168.282 237.176 168.441 237.272 168.614C238.488 169.817 239.144 171.144 239.185 172.471C239.213 173.466 238.881 174.433 238.218 175.27C237.335 176.382 235.954 177.108 234.31 177.329C234.124 177.405 233.924 177.44 233.71 177.433L232.577 177.371C232.529 177.371 232.48 177.371 232.432 177.357C231.645 177.302 230.865 177.17 230.236 177.067C229.981 177.025 229.732 176.984 229.484 176.942C226.598 176.493 223.587 177.433 221.633 179.382L221.474 179.541C220.901 180.142 220.397 180.923 220.003 181.842C218.657 184.932 218.816 189.383 220.376 192.417C221.654 194.905 224.022 196.847 226.701 197.614C228.338 198.084 229.725 197.897 231.293 197.476C231.79 197.344 232.287 197.185 232.784 197.033L232.874 197.006C234 196.653 235.16 196.294 236.451 196.073C236.713 195.921 237.017 195.852 237.335 195.9L238.329 196.038C238.412 196.052 238.495 196.073 238.577 196.093C240.884 196.591 242.472 198.685 242.389 201.139C242.32 203.074 241.27 204.954 239.496 206.315C237.272 208.015 234.096 209.066 229.774 209.522C228.793 209.626 227.702 209.695 226.535 209.695L226.549 209.688ZM209.777 195.077C209.777 195.077 209.798 195.126 209.812 195.147C210.337 196.411 210.944 197.614 211.628 198.72C213.306 201.443 215.253 203.475 217.414 204.746C221.343 207.055 226.156 207.124 229.504 206.764C233.302 206.364 236.03 205.493 237.839 204.11C238.95 203.26 239.613 202.141 239.648 201.035C239.689 199.888 238.985 198.955 237.928 198.768C237.887 198.761 237.839 198.747 237.797 198.74L237.569 198.713C237.5 198.727 237.431 198.74 237.362 198.74L237.162 198.754C235.961 198.941 234.821 199.293 233.716 199.632L233.613 199.66C233.081 199.826 232.55 199.991 232.018 200.13C230.361 200.579 228.338 200.945 225.948 200.261C222.544 199.286 219.548 196.826 217.925 193.668C215.985 189.894 215.798 184.572 217.476 180.723C218.001 179.506 218.691 178.449 219.513 177.592L219.693 177.412C222.254 174.855 226.169 173.618 229.905 174.198C230.167 174.24 230.43 174.281 230.692 174.33C231.32 174.433 232.039 174.551 232.729 174.599C232.764 174.599 232.798 174.599 232.826 174.606L233.42 174.641C233.489 174.627 233.558 174.613 233.627 174.613L233.827 174.599C234.794 174.496 235.608 174.115 236.05 173.549C236.306 173.224 236.43 172.892 236.423 172.547C236.396 171.641 235.56 170.763 235.063 170.321C235.008 170.266 234.952 170.211 234.904 170.155L234.435 169.824C234.407 169.81 234.386 169.796 234.366 169.775C234.013 169.533 233.675 169.34 233.385 169.208C231.341 168.289 228.483 168.02 224.878 168.4C222.337 168.669 219.969 169.347 217.849 170.418C216.793 170.95 215.805 171.579 214.901 172.291C214.721 172.436 214.549 172.574 214.376 172.726C210.192 176.258 207.892 181.531 208.051 187.199C208.093 188.788 208.348 190.447 208.797 192.133C208.804 192.161 208.811 192.188 208.818 192.216V192.244H208.824L208.976 192.811C209.011 192.873 209.038 192.949 209.059 193.018C209.19 193.446 209.335 193.868 209.487 194.283C209.515 194.352 209.536 194.428 209.549 194.497L209.784 195.077H209.777Z" fill="#262626"/>
<path d="M277.031 201.028C276.14 202.182 274.697 202.542 273.192 202.701C272.909 202.728 272.626 202.756 272.342 202.777C267.771 203.101 263.152 203.558 258.616 204.138C257.276 204.304 254.77 204.401 252.974 203.136C252.291 202.652 251.787 202.016 251.476 201.249C250.854 199.722 250.737 197.939 250.627 196.218C250.585 195.603 250.544 194.994 250.482 194.421L249.19 182.63L248.852 179.548L248.279 174.281C248.231 173.846 248.162 173.376 248.086 172.878C247.692 170.266 247.195 167.011 249.653 165.331C250.357 164.847 251.227 164.55 252.284 164.419L252.539 164.384C252.601 164.377 252.67 164.37 252.733 164.364L253.209 164.315L253.175 164.35C254.286 164.322 255.26 164.502 256.054 164.903C257.718 165.739 258.167 167.356 258.346 168.745L258.374 168.98C258.374 168.987 258.374 169.001 258.374 169.008L258.436 169.623C259.051 175.415 259.658 181.206 260.259 186.998L260.673 190.958L260.701 191.221C260.784 192.043 260.887 192.976 261.391 193.661C262.503 195.167 264.574 194.835 266.404 194.545C266.674 194.504 266.936 194.462 267.178 194.428C267.633 194.366 268.096 194.317 268.552 194.269L268.69 194.255L269.422 194.179L269.408 194.193C270.05 194.137 270.706 194.096 271.376 194.061L271.362 194.048L272.28 194.02C272.487 194.02 272.743 193.992 273.019 193.965C274.255 193.861 275.954 193.716 276.692 194.559C277.065 194.981 277.231 195.52 277.376 196.031C277.77 197.462 278.156 199.535 277.01 201.021L277.031 201.028Z" fill="white"/>
<path d="M257.069 205.617C255.467 205.617 253.658 205.313 252.173 204.262C251.269 203.627 250.606 202.783 250.191 201.761C249.487 200.026 249.363 198.132 249.245 196.301C249.204 195.699 249.17 195.119 249.107 194.559L246.905 174.426C246.856 174.005 246.787 173.556 246.718 173.086C246.311 170.404 245.696 166.354 248.873 164.191C249.729 163.603 250.751 163.237 251.98 163.064C252.028 163.05 252.083 163.043 252.139 163.037L252.394 163.009C252.394 163.009 252.491 162.995 252.553 162.988L253.071 162.933C253.23 162.919 253.381 162.933 253.533 162.961C254.735 162.974 255.798 163.209 256.696 163.666C259.168 164.91 259.589 167.439 259.72 168.441C259.734 168.49 259.741 168.545 259.748 168.593L259.844 169.478C260.459 175.27 261.067 181.061 261.667 186.853L262.109 191.076C262.178 191.725 262.254 192.458 262.537 192.838C263.11 193.612 264.422 193.467 266.225 193.184C266.501 193.142 266.77 193.094 267.025 193.059C267.481 192.997 267.93 192.949 268.379 192.9C268.406 192.9 268.427 192.9 268.455 192.893L269.325 192.804C269.394 192.804 269.47 192.797 269.539 192.804C270.071 192.762 270.609 192.728 271.155 192.7C271.224 192.686 271.293 192.679 271.362 192.679L272.28 192.652C272.467 192.652 272.694 192.624 272.943 192.603C274.483 192.472 276.575 192.299 277.776 193.661C278.343 194.303 278.577 195.036 278.75 195.679C279.219 197.393 279.668 199.901 278.149 201.878C276.893 203.509 274.932 203.91 273.357 204.083C273.053 204.117 272.757 204.138 272.453 204.159C267.882 204.491 263.29 204.94 258.809 205.513C258.284 205.576 257.704 205.624 257.089 205.624L257.069 205.617ZM252.567 165.767C252.525 165.773 252.491 165.78 252.449 165.787C251.607 165.891 250.944 166.112 250.426 166.471C248.817 167.57 249.018 169.83 249.446 172.671C249.522 173.182 249.598 173.673 249.646 174.129L251.849 194.262C251.911 194.856 251.952 195.478 251.994 196.121C252.097 197.731 252.208 199.404 252.746 200.724C252.96 201.249 253.292 201.671 253.761 202.003C255.163 202.998 257.297 202.908 258.436 202.763C262.965 202.189 267.606 201.726 272.232 201.394C272.508 201.374 272.77 201.353 273.04 201.325C274.579 201.159 275.443 200.821 275.933 200.185C276.699 199.183 276.375 197.545 276.057 196.404C275.96 196.045 275.85 195.679 275.67 195.478C275.387 195.16 273.702 195.299 273.15 195.347C272.839 195.375 272.556 195.395 272.328 195.402L271.61 195.423C271.555 195.43 271.5 195.437 271.445 195.444C270.796 195.471 270.16 195.513 269.532 195.568C269.477 195.568 269.421 195.568 269.366 195.568L268.759 195.63C268.759 195.63 268.71 195.63 268.69 195.637C268.248 195.679 267.806 195.734 267.357 195.789C267.122 195.824 266.874 195.865 266.611 195.907C264.616 196.225 261.881 196.66 260.273 194.476C259.541 193.488 259.416 192.306 259.32 191.359L258.878 187.136C258.27 181.345 257.669 175.553 257.055 169.761L256.993 169.146C256.993 169.146 256.993 169.091 256.986 169.07V169.008C256.986 169.008 256.965 168.939 256.965 168.904C256.779 167.405 256.316 166.568 255.425 166.126C254.845 165.836 254.1 165.697 253.195 165.718C253.133 165.718 253.071 165.718 253.009 165.711L252.871 165.725C252.871 165.725 252.808 165.725 252.801 165.725L252.56 165.753L252.567 165.767Z" fill="#262626"/>
<path d="M322.748 177.744C322.748 178.214 322.72 178.698 322.665 179.209H322.679L322.624 179.679C322.624 179.748 322.61 179.81 322.603 179.88C321.595 186.362 317.452 192.742 311.804 196.536C308.883 198.492 305.727 199.667 302.565 199.998C300.528 200.213 298.484 200.088 296.496 199.598C294.438 199.093 292.498 198.229 290.723 197.027C290.53 196.895 290.343 196.764 290.164 196.633C284.253 192.279 281.685 183.978 283.777 175.975C284.785 172.118 286.732 168.607 289.411 165.794L289.529 165.663L289.943 165.241V165.255C290.647 164.571 291.386 163.935 292.166 163.362H292.152L292.636 163.016L292.774 162.919C297.925 159.381 304.201 158.544 310.05 160.625L310.195 160.673L310.802 160.894H310.789C310.899 160.943 311.016 160.984 311.127 161.032C312.646 161.668 314.041 162.484 315.284 163.451C315.353 163.507 315.415 163.562 315.477 163.61V163.59L315.974 164.025L316.092 164.122C319.192 166.852 321.526 170.736 322.382 174.586H322.389L322.451 174.876L322.52 175.208H322.506C322.665 176.078 322.762 176.929 322.769 177.737L322.748 177.744ZM302.523 187.821C304.105 187.959 305.555 187.385 306.611 186.217C306.874 185.927 307.095 185.63 307.295 185.298C307.64 184.724 307.958 184.068 308.241 183.342C309.532 180.032 309.926 175.201 306.784 172.498C305.52 171.406 304.022 171.047 302.461 171.441C299.637 172.153 297.007 175.208 296.592 178.249C296.475 179.099 296.44 179.935 296.482 180.737C296.537 181.697 296.71 182.589 296.993 183.391C297.158 183.861 297.386 184.317 297.662 184.759C298.76 186.487 300.618 187.655 302.523 187.821Z" fill="white"/>
<path d="M300.645 201.484C299.126 201.484 297.621 201.305 296.157 200.945C293.941 200.406 291.849 199.473 289.936 198.181C289.736 198.043 289.528 197.897 289.328 197.752C282.962 193.066 280.186 184.179 282.423 175.629C283.473 171.6 285.51 167.902 288.306 164.937C288.334 164.903 288.362 164.868 288.396 164.834L288.928 164.288C288.983 164.233 289.045 164.177 289.107 164.136C289.756 163.514 290.44 162.926 291.151 162.387C291.206 162.332 291.269 162.277 291.338 162.235L291.959 161.8C291.994 161.772 292.028 161.751 292.069 161.731C297.531 158.019 304.194 157.135 310.388 159.298C310.429 159.305 310.471 159.319 310.505 159.332L311.258 159.609C311.32 159.63 311.382 159.657 311.438 159.692C311.507 159.719 311.576 159.747 311.645 159.775C313.267 160.452 314.78 161.33 316.119 162.38C316.14 162.401 316.167 162.415 316.188 162.436C316.25 162.477 316.312 162.518 316.368 162.567L316.975 163.099C316.975 163.099 317.031 163.147 317.058 163.175C320.283 166.036 322.748 170.128 323.68 174.164C323.701 174.219 323.714 174.275 323.721 174.33L323.846 174.952C323.859 175.035 323.873 175.111 323.873 175.194C324.032 176.106 324.115 176.963 324.122 177.744C324.122 178.186 324.101 178.656 324.046 179.195C324.046 179.265 324.046 179.334 324.039 179.396L323.984 179.859C323.984 179.914 323.97 180.011 323.956 180.101C322.886 186.95 318.522 193.688 312.556 197.69C309.49 199.743 306.079 201.021 302.689 201.381C302.006 201.457 301.322 201.491 300.638 201.491L300.645 201.484ZM290.461 166.665C290.461 166.665 290.412 166.721 290.385 166.748C287.864 169.395 286.035 172.706 285.089 176.32C283.141 183.785 285.503 191.498 290.958 195.52C291.123 195.644 291.296 195.769 291.476 195.886C293.119 196.999 294.914 197.794 296.806 198.257C298.622 198.699 300.507 198.824 302.399 198.623C305.348 198.312 308.324 197.192 311.016 195.389C316.361 191.802 320.269 185.775 321.222 179.665C321.222 179.624 321.229 179.589 321.236 179.548L321.277 179.216C321.277 179.168 321.277 179.113 321.284 179.064C321.339 178.56 321.36 178.131 321.36 177.758C321.36 177.074 321.27 176.307 321.118 175.47C321.104 175.415 321.098 175.353 321.098 175.297L321.035 175.007C321.022 174.973 321.015 174.938 321.008 174.897C320.214 171.337 318.025 167.702 315.152 165.172C315.132 165.152 315.111 165.138 315.09 165.117L314.704 164.778C314.662 164.751 314.621 164.723 314.579 164.689L314.4 164.537C313.26 163.645 311.962 162.892 310.561 162.304C310.499 162.277 310.443 162.256 310.388 162.235L310.264 162.187C310.215 162.166 310.167 162.145 310.119 162.125L309.649 161.952C309.649 161.952 309.58 161.931 309.546 161.917C304.125 159.996 298.284 160.77 293.513 164.053C293.485 164.074 293.457 164.087 293.423 164.108L293.057 164.364C293.022 164.398 292.981 164.433 292.939 164.467C292.214 165.007 291.517 165.601 290.861 166.244C290.827 166.278 290.785 166.313 290.744 166.347L290.44 166.665H290.461ZM302.986 189.224C302.793 189.224 302.599 189.217 302.406 189.196C300.1 188.996 297.849 187.6 296.523 185.54C296.516 185.526 296.502 185.512 296.495 185.499C296.164 184.973 295.895 184.42 295.688 183.854C295.356 182.928 295.163 181.905 295.101 180.813C295.052 179.921 295.094 178.995 295.218 178.062C295.708 174.447 298.74 170.95 302.116 170.1C304.105 169.603 306.079 170.079 307.674 171.455C311.362 174.627 310.975 180.115 309.518 183.847C309.207 184.642 308.855 185.367 308.469 186.01C308.22 186.418 307.951 186.784 307.633 187.137C306.411 188.491 304.781 189.217 302.986 189.217V189.224ZM298.802 183.992C298.802 183.992 298.816 184.013 298.822 184.026C299.692 185.395 301.156 186.321 302.634 186.452C303.787 186.549 304.809 186.155 305.575 185.298C305.776 185.077 305.948 184.842 306.1 184.593C306.404 184.089 306.687 183.501 306.943 182.852C308.068 179.963 308.469 175.788 305.872 173.563C304.954 172.768 303.911 172.512 302.786 172.796C300.507 173.369 298.291 175.961 297.952 178.449C297.849 179.209 297.814 179.963 297.856 180.674C297.904 181.497 298.049 182.264 298.291 182.941C298.415 183.301 298.588 183.653 298.802 183.999V183.992Z" fill="#262626"/>
<path d="M362.616 181.628C362.81 183.439 362.623 185.153 362.078 186.714C361.525 188.283 360.6 189.7 359.316 190.93C358.045 192.147 356.409 193.183 354.455 193.992C352.314 194.884 349.953 195.464 347.55 195.72C344.719 196.017 341.833 195.865 339.181 195.236C337.78 194.904 336.702 194.476 335.791 193.895C334.955 193.363 334.265 192.686 333.789 191.933L333.485 191.456H333.519C333.464 191.338 333.409 191.221 333.36 191.103C332.912 189.977 332.905 188.684 333.319 187.544H333.291L333.533 187.046L333.609 186.887H333.616C333.802 186.549 333.996 186.293 334.217 186.092C334.859 185.526 335.701 185.401 336.295 185.401C337.365 185.401 338.387 185.747 339.368 186.086C339.658 186.182 339.948 186.286 340.238 186.376C342.254 187.005 344.422 187.24 346.335 187.039C346.39 187.039 346.438 187.026 346.487 187.019L346.694 186.991C347.543 186.88 348.33 186.687 349.028 186.417C349.421 186.272 349.787 186.079 350.125 185.851C350.775 185.408 351.258 184.855 351.52 184.247C351.838 183.508 351.859 182.651 351.575 181.89C350.906 180.114 348.889 179.693 347.108 179.319L346.576 179.209C346.238 179.133 345.9 179.064 345.561 178.995H345.513L344.705 178.822C343.214 178.518 341.681 178.2 340.182 177.771V177.792L339.333 177.529C336.64 176.659 334.652 175.463 333.257 173.873C332 172.436 331.151 170.563 330.813 168.455C330.378 165.746 330.882 163.023 332.235 160.776L332.276 160.7L332.898 159.684V159.823C333.215 159.401 333.554 159 333.94 158.634C334.32 158.268 334.748 157.929 335.183 157.597H335.087L336.046 156.996L336.122 156.948H336.129C338.408 155.545 341.356 154.639 344.892 154.266C346.701 154.072 348.413 154.024 349.98 154.114C350.519 154.142 351.092 154.211 351.72 154.314L351.886 154.335L352.48 154.432L352.466 154.446C353.447 154.646 354.303 154.909 355.056 155.261C355.159 155.31 355.263 155.365 355.373 155.42V155.379L355.919 155.738L356.043 155.821V155.835C356.954 156.457 357.638 157.245 358.004 158.122C358.315 158.855 358.432 159.705 358.349 160.59C358.294 161.226 358.135 161.696 357.866 162.069C357.417 162.677 356.609 163.036 355.58 163.071C353.488 163.147 351.382 163.002 349.338 162.864C347.35 162.725 345.727 162.877 344.381 163.327C343.662 163.562 342.682 164.039 342.102 164.965C341.681 165.635 341.591 166.34 341.833 167.01C342.116 167.771 342.827 168.393 343.732 168.669C345.168 169.104 346.652 169.45 348.089 169.782C350.215 170.273 352.425 170.777 354.517 171.613C355.311 171.924 356.064 172.304 356.782 172.712V172.698L357.127 172.899L357.341 173.03C357.824 173.334 358.252 173.624 358.612 173.915C359.198 174.385 359.737 174.938 360.22 175.553H360.234L360.393 175.753C360.393 175.753 360.393 175.76 360.4 175.767L360.628 176.064H360.614C360.883 176.451 361.125 176.824 361.318 177.198C361.974 178.462 362.395 179.955 362.568 181.628H362.616Z" fill="white"/>
<path d="M344.761 197.248C342.724 197.248 340.728 197.02 338.864 196.577C337.31 196.204 336.095 195.727 335.052 195.064C334.044 194.428 333.209 193.598 332.622 192.672L332.318 192.189C332.235 192.05 332.173 191.905 332.138 191.746C332.118 191.698 332.097 191.656 332.083 191.608C331.552 190.274 331.503 188.74 331.931 187.358C331.952 187.212 331.987 187.074 332.056 186.936L332.283 186.473C332.283 186.473 332.297 186.438 332.311 186.418L332.394 186.259C332.428 186.19 332.463 186.127 332.511 186.065C332.753 185.65 333.022 185.319 333.326 185.049C334.086 184.372 335.121 184.013 336.316 184.013C337.614 184.013 338.788 184.413 339.83 184.773C340.114 184.87 340.39 184.966 340.673 185.049C342.516 185.623 344.484 185.837 346.224 185.657L346.528 185.616C347.281 185.519 347.964 185.353 348.565 185.125C348.855 185.015 349.124 184.876 349.387 184.704C349.815 184.413 350.126 184.068 350.284 183.701C350.464 183.294 350.471 182.803 350.312 182.381C349.939 181.393 348.641 181.048 346.853 180.674L346.314 180.557C345.99 180.488 345.672 180.419 345.354 180.356L345.541 178.981L345.265 180.336L344.457 180.17C342.958 179.866 341.495 179.562 340.058 179.161C339.975 179.154 339.893 179.133 339.817 179.112L338.96 178.85C335.998 177.896 333.809 176.569 332.249 174.786C330.82 173.148 329.867 171.04 329.48 168.676C328.997 165.684 329.549 162.664 331.034 160.148C331.047 160.113 331.068 160.079 331.089 160.044L331.759 158.952C331.876 158.766 332.035 158.607 332.214 158.496C332.484 158.171 332.753 157.881 333.022 157.625C333.312 157.349 333.637 157.065 334.01 156.782C334.113 156.637 334.244 156.519 334.396 156.423L335.425 155.78C335.425 155.78 335.494 155.738 335.529 155.725C337.973 154.239 341.087 153.292 344.781 152.898C346.673 152.697 348.462 152.642 350.091 152.746C350.63 152.773 351.21 152.843 351.866 152.939C351.9 152.939 351.942 152.946 351.976 152.953L352.736 153.078C352.825 153.091 352.915 153.119 352.998 153.147C354.013 153.368 354.89 153.651 355.67 154.017C355.698 154.031 355.732 154.045 355.76 154.059C355.891 154.093 356.022 154.149 356.147 154.232L356.823 154.674C356.885 154.716 356.941 154.757 356.996 154.805C358.066 155.573 358.867 156.533 359.316 157.604C359.71 158.537 359.861 159.623 359.765 160.728C359.689 161.613 359.44 162.325 359.019 162.898C358.322 163.852 357.134 164.412 355.67 164.467C353.502 164.55 351.355 164.398 349.283 164.26C347.481 164.136 346.031 164.26 344.85 164.654C344.346 164.82 343.67 165.138 343.311 165.711C343.062 166.112 343.11 166.375 343.172 166.541C343.304 166.893 343.69 167.204 344.174 167.356C345.555 167.778 347.012 168.117 348.42 168.434C350.643 168.946 352.888 169.464 355.069 170.335C355.815 170.632 356.554 170.985 357.32 171.413C357.396 171.441 357.472 171.475 357.541 171.524L357.88 171.724C357.88 171.724 357.9 171.738 357.907 171.745L358.094 171.856C358.142 171.883 358.184 171.911 358.225 171.945C358.729 172.263 359.15 172.554 359.509 172.844C360.103 173.314 360.669 173.887 361.208 174.537C361.27 174.592 361.325 174.655 361.374 174.717L361.532 174.924C361.532 174.924 361.553 174.952 361.567 174.973L361.767 175.235C361.822 175.304 361.864 175.373 361.905 175.449C362.182 175.85 362.409 176.223 362.589 176.569C363.328 177.986 363.797 179.645 363.991 181.49C364.205 183.508 363.997 185.422 363.376 187.185C362.755 188.961 361.705 190.558 360.269 191.94C358.874 193.281 357.093 194.4 354.98 195.285C352.729 196.218 350.278 196.833 347.688 197.109C346.708 197.213 345.727 197.261 344.754 197.261L344.761 197.248ZM334.824 190.986L334.963 191.2C335.328 191.781 335.874 192.313 336.537 192.735C337.317 193.225 338.256 193.598 339.506 193.896C341.957 194.476 344.691 194.635 347.405 194.345C349.698 194.103 351.948 193.536 353.923 192.721C355.719 191.974 357.21 191.034 358.363 189.936C359.482 188.857 360.296 187.62 360.773 186.259C361.256 184.89 361.415 183.377 361.242 181.773C361.084 180.274 360.711 178.947 360.138 177.834C359.993 177.557 359.792 177.239 359.537 176.873C359.509 176.832 359.482 176.79 359.454 176.742L359.351 176.604C359.351 176.604 359.337 176.583 359.323 176.569L359.309 176.548C359.268 176.507 359.226 176.465 359.185 176.417C358.736 175.857 358.273 175.38 357.79 175C357.493 174.765 357.113 174.503 356.651 174.219C356.616 174.198 356.582 174.178 356.547 174.15L356.45 174.088C356.45 174.088 356.43 174.074 356.416 174.067L356.292 173.991C356.236 173.97 356.181 173.943 356.133 173.915C355.415 173.5 354.724 173.169 354.041 172.899C352.052 172.111 349.912 171.614 347.847 171.137C346.342 170.791 344.836 170.446 343.366 169.996C342.047 169.596 341.004 168.656 340.576 167.495C340.183 166.423 340.321 165.269 340.97 164.239C341.771 162.968 343.048 162.339 343.98 162.028C345.506 161.523 347.302 161.357 349.47 161.502C351.472 161.641 353.544 161.779 355.567 161.71C356.147 161.689 356.602 161.523 356.789 161.274C356.83 161.219 356.961 161.039 357.01 160.486C357.072 159.823 356.982 159.201 356.761 158.676C356.499 158.054 355.995 157.473 355.29 156.996C355.256 156.969 355.221 156.948 355.187 156.92L354.904 156.734C354.855 156.713 354.8 156.692 354.752 156.664L354.69 156.63C354.628 156.595 354.559 156.561 354.496 156.533C353.854 156.236 353.109 156.001 352.211 155.821C352.156 155.814 352.107 155.801 352.059 155.78L351.617 155.711C351.617 155.711 351.555 155.711 351.527 155.697C350.92 155.6 350.402 155.538 349.925 155.517C348.434 155.427 346.804 155.476 345.064 155.662C341.743 156.015 338.988 156.851 336.882 158.144C336.854 158.157 336.834 158.171 336.806 158.185L336.24 158.537C336.178 158.607 336.116 158.662 336.04 158.717C335.598 159.042 335.232 159.346 334.928 159.636C334.638 159.92 334.348 160.245 334.023 160.666C333.961 160.742 333.892 160.818 333.823 160.88L333.492 161.419C333.492 161.419 333.464 161.475 333.45 161.502C332.263 163.472 331.821 165.863 332.207 168.241C332.504 170.086 333.236 171.724 334.327 172.968C335.549 174.364 337.331 175.429 339.782 176.217L340.404 176.41C340.466 176.417 340.528 176.431 340.59 176.452C342.005 176.859 343.428 177.157 345.002 177.474L345.81 177.64L345.9 177.661C346.231 177.73 346.563 177.799 346.894 177.868L347.419 177.979C349.332 178.38 351.955 178.933 352.888 181.414C353.302 182.506 353.267 183.743 352.805 184.807C352.432 185.657 351.783 186.418 350.913 187.005C350.471 187.295 350.008 187.537 349.525 187.717C348.724 188.021 347.833 188.235 346.88 188.367L346.68 188.394C346.646 188.394 346.57 188.408 346.487 188.422C344.395 188.636 342.033 188.38 339.837 187.703C339.534 187.606 339.23 187.503 338.926 187.399C338.008 187.081 337.144 186.791 336.309 186.791C335.957 186.791 335.46 186.853 335.149 187.13C335.052 187.212 334.949 187.358 334.831 187.558C334.818 187.586 334.804 187.606 334.79 187.634C334.79 187.641 334.783 187.648 334.776 187.655L334.652 187.904C334.638 187.945 334.631 187.987 334.617 188.021C334.313 188.85 334.32 189.79 334.645 190.592C334.679 190.675 334.721 190.758 334.762 190.841C334.783 190.889 334.804 190.938 334.824 190.986Z" fill="#262626"/>
<path d="M401.76 185.229C401.76 185.402 401.746 185.567 401.726 185.74L401.76 185.726L401.615 186.328L401.574 186.487H401.56C401.118 188.035 399.868 189.037 397.997 189.306C395.125 189.728 392.149 190.157 389.186 190.544C388.275 190.661 387.35 190.779 386.411 190.875C384.049 191.124 381.626 191.276 379.223 191.103C378.187 191.027 376.985 190.875 375.957 190.329C375.839 190.267 375.722 190.198 375.618 190.129C375.08 189.77 374.658 189.293 374.334 188.678H374.327L374.286 188.588L373.809 187.648L373.94 187.724C373.63 186.715 373.54 185.588 373.464 184.572C373.436 184.234 373.416 183.909 373.381 183.591L373.367 183.466L373.291 182.748C373.05 180.439 372.808 178.311 372.546 176.251C372.117 172.864 371.62 169.443 371.068 166.078C371.006 165.711 370.944 165.352 370.882 164.986C370.509 162.843 370.129 160.631 370.453 158.358C370.937 154.937 373.139 152.829 376.999 152.103C380.307 151.481 383.759 151.177 387.101 150.88C388.648 150.741 390.25 150.596 391.81 150.43C392.501 150.354 393.122 150.299 393.757 150.313H393.764H393.833C394.365 150.334 394.828 150.41 395.249 150.541C396.588 150.963 397.686 152.068 398.1 153.416C398.494 154.667 398.239 156.388 397.507 157.418C397.32 157.687 397.134 157.881 396.94 158.026C396.34 158.482 395.573 158.572 394.952 158.648C392.708 158.917 390.436 159.173 388.185 159.394C387.743 159.436 387.253 159.457 386.728 159.477C385.748 159.512 384.636 159.553 383.704 159.781C383.158 159.92 382.744 160.092 382.42 160.327C381.874 160.721 381.625 161.309 381.515 161.744C381.432 162.083 381.391 162.442 381.405 162.795C381.467 164.308 381.915 166.126 383.683 166.209C385.554 166.299 387.46 166.098 389.304 165.898L390.498 165.773C392.376 165.58 395.525 165.255 397.01 166.838C397.313 167.163 397.527 167.591 397.693 168.186C398.128 169.734 397.997 171.081 397.32 172.077C396.637 173.086 395.408 173.701 393.819 173.86L388.088 174.44L384.187 174.834C384.187 174.834 384.18 174.834 384.173 174.834C383.296 174.924 383.055 175.387 382.951 175.733C382.744 176.417 382.917 177.412 383.069 178.29C383.103 178.476 383.131 178.649 383.158 178.822C383.248 179.382 383.338 179.962 383.607 180.446C383.994 181.144 384.767 181.656 385.727 181.849C387.66 182.236 389.621 181.918 391.693 181.587C393.778 181.255 395.939 180.909 398.08 181.338C398.577 181.435 398.998 181.566 399.392 181.725H399.406L399.544 181.78L400.151 182.05L400.103 182.077C400.317 182.215 400.517 182.361 400.683 182.52C401.366 183.19 401.76 184.178 401.746 185.229H401.76Z" fill="white"/>
<path d="M381.384 192.548C380.597 192.548 379.858 192.52 379.133 192.472C377.952 192.389 376.571 192.209 375.315 191.539C375.163 191.456 375.011 191.366 374.866 191.276C374.161 190.806 373.616 190.205 373.181 189.431C373.153 189.383 373.126 189.341 373.098 189.293L372.58 188.263C372.449 188 372.408 187.717 372.449 187.44C372.228 186.473 372.159 185.491 372.097 184.669V184.565C372.069 184.282 372.048 183.999 372.021 183.729V183.701C372.021 183.701 372.007 183.639 372.007 183.612L371.931 182.893C371.689 180.578 371.448 178.463 371.185 176.431C370.757 173.072 370.267 169.665 369.715 166.306C369.659 165.967 369.597 165.628 369.542 165.29C369.142 162.981 368.741 160.659 369.093 158.171C369.487 155.372 371.137 151.813 376.751 150.748C380.141 150.106 383.621 149.802 386.991 149.511C388.53 149.373 390.119 149.235 391.672 149.069C392.411 148.986 393.053 148.931 393.702 148.944C393.744 148.944 393.785 148.944 393.826 148.944H393.895C394.545 148.972 395.131 149.062 395.67 149.235C397.438 149.795 398.881 151.246 399.433 153.015C399.958 154.695 399.633 156.837 398.646 158.226C398.37 158.613 398.094 158.911 397.783 159.146C396.885 159.816 395.836 159.947 395.138 160.03C392.839 160.307 390.554 160.562 388.337 160.784C387.868 160.832 387.357 160.853 386.79 160.866C385.879 160.901 384.843 160.936 384.056 161.136C383.697 161.226 383.421 161.336 383.255 161.461C383.027 161.627 382.917 161.931 382.875 162.104C382.82 162.311 382.799 162.532 382.806 162.753C382.848 163.686 383.048 164.813 383.773 164.847C385.541 164.937 387.391 164.737 389.179 164.543L390.381 164.419C392.515 164.198 396.084 163.831 398.038 165.919C398.494 166.409 398.819 167.018 399.047 167.833C399.592 169.789 399.399 171.531 398.487 172.878C397.583 174.212 395.981 175.062 393.985 175.263L384.353 176.237C384.353 176.237 384.346 176.237 384.339 176.237C384.318 176.237 384.298 176.237 384.284 176.244C384.215 176.68 384.36 177.509 384.457 178.076C384.491 178.269 384.519 178.449 384.553 178.629C384.622 179.071 384.698 179.534 384.843 179.803C385.03 180.142 385.472 180.405 386.024 180.515C387.716 180.854 389.552 180.557 391.5 180.246C393.716 179.893 395.995 179.527 398.377 180.004C398.881 180.108 399.343 180.239 399.785 180.412C399.854 180.432 399.917 180.453 399.979 180.481L400.117 180.543C400.117 180.543 400.165 180.564 400.186 180.578L400.731 180.813C400.925 180.895 401.097 181.027 401.228 181.186C401.387 181.303 401.532 181.428 401.663 181.552C402.623 182.485 403.162 183.833 403.148 185.263C403.148 185.374 403.148 185.478 403.134 185.588C403.155 185.747 403.148 185.913 403.113 186.072L402.934 186.825C402.913 186.915 402.886 186.998 402.844 187.081C402.209 189.051 400.531 190.364 398.211 190.696C395.491 191.09 392.411 191.539 389.38 191.933C388.461 192.05 387.522 192.168 386.576 192.271C384.636 192.479 382.937 192.576 381.398 192.576L381.384 192.548ZM375.515 187.931C375.515 187.931 375.549 187.986 375.563 188.014C375.784 188.429 376.053 188.733 376.399 188.968C376.461 189.009 376.537 189.051 376.613 189.092C377.42 189.528 378.442 189.652 379.333 189.714C381.308 189.859 383.511 189.79 386.273 189.493C387.198 189.396 388.116 189.279 389.014 189.168C392.024 188.781 395.097 188.332 397.804 187.938C399.129 187.745 399.944 187.129 400.234 186.113C400.248 186.072 400.262 186.031 400.276 185.996L400.345 185.72C400.345 185.671 400.345 185.623 400.352 185.574C400.365 185.457 400.372 185.346 400.372 185.236C400.372 184.552 400.144 183.93 399.723 183.522C399.633 183.439 399.516 183.349 399.378 183.259C399.337 183.231 399.295 183.204 399.254 183.169L398.991 183.052C398.95 183.038 398.915 183.024 398.874 183.01C398.542 182.879 398.197 182.775 397.811 182.699C395.919 182.319 393.889 182.644 391.928 182.955C389.815 183.294 387.64 183.639 385.465 183.211C384.104 182.941 382.986 182.181 382.406 181.124C382.019 180.425 381.902 179.693 381.805 179.043C381.777 178.877 381.75 178.705 381.715 178.532C381.536 177.502 381.336 176.341 381.639 175.339C381.964 174.261 382.813 173.597 384.035 173.466L393.688 172.491C394.862 172.374 395.746 171.952 396.181 171.303C396.74 170.48 396.588 169.36 396.367 168.559C396.264 168.192 396.146 167.937 396.001 167.785C394.986 166.7 392.162 166.99 390.643 167.149L389.449 167.273C387.557 167.474 385.603 167.681 383.621 167.584C382.599 167.536 380.21 166.976 380.031 162.843C380.01 162.352 380.065 161.855 380.182 161.392C380.424 160.459 380.921 159.698 381.619 159.194C382.074 158.862 382.654 158.607 383.372 158.427C384.443 158.164 385.63 158.116 386.673 158.081C387.198 158.061 387.66 158.047 388.047 158.005C390.243 157.784 392.508 157.535 394.786 157.259C395.263 157.204 395.801 157.134 396.105 156.906C396.181 156.844 396.271 156.747 396.374 156.602C396.858 155.925 397.037 154.646 396.775 153.81C396.485 152.884 395.739 152.131 394.821 151.84C394.524 151.75 394.185 151.695 393.792 151.674C393.764 151.674 393.73 151.674 393.702 151.674C393.177 151.668 392.639 151.709 391.948 151.785C390.374 151.951 388.765 152.096 387.212 152.234C383.911 152.525 380.507 152.822 377.248 153.437C373.989 154.052 372.207 155.718 371.814 158.53C371.524 160.59 371.883 162.698 372.235 164.73C372.304 165.138 372.366 165.483 372.421 165.836C372.974 169.229 373.478 172.671 373.906 176.058C374.168 178.11 374.41 180.246 374.659 182.582L374.721 183.211C374.721 183.211 374.728 183.266 374.735 183.301L374.748 183.425C374.776 183.722 374.804 184.026 374.824 184.337V184.448C374.9 185.374 374.976 186.418 375.252 187.295C375.28 187.378 375.294 187.461 375.308 187.544L375.501 187.924L375.515 187.931Z" fill="#262626"/>
<path d="M445.779 172.429H445.792L445.641 172.975L445.592 173.148H445.585C445.081 174.952 444.349 176.624 443.424 178.131L443.327 178.29L443.024 178.767L443.01 178.746C442.126 180.059 441.097 181.213 439.944 182.167C438.114 183.681 435.946 184.911 433.502 185.837L433.343 185.906L432.797 186.107V186.086C431.078 186.68 429.255 187.123 427.356 187.385L427.37 187.399L426.797 187.468L426.625 187.489C426.528 187.496 426.438 187.51 426.341 187.517C424.74 187.689 423.124 187.738 421.549 187.662C421.177 187.641 420.811 187.62 420.438 187.586C417.172 187.302 414.534 186.051 413.001 184.075C412.394 183.294 411.945 182.354 411.655 181.283L411.627 181.179L411.379 180.232L411.434 180.28C411.268 179.32 411.234 178.297 411.323 177.239C411.372 176.714 411.379 176.161 411.358 175.553C411.323 174.648 411.213 173.77 411.102 172.851C411.033 172.305 410.964 171.759 410.916 171.185C410.716 169.084 410.495 166.962 410.267 164.882C409.956 162.09 409.618 159.27 409.245 156.492C409.19 156.084 409.114 155.669 409.038 155.255C408.72 153.499 408.389 151.688 409.521 150.119C411.793 146.975 417.731 146.477 421.273 146.18H421.349C427.902 145.62 433.177 146.532 437.044 148.869L437.251 148.993C437.306 149.021 437.362 149.055 437.41 149.09C437.424 149.104 437.444 149.117 437.458 149.124L437.859 149.373H437.817C438.977 150.182 440.068 151.198 441.083 152.4V152.359L441.587 152.995L441.663 153.091C443.838 155.925 445.447 159.546 446.076 163.064C446.145 163.451 446.207 163.845 446.255 164.246C446.593 166.969 446.421 169.775 445.772 172.429H445.779ZM422.123 155.559C420.058 156.706 420.065 158.454 420.272 160.459L421.736 174.337C421.881 175.684 422.413 176.756 423.289 177.447C424.263 178.214 425.616 178.497 427.225 178.269C432.894 177.461 435.566 171.254 435.269 165.532C435.242 165.055 435.2 164.585 435.131 164.136C434.689 161.108 433.177 158.392 430.995 156.692C429.794 155.752 428.296 155.103 426.776 154.854C425.851 154.702 424.954 154.709 424.09 154.868C423.372 154.999 422.709 155.234 422.123 155.559Z" fill="white"/>
<path d="M423.013 189.078C422.502 189.078 421.998 189.064 421.487 189.044C421.101 189.023 420.714 189.002 420.327 188.968C416.675 188.65 413.685 187.212 411.917 184.925C411.227 184.033 410.702 182.969 410.357 181.766C410.343 181.725 410.329 181.676 410.315 181.628L410.046 180.591C410.005 180.418 409.991 180.246 410.011 180.073C409.887 179.126 409.866 178.138 409.956 177.122C409.998 176.659 410.005 176.161 409.984 175.608C409.949 174.758 409.846 173.915 409.735 173.016C409.666 172.463 409.597 171.897 409.542 171.316C409.342 169.222 409.128 167.114 408.893 165.034C408.582 162.221 408.237 159.408 407.878 156.671C407.829 156.284 407.754 155.897 407.684 155.503C407.346 153.658 406.932 151.356 408.409 149.311C411.054 145.655 417.379 145.122 421.156 144.804H421.232C428.047 144.224 433.585 145.185 437.7 147.645C437.728 147.659 437.748 147.673 437.769 147.686L437.976 147.811C438.024 147.838 438.093 147.88 438.163 147.921C438.183 147.935 438.211 147.956 438.238 147.97L438.598 148.191C438.708 148.26 438.805 148.343 438.888 148.433C439.965 149.214 440.987 150.161 441.939 151.26C442.029 151.329 442.112 151.405 442.181 151.501L442.754 152.241C442.754 152.241 442.803 152.303 442.823 152.338C445.095 155.323 446.773 159.138 447.436 162.822C447.512 163.237 447.574 163.652 447.629 164.073C447.974 166.865 447.816 169.789 447.166 172.546C447.16 172.629 447.146 172.705 447.125 172.781L446.925 173.507C446.911 173.555 446.897 173.597 446.883 173.638C446.359 175.47 445.613 177.177 444.674 178.732C444.653 178.78 444.625 178.822 444.598 178.87L444.204 179.499C444.149 179.582 444.094 179.658 444.025 179.727C443.086 181.082 442.015 182.257 440.842 183.224C438.936 184.8 436.685 186.093 434.144 187.074C434.096 187.102 434.047 187.122 433.992 187.136L433.295 187.399C433.212 187.426 433.129 187.454 433.046 187.468C431.368 188.035 429.601 188.456 427.785 188.719C427.709 188.74 427.633 188.76 427.55 188.767L426.5 188.892C425.34 189.016 424.173 189.078 423.013 189.078ZM412.967 180.826C412.967 180.826 412.987 180.888 412.994 180.923C413.243 181.821 413.616 182.602 414.106 183.231C415.397 184.904 417.697 185.961 420.569 186.217C420.921 186.245 421.273 186.272 421.625 186.286C423.138 186.362 424.677 186.314 426.21 186.148L427.004 186.058C427.066 186.044 427.122 186.03 427.184 186.017C428.979 185.768 430.726 185.353 432.369 184.786C432.432 184.766 432.487 184.752 432.549 184.738L432.915 184.6C432.956 184.579 432.991 184.565 433.032 184.551C435.338 183.674 437.375 182.519 439.081 181.109C440.11 180.259 441.056 179.209 441.877 177.979C441.912 177.923 441.953 177.868 442.002 177.827L442.195 177.523C442.216 177.488 442.236 177.447 442.257 177.412C443.12 176.016 443.797 174.454 444.266 172.781C444.28 172.74 444.294 172.698 444.308 172.664L444.418 172.27C444.418 172.215 444.432 172.166 444.446 172.111C445.054 169.616 445.212 166.955 444.902 164.426C444.853 164.052 444.798 163.686 444.736 163.32C444.142 160.023 442.63 156.609 440.586 153.948C440.565 153.92 440.545 153.893 440.524 153.865L440.206 153.457C440.151 153.409 440.096 153.354 440.048 153.298C439.109 152.186 438.1 151.253 437.051 150.527C436.996 150.486 436.94 150.444 436.885 150.396L436.754 150.313C436.754 150.313 436.699 150.278 436.671 150.257L436.423 150.105C436.423 150.105 436.367 150.078 436.347 150.064C432.735 147.88 427.736 147.037 421.48 147.562H421.418C418.304 147.832 412.559 148.315 410.66 150.942C409.873 152.034 410.122 153.416 410.419 155.019C410.502 155.455 410.578 155.897 410.633 156.326C410.999 159.076 411.337 161.91 411.655 164.744C411.89 166.838 412.104 168.966 412.304 171.067C412.359 171.62 412.421 172.159 412.49 172.692C412.608 173.645 412.718 174.544 412.76 175.511C412.787 176.182 412.773 176.79 412.725 177.37C412.642 178.31 412.677 179.216 412.822 180.066C412.836 180.142 412.842 180.211 412.842 180.287L412.987 180.84L412.967 180.826ZM426.19 179.727C424.726 179.727 423.441 179.319 422.44 178.532C421.266 177.605 420.548 176.209 420.362 174.482L418.898 160.604C418.718 158.897 418.415 156.035 421.446 154.356C422.164 153.955 422.972 153.672 423.835 153.513C424.85 153.326 425.913 153.319 426.99 153.499C428.73 153.782 430.457 154.536 431.838 155.607C434.296 157.528 435.994 160.562 436.492 163.942C436.561 164.439 436.616 164.951 436.643 165.469C436.975 171.814 433.909 178.725 427.419 179.644C426.997 179.707 426.59 179.734 426.19 179.734V179.727ZM425.451 156.125C425.071 156.125 424.705 156.16 424.346 156.222C423.773 156.326 423.255 156.505 422.799 156.761C421.584 157.438 421.439 158.275 421.653 160.306L423.117 174.184C423.186 174.862 423.428 175.781 424.153 176.348C425.002 177.011 426.19 177.011 427.039 176.887C431.886 176.196 434.158 170.68 433.895 165.594C433.875 165.165 433.833 164.737 433.771 164.329C433.377 161.647 432.059 159.263 430.153 157.777C429.131 156.982 427.854 156.422 426.562 156.215C426.19 156.153 425.817 156.125 425.458 156.125H425.451Z" fill="#262626"/>
<path d="M316.796 4.44988C313.254 7.44248 312.756 13.1443 315.463 16.1231C318.777 19.7792 326.179 18.542 328.865 14.0911C330.467 11.4303 330.523 7.38719 328.14 4.76089C325.268 1.60243 320 1.74756 316.803 4.44297L316.796 4.44988Z" fill="#A8A8A8"/>
<path d="M320.842 20.6914C317.963 20.6914 315.394 19.6478 313.668 17.7541C312.004 15.9157 311.155 13.2687 311.341 10.4834C311.548 7.38715 312.964 4.51896 315.235 2.60453C319.592 -1.07228 326.311 -0.823474 329.922 3.14361C333.223 6.77205 332.926 12.0315 330.93 15.349C329.183 18.2448 325.779 20.2698 322.05 20.6361C321.643 20.6776 321.243 20.6983 320.849 20.6983L320.842 20.6914ZM318.349 6.30208C317.079 7.37333 316.278 9.01822 316.161 10.8082C316.064 12.2873 316.458 13.635 317.245 14.5058C318.17 15.5218 319.744 15.9986 321.574 15.8259C323.784 15.6116 325.827 14.4436 326.787 12.854C327.851 11.0916 327.975 8.19578 326.345 6.40575C324.274 4.12502 320.469 4.52587 318.349 6.30899V6.30208Z" fill="#262626"/>
<path d="M293.43 26.9389C296.454 24.9415 299.561 22.9511 302.758 20.9606C306.632 18.5486 310.457 16.254 314.227 14.0701" fill="#A8A8A8"/>
<path d="M293.43 29.3582C292.643 29.3582 291.876 28.9781 291.407 28.2732C290.675 27.1604 290.978 25.6607 292.097 24.9212C295.19 22.8823 298.346 20.8573 301.481 18.9083C305.278 16.5447 309.159 14.2087 313.019 11.9763C314.172 11.3059 315.65 11.6999 316.319 12.861C316.989 14.0151 316.595 15.4942 315.435 16.1646C311.624 18.3693 307.785 20.6776 304.029 23.0137C300.928 24.9419 297.807 26.9462 294.749 28.9574C294.341 29.2269 293.878 29.3582 293.423 29.3582H293.43Z" fill="#262626"/>
<path d="M230.133 132.122C229.594 132.122 229.056 131.943 228.614 131.583C227.578 130.74 227.419 129.22 228.262 128.183C237.887 116.323 256.206 89.9358 267.274 72.7266C278.384 55.4553 292.214 33.3529 300.597 15.5494C301.163 14.3399 302.606 13.8216 303.815 14.3952C305.023 14.962 305.541 16.4064 304.968 17.6159C296.468 35.6751 282.534 57.9572 271.341 75.346C261.667 90.3781 242.624 118.162 232.018 131.231C231.541 131.818 230.844 132.122 230.14 132.122H230.133Z" fill="#262626"/>
<path d="M421.045 118.196C420.41 118.196 419.782 117.947 419.305 117.457C415.163 113.165 410.295 107.836 405.579 102.68C400.055 96.633 394.835 90.9243 391.679 87.8695C390.699 86.9227 389.697 86.1209 387.881 84.6627C383.131 80.8545 373.243 72.9273 344.691 47.231C342.454 45.2199 339.865 43.3815 337.117 41.4394C335.073 39.9949 332.96 38.4952 330.889 36.8503C322.699 30.3329 313.212 25.1149 306.28 21.3068C304.457 20.3046 302.889 19.4407 301.557 18.6735C300.404 18.0032 300.003 16.5241 300.673 15.3699C301.343 14.2158 302.82 13.8149 303.974 14.4853C305.258 15.2248 306.805 16.0818 308.607 17.0701C315.684 20.9612 325.379 26.2898 333.892 33.0629C335.86 34.6248 337.918 36.0831 339.906 37.493C342.772 39.518 345.472 41.4394 347.916 43.6372C376.371 69.2435 386.183 77.1086 390.899 80.8891C392.763 82.3888 393.889 83.2873 395.035 84.3931C398.301 87.5516 403.569 93.3156 409.141 99.4183C413.83 104.546 418.677 109.854 422.772 114.098C423.697 115.059 423.676 116.593 422.716 117.519C422.247 117.975 421.639 118.196 421.039 118.196H421.045Z" fill="#262626"/>
<defs>
<clipPath id="clip0_412_17">
<rect width="622" height="229" fill="white" transform="translate(0 54)"/>
</clipPath>
</defs>
</svg>
