<svg>
<g xmlns="http://www.w3.org/2000/svg" clip-path="url(#clip0_134_1087)">
<path d="M14.3531 54.6771C14.6697 54.6136 15.0072 54.4722 15.2394 54.2404C15.2909 54.1893 15.393 54.0904 15.3529 54.009C15.3128 53.9276 15.1612 53.9454 15.0988 53.958C14.7822 54.0215 14.4447 54.1629 14.2125 54.3947C14.161 54.4458 14.0589 54.5447 14.099 54.6261C14.139 54.7075 14.2907 54.6897 14.3531 54.6771Z" fill="#5E3222"/>
<path d="M57.6511 43.1984C57.839 44.1351 58.0401 45.0424 58.1492 45.9337C58.2653 46.8832 58.3875 47.808 58.4187 48.7055C58.4519 49.6607 58.3102 50.5882 58.2513 51.4865C58.1875 52.4392 58.1063 53.3608 57.9439 54.2485C57.7739 55.1848 57.5473 56.0839 57.2741 56.9483C57.0009 57.8127 56.7128 58.7445 56.3206 59.5685C55.9163 60.4185 55.355 61.1728 54.8454 61.9403C54.3273 62.7205 53.7995 63.4839 53.1816 64.1774C52.5637 64.8709 51.8617 65.4841 51.1492 66.093C50.4368 66.702 49.7478 67.3172 48.9637 67.837C48.1795 68.3568 47.3714 68.7966 46.5295 69.226C45.6876 69.6554 44.8066 69.9059 43.9237 70.2494C43.0409 70.5928 42.2203 70.9865 41.3086 71.2495C40.4222 71.5042 39.5311 71.8148 38.6024 72.0011C37.6738 72.1874 36.7403 72.3182 35.8242 72.4252C34.8834 72.5355 33.9431 72.5688 33.0213 72.5921C32.0743 72.6158 31.1293 72.6814 30.2091 72.6103C29.2668 72.5389 28.367 72.2142 27.4595 72.0401C26.5519 71.866 25.6469 71.6177 24.766 71.3316C23.8851 71.0454 22.9657 70.8204 22.1278 70.4174C21.29 70.0143 20.5082 69.5122 19.7293 68.9922C18.9503 68.4722 18.149 68.0069 17.4481 67.3787C16.7685 66.7698 16.2547 65.977 15.6424 65.2541C15.0302 64.5312 14.512 63.8271 13.9939 63.0288C13.5017 62.2725 13.0058 61.498 12.5813 60.6449C12.1807 59.8403 11.7293 59.0271 11.3915 58.1331C11.0741 57.293 10.8429 56.3932 10.584 55.4739C10.3406 54.608 10.1438 53.706 9.95589 52.7694C9.77855 51.8855 9.66274 50.9689 9.5357 50.0278C9.40866 49.0868 9.15641 48.2242 9.08142 47.2821C9.00643 46.3401 8.97857 45.4434 8.94833 44.5034C8.91808 43.5633 8.93772 42.6587 8.94765 41.7216C8.95818 40.8031 8.92792 39.8709 8.97529 38.9388C9.02326 38.0176 9.05176 37.0861 9.13504 36.1594C9.21833 35.2326 9.41423 34.3225 9.53373 33.4026C9.65323 32.4827 9.83604 31.5704 9.99176 30.6574C10.1475 29.7443 10.214 28.8053 10.4084 27.9033C10.6028 27.0013 10.8605 26.0913 11.0919 25.2007C11.3234 24.3101 11.6289 23.4094 11.9033 22.5353C12.1869 21.6358 12.489 20.7578 12.8129 19.902C13.1369 19.0461 13.4878 18.1504 13.8644 17.3202C14.241 16.4899 14.6551 15.6097 15.0944 14.8155C15.5569 13.979 16.0662 13.1943 16.5803 12.4494C17.1264 11.6588 17.7656 10.9767 18.367 10.3038C19.0101 9.58632 19.5967 8.84729 20.3027 8.28514C21.0522 7.68757 21.8926 7.2585 22.7128 6.85543C23.5331 6.45236 24.4478 6.21235 25.3673 6.02786C26.2869 5.84336 27.196 5.71745 28.1353 5.77375C29.0747 5.83006 30.0052 5.83478 30.9273 6.09696C31.7958 6.34478 32.6351 6.79459 33.5052 7.2084C34.3194 7.59579 35.1383 8.04655 35.9471 8.56524C36.7073 9.05447 37.5308 9.52001 38.2801 10.1134C39.0295 10.7068 39.7107 11.284 40.4076 11.9318C41.1046 12.5797 41.644 13.303 42.2937 13.9917C42.9434 14.6804 43.4832 15.3974 44.0915 16.1164C44.6998 16.8354 45.3395 17.4821 45.9088 18.2278C46.4671 18.9583 46.9541 19.7518 47.4869 20.5205C48.0196 21.2891 48.527 22.0503 49.0253 22.8368C49.5236 23.6233 50.1036 24.3511 50.569 25.1552C51.0341 25.9579 51.3825 26.8262 51.8144 27.6449C52.2463 28.4636 52.6505 29.302 53.0501 30.1334C53.4498 30.9649 53.9018 31.7889 54.266 32.6337C54.6367 33.4945 54.9925 34.352 55.3178 35.2078C55.6431 36.0636 55.9358 36.9698 56.2191 37.8371C56.5024 38.7045 56.7786 39.6234 57.0144 40.4987C57.2602 41.4159 57.4759 42.3172 57.6532 43.2011L57.6511 43.1984Z" fill="#FBF7CC"/>
<path d="M57.0261 43.5058C57.3215 44.978 57.5757 46.4426 57.7143 47.9384C57.8529 49.4341 57.6838 50.8331 57.5707 52.2899C57.4563 53.7643 57.2083 55.212 56.7972 56.6361C56.3861 58.0601 55.948 59.4205 55.1773 60.6546C54.4066 61.8888 53.6435 63.0507 52.7233 64.1078C51.803 65.1648 50.594 66.1637 49.4571 67.0727C48.3203 67.9818 47.0613 68.7161 45.7609 69.2359C45.0497 69.5198 44.3186 69.7512 43.6099 70.0393C42.9423 70.3114 42.2823 70.6054 41.5928 70.8237C40.1531 71.2805 38.7179 71.6579 37.2203 71.8736C35.7458 72.0863 34.276 72.1411 32.7902 72.1945C32.051 72.2204 31.2997 72.2644 30.5628 72.1911C29.8259 72.1177 29.1239 71.9023 28.409 71.7335C27.6942 71.5647 27.0173 71.4432 26.3296 71.2517C25.6418 71.0602 24.9045 70.819 24.194 70.6006C22.8079 70.1727 21.6039 69.4838 20.4036 68.6875C19.8135 68.2959 19.2073 67.9264 18.6382 67.5056C18.0692 67.0847 17.5903 66.6002 17.1517 66.0481C16.2578 64.9235 15.3416 63.8223 14.5579 62.616C13.7463 61.3651 13.0319 60.0618 12.4 58.7121C11.7775 57.3778 11.3969 55.9306 11.0385 54.5072C10.6801 53.0838 10.4146 51.5555 10.2136 50.0566C10.1198 49.3599 9.97294 48.6755 9.85017 47.9846C9.71046 47.2014 9.67426 46.4054 9.63989 45.6105C9.57291 44.069 9.59421 42.5333 9.59207 40.9914C9.59169 39.5134 9.62844 38.039 9.7285 36.5644C9.82857 35.0898 10.0857 33.6245 10.3282 32.1731C10.4536 31.4246 10.6048 30.6788 10.7123 29.9276C10.8197 29.1764 10.8884 28.4613 11.0375 27.7363C11.337 26.2845 11.7417 24.8366 12.1912 23.4221C13.0944 20.583 14.0837 17.7704 15.4716 15.1211C16.147 13.8308 16.9357 12.5601 17.8771 11.4423C18.3325 10.9022 18.8165 10.3862 19.2829 9.85326C19.7493 9.32036 20.1937 8.79656 20.7416 8.36185C21.7903 7.52695 23.1271 6.89628 24.4288 6.58019C25.1584 6.404 25.9044 6.25433 26.6527 6.1952C27.401 6.13606 28.0971 6.18782 28.8155 6.23983C29.5338 6.29183 30.2491 6.39938 30.9267 6.65098C31.6043 6.90258 32.2386 7.23818 32.8851 7.5478C34.217 8.18748 35.4718 8.96345 36.7083 9.76663C39.17 11.3643 41.1412 13.5797 42.978 15.8283C43.9143 16.9742 44.9581 18.0247 45.7983 19.2447C46.6386 20.4647 47.4688 21.6821 48.2643 22.9236C48.6748 23.5646 49.1209 24.178 49.5411 24.8123C49.9404 25.4132 50.27 26.0453 50.5794 26.6956C51.2395 28.0835 51.9381 29.4575 52.6213 30.8345C53.294 32.1902 53.9247 33.5495 54.4798 34.9586C55.0349 36.3676 55.5305 37.8749 55.978 39.3557C56.3898 40.7213 56.7465 42.1043 57.0285 43.5022C57.0987 43.8521 58.3772 43.3571 58.281 42.8853C57.6633 39.8303 56.7281 36.803 55.5607 33.9132C54.9786 32.472 54.2929 31.0986 53.6208 29.6989C52.9382 28.2778 52.2388 26.86 51.5273 25.4525C51.1832 24.7716 50.7638 24.1418 50.3281 23.5169C49.881 22.8754 49.4638 22.2169 49.0336 21.5642C48.2028 20.3047 47.3873 19.0028 46.4581 17.8132C45.9895 17.2137 45.4653 16.6614 44.9655 16.0885C44.4658 15.5157 43.9725 14.8804 43.4651 14.2855C42.5024 13.1575 41.5159 12.0217 40.4029 11.0369C38.1517 9.04397 35.5743 7.50093 32.8416 6.24167C32.1665 5.93151 31.4712 5.66305 30.7338 5.53956C29.9963 5.41608 29.2317 5.39376 28.4814 5.35602C26.9582 5.27877 25.3761 5.58678 23.9257 6.03783C22.4752 6.48889 21.0381 7.25892 19.8675 8.19673C19.2782 8.66957 18.7749 9.23969 18.2805 9.80647C17.7861 10.3732 17.3033 10.8875 16.8336 11.443C14.864 13.7666 13.5201 16.611 12.4312 19.4247C11.8743 20.8638 11.3949 22.3267 10.9299 23.7976C10.4648 25.2685 10.0427 26.7481 9.74138 28.2458C9.59164 28.9913 9.52195 29.7491 9.40995 30.5011C9.29795 31.2532 9.14609 31.996 9.02252 32.7457C8.77446 34.2641 8.51421 35.7928 8.42321 37.3284C8.33159 38.8687 8.31912 40.401 8.30513 41.9415C8.29076 43.5354 8.29619 45.1253 8.38624 46.7187C8.47451 48.2716 8.82492 49.7892 9.04014 51.3276C9.25537 52.866 9.55167 54.3191 9.95542 55.7789C10.3592 57.2387 10.8049 58.687 11.5044 60.0655C12.2038 61.444 12.9268 62.7268 13.7977 63.9736C14.2375 64.6024 14.7214 65.191 15.2053 65.7874C15.643 66.3272 16.0448 66.8931 16.5242 67.3962C17.0323 67.9313 17.6345 68.3597 18.2514 68.7663C18.8682 69.1728 19.4647 69.5725 20.0822 69.9586C22.6118 71.5394 25.6007 72.1103 28.4714 72.7942C29.9815 73.1534 31.5179 73.0366 33.0559 72.99C34.5938 72.9435 36.1264 72.7913 37.6469 72.5318C39.1674 72.2722 40.7357 71.8399 42.1889 71.2847C42.9025 71.0129 43.5978 70.6976 44.315 70.436C45.0691 70.1608 45.8337 69.907 46.5565 69.5548C47.9601 68.87 49.3174 68.0657 50.525 67.075C51.7325 66.0843 52.9294 65.0957 53.9226 63.9205C54.8673 62.8037 55.7013 61.538 56.4635 60.293C57.2257 59.048 57.6575 57.6324 58.0628 56.2425C58.4898 54.7792 58.7421 53.2898 58.8589 51.7726C58.9758 50.2475 59.1291 48.7623 58.9733 47.2355C58.8243 45.7669 58.5724 44.33 58.2807 42.8838C58.2105 42.5339 56.932 43.0289 57.0282 43.5007L57.0261 43.5058Z" fill="#6E3B26"/>
<path d="M49.7038 45.7987C49.8871 46.7128 50.073 47.5918 50.1582 48.4502C50.2511 49.3793 50.3368 50.28 50.3212 51.1414C50.3036 52.0722 50.0983 52.9591 49.961 53.8136C49.8138 54.7296 49.6346 55.605 49.3603 56.432C49.0716 57.3059 48.7139 58.1276 48.2947 58.9037C47.8755 59.6797 47.4204 60.4975 46.86 61.1936C46.2964 61.8967 45.5858 62.4676 44.906 63.0653C44.2261 63.663 43.5417 64.2303 42.7686 64.718C41.9954 65.2058 41.1959 65.5702 40.358 65.9485C39.5479 66.3151 38.7301 66.7066 37.8524 66.9816C36.9748 67.2565 36.1198 67.4469 35.217 67.628C34.3142 67.8092 33.4077 67.8137 32.5215 67.8958C31.6352 67.9779 30.713 68.1253 29.8242 68.0997C28.9353 68.074 27.9922 68.0781 27.1136 67.9296C26.2349 67.7811 25.3299 67.5406 24.4822 67.2541C23.6344 66.9676 22.8045 66.5724 22.0132 66.1412C21.2219 65.71 20.42 65.2809 19.7114 64.7092C19.0028 64.1374 18.5209 63.3852 17.9175 62.6904C17.3451 62.0317 16.8397 61.3125 16.352 60.5238C15.8957 59.7885 15.3681 59.0612 14.9928 58.2092C14.6446 57.4208 14.3823 56.5633 14.11 55.6718C13.8574 54.847 13.5178 54.0067 13.3344 53.0926C13.151 52.1786 13.1917 51.2133 13.079 50.2333C12.9742 49.3082 12.901 48.3594 12.8571 47.3829C12.8132 46.4063 12.7534 45.4926 12.7661 44.5219C12.7791 43.5763 12.7306 42.6164 12.7957 41.654C12.8608 40.6917 13.0119 39.756 13.1281 38.8038C13.2446 37.8532 13.4037 36.9096 13.5701 35.9709C13.7365 35.0322 13.9663 34.0933 14.185 33.1707C14.4089 32.2267 14.5032 31.2601 14.7801 30.3588C15.0569 29.4576 15.4042 28.5202 15.7455 27.6484C16.1049 26.7321 16.5242 25.8619 16.9453 25.0321C17.3947 24.1464 17.8319 23.2789 18.3516 22.5141C18.9136 21.6843 19.4996 20.8951 20.142 20.2375C20.8436 19.5193 21.665 18.9716 22.4594 18.4953C23.3005 17.9908 24.2108 17.6732 25.1546 17.4838C26.0985 17.2944 27.0716 17.1714 28.0419 17.3109C28.9601 17.4436 29.8912 17.7589 30.8156 18.1509C31.662 18.5098 32.4928 19.0116 33.3314 19.5604C34.1043 20.0659 34.8731 20.6459 35.6294 21.2897C36.338 21.8928 37.0508 22.5406 37.7358 23.2473C38.4208 23.954 39.0474 24.6222 39.6717 25.3741C40.2961 26.1259 40.8465 26.8722 41.4173 27.6567C41.988 28.4413 42.4458 29.2626 42.9663 30.0729C43.4819 30.8748 44.0895 31.63 44.5622 32.4625C45.0349 33.295 45.404 34.1874 45.8298 35.0387C46.2556 35.89 46.5945 36.798 46.9716 37.6669C47.3577 38.5575 47.7786 39.4161 48.1015 40.299C48.4243 41.1819 48.8942 42.0793 49.1531 42.9751C49.4287 43.9224 49.5173 44.8931 49.6986 45.7966L49.7038 45.7987Z" fill="white"/>
<path d="M47.1796 60.1047C47.4689 60.0466 47.8584 59.8649 47.9851 59.5806C48.1118 59.2963 47.7611 59.2615 47.5663 59.3006C47.277 59.3586 46.8875 59.5404 46.7608 59.8247C46.6341 60.109 46.9848 60.1438 47.1796 60.1047Z" fill="#F0AF7B"/>
<path d="M48.3512 53.3205C48.6603 53.2585 49.0422 53.094 49.1406 52.7636C49.2301 52.4679 48.9201 52.3042 48.6583 52.3567C48.3492 52.4187 47.9673 52.5832 47.8689 52.9137C47.7794 53.2093 48.0894 53.3731 48.3512 53.3205Z" fill="#F0AF7B"/>
<path d="M42.9831 57.9168C43.2769 57.8578 43.664 57.6797 43.7855 57.3855C43.907 57.0912 43.5634 57.0362 43.3533 57.0784C43.0595 57.1373 42.6724 57.3154 42.5509 57.6097C42.4294 57.9039 42.773 57.9589 42.9831 57.9168Z" fill="#F0AF7B"/>
<path d="M51.3109 55.7579C51.5926 55.7013 51.9803 55.5106 52.1268 55.2537C52.2814 54.9826 51.8948 55.0209 51.7456 55.0509C51.4639 55.1074 51.0762 55.2982 50.9298 55.555C50.7751 55.8261 51.1618 55.7878 51.3109 55.7579Z" fill="#F0AF7B"/>
<path d="M49.1805 48.163C49.4712 48.1047 49.8299 47.8005 49.8007 47.4816C49.7683 47.1303 49.3622 47.1114 49.0973 47.1645C48.8065 47.2229 48.4479 47.5271 48.477 47.846C48.5095 48.1972 48.9156 48.2162 49.1805 48.163Z" fill="#F0AF7B"/>
<path d="M17.4638 21.0917C17.3897 21.2039 17.3323 21.3205 17.288 21.4471C17.2578 21.5331 17.2278 21.6207 17.1839 21.7017L17.2498 21.5881C17.2428 21.6005 17.2342 21.6132 17.2257 21.6259C17.1833 21.6752 17.1565 21.7308 17.1485 21.7936C17.1286 21.8446 17.1322 21.8941 17.1568 21.9457C17.1826 21.9954 17.221 22.0285 17.273 22.0432C17.3284 22.0744 17.388 22.0876 17.4538 22.0838L17.6051 22.0723C17.7229 22.0518 17.8359 22.015 17.9437 21.9604L18.1039 21.867C18.1947 21.8065 18.2736 21.7341 18.3386 21.6474C18.4127 21.5352 18.4701 21.4186 18.5144 21.292C18.5446 21.2059 18.5745 21.1183 18.6185 21.0373L18.5526 21.151C18.5596 21.1386 18.5681 21.1259 18.5767 21.1132C18.619 21.0639 18.6459 21.0083 18.6539 20.9455C18.6737 20.8944 18.6701 20.845 18.6455 20.7934C18.6197 20.7437 18.5814 20.7106 18.5294 20.6959C18.474 20.6646 18.4143 20.6515 18.3486 20.6553L18.1973 20.6668C18.0795 20.6873 17.9665 20.7241 17.8587 20.7787L17.6984 20.872C17.6076 20.9326 17.5287 21.0049 17.4638 21.0917Z" fill="#F0AF7B"/>
<path d="M20.871 16.2315C20.8725 16.239 20.8741 16.2466 20.8725 16.2547L20.8726 16.1998C20.8729 16.2327 20.8619 16.2647 20.8539 16.2961C20.8414 16.3442 20.8358 16.3955 20.844 16.444C20.8656 16.4727 20.8951 16.4856 20.9307 16.4816C20.9831 16.4899 21.0348 16.4874 21.0872 16.4721C21.1618 16.4572 21.2352 16.4362 21.3055 16.4079C21.3917 16.3797 21.4733 16.3445 21.5537 16.3032L21.7167 16.2156C21.8075 16.1629 21.8922 16.1035 21.9723 16.0372L22.054 15.9549C22.0927 15.9189 22.1064 15.8769 22.0983 15.8284C22.0968 15.8208 22.0953 15.8133 22.0968 15.8051L22.0967 15.8601C22.0965 15.8272 22.1074 15.7952 22.1154 15.7637C22.1279 15.7157 22.1335 15.6644 22.1253 15.6158C22.1037 15.5872 22.0742 15.5743 22.0386 15.5783C21.9863 15.57 21.9345 15.5725 21.8821 15.5877C21.8075 15.6027 21.7341 15.6237 21.6638 15.6519C21.5776 15.6802 21.496 15.7154 21.4156 15.7567L21.2526 15.8443C21.1618 15.897 21.0771 15.9564 20.997 16.0227L20.9153 16.1049C20.8766 16.141 20.8629 16.1829 20.871 16.2315Z" fill="#F0AF7B"/>
<path d="M16.2082 25.6583C16.2348 25.7911 16.2782 25.9204 16.3048 26.0532C16.3279 26.0893 16.3605 26.1095 16.4006 26.1124C16.4548 26.1298 16.509 26.1315 16.5653 26.1202C16.6427 26.1109 16.7166 26.0929 16.7906 26.0671C16.8774 26.0419 16.9612 26.0094 17.0416 25.9681L17.204 25.8775C17.2944 25.8233 17.3764 25.7582 17.452 25.6849L17.5282 25.5912C17.5648 25.5446 17.5749 25.4924 17.5576 25.4378C17.531 25.3051 17.4876 25.1757 17.4609 25.043C17.4379 25.0068 17.4053 24.9867 17.3651 24.9837C17.311 24.9664 17.2568 24.9647 17.2005 24.976C17.1231 24.9852 17.0491 25.0032 16.9751 25.029C16.8883 25.0543 16.8046 25.0868 16.7242 25.128L16.5618 25.2187C16.4713 25.2729 16.3894 25.338 16.3138 25.4112L16.2376 25.505C16.201 25.5515 16.1909 25.6038 16.2082 25.6583Z" fill="#F0AF7B"/>
<path d="M20.3193 21.9718C20.6284 21.9098 21.01 21.7438 21.1087 21.4149C21.1983 21.1192 20.8889 20.9585 20.627 21.011C20.318 21.073 19.9364 21.239 19.8376 21.5679C19.7481 21.8636 20.0575 22.0244 20.3193 21.9718Z" fill="#F0AF7B"/>
<path d="M22.3751 64.4541C22.6917 64.3905 23.0283 64.2446 23.2614 64.0173C23.3117 63.968 23.4171 63.87 23.3774 63.7901C23.3376 63.7102 23.185 63.7314 23.1257 63.7433C22.809 63.8068 22.4725 63.9528 22.2393 64.18C22.189 64.2294 22.0836 64.3274 22.1234 64.4073C22.1632 64.4872 22.3157 64.466 22.3751 64.4541Z" fill="#F0AF7B"/>
<path d="M16.1617 54.3139C16.4783 54.2503 16.8158 54.1089 17.048 53.8771C17.0995 53.826 17.2016 53.7271 17.1615 53.6457C17.1214 53.5643 16.9698 53.5822 16.9074 53.5947C16.5907 53.6582 16.2533 53.7997 16.0211 54.0314C15.9696 54.0825 15.8675 54.1815 15.9075 54.2629C15.9476 54.3443 16.0992 54.3264 16.1617 54.3139Z" fill="#F0AF7B"/>
<path d="M20.9228 58.5255C21.2029 58.4693 21.5904 58.2771 21.741 58.0256C21.9012 57.7581 21.506 57.8092 21.3674 57.8369C21.0873 57.8932 20.6999 58.0854 20.5492 58.3369C20.3891 58.6044 20.7843 58.5533 20.9228 58.5255Z" fill="#F0AF7B"/>
<path d="M17.5151 57.0157C17.815 56.9555 18.1631 56.6457 18.1275 56.3186C18.0896 55.9637 17.6912 55.9197 17.4126 55.9756C17.1126 56.0358 16.7646 56.3457 16.8002 56.6728C16.8381 57.0276 17.2365 57.0716 17.5151 57.0157Z" fill="#F0AF7B"/>
<path d="M40.6916 12.5685C39.124 13.4933 37.7764 14.7883 36.7819 16.3043C36.2885 17.0576 35.8778 17.868 35.5672 18.7117C35.2108 19.6823 35.0072 20.696 34.8307 21.7105C34.5 23.5985 34.2289 25.5624 33.1128 27.1828C32.6295 27.8838 31.9938 28.5198 31.2055 28.8772C30.2723 29.3013 29.2307 29.2248 28.2527 29.4806C26.2932 29.9914 24.6512 31.5008 23.9598 33.3827C23.8218 33.7603 24.5182 34.0819 24.6697 33.6687C25.2624 32.0529 26.6372 30.7587 28.2807 30.2203C29.2482 29.9038 30.2913 29.9879 31.2521 29.6461C32.0844 29.3504 32.7922 28.7973 33.3583 28.1299C34.6178 26.6486 35.0624 24.744 35.3864 22.8856C35.5656 21.8611 35.7245 20.8298 36.0079 19.8268C36.2531 18.9648 36.5977 18.1331 37.0431 17.3534C38.0372 15.6147 39.473 14.1514 41.2066 13.1304C41.3781 13.0301 41.3178 12.777 41.2102 12.659C41.0761 12.5117 40.8646 12.4679 40.6919 12.57L40.6916 12.5685Z" fill="#6E3B26"/>
<path d="M32.0258 28.7506C31.6421 29.0645 31.4691 29.4805 31.5059 29.972C31.5458 30.5101 31.7897 30.9601 32.0802 31.4055C32.419 31.9259 32.8143 32.4758 32.802 33.1247C32.7897 33.7736 32.5229 34.3936 32.269 34.9592C31.9796 35.6009 31.617 36.2087 31.195 36.7735C31.0889 36.9156 31.326 36.9292 31.4088 36.9158C31.5821 36.8873 31.7682 36.7966 31.8743 36.6545C32.5862 35.7036 33.1985 34.5718 33.4592 33.4086C33.5984 32.7845 33.477 32.2188 33.1581 31.6709C32.8771 31.186 32.5004 30.7453 32.3257 30.2061C32.1956 29.8023 32.1148 29.1548 32.4944 28.8448C32.5804 28.7758 32.6956 28.6476 32.5374 28.593C32.3913 28.5439 32.1361 28.661 32.0273 28.7503L32.0258 28.7506Z" fill="#6E3B26"/>
<path d="M10.6391 53.836C12.5895 53.5325 14.5402 53.2306 16.4921 52.9268C17.4613 52.7763 18.4304 52.6258 19.3995 52.4753C20.2949 52.3364 21.2323 52.2488 21.9107 51.5886C22.2325 51.2745 22.51 50.9129 22.7992 50.5709C23.1129 50.2004 23.4251 49.8302 23.7387 49.4598C24.339 48.7494 24.9334 48.0339 25.5431 47.331C26.5874 46.1267 27.7898 44.8499 29.3481 44.3285C30.2014 44.0428 31.1296 44.1939 32.0124 44.1972C32.9649 44.2007 33.9936 44.0947 34.8119 43.5712C34.878 43.5297 34.5465 43.535 34.531 43.5366C34.3809 43.5541 34.1979 43.5736 34.0675 43.6578C33.3854 44.0943 32.6105 44.0286 31.834 44.0024C30.9664 43.9725 30.1089 43.9845 29.2606 44.1923C27.6881 44.58 26.4397 45.6276 25.3653 46.7846C24.7835 47.4128 24.2399 48.0742 23.6869 48.728C23.0764 49.4499 22.4673 50.1715 21.8567 50.8933C21.5842 51.2163 21.322 51.5592 20.995 51.8319C20.6681 52.1046 20.2975 52.2072 19.8752 52.2731C18.9323 52.42 17.9875 52.5656 17.0446 52.7124C14.9021 53.045 12.7611 53.3773 10.6186 53.7099C10.5741 53.7172 10.234 53.7666 10.2464 53.8363C10.2588 53.906 10.6163 53.8405 10.6394 53.8375L10.6391 53.836Z" fill="#6E3B26"/>
<path d="M24.4393 48.9567C25.2304 48.9298 26.0194 49.0179 26.7798 49.2403C27.5403 49.4627 28.2317 49.87 29.0115 50.0148C29.8523 50.1725 30.6824 49.9526 31.5109 49.8115C32.3394 49.6704 33.1233 49.6229 33.9348 49.6499C34.8629 49.6818 35.7817 49.8176 36.6773 50.0584C37.1627 50.1885 37.2518 49.4881 36.8118 49.3708C35.1916 48.9365 33.4999 48.8162 31.8308 49.0224C31.0149 49.1233 30.1924 49.3966 29.3651 49.3461C28.5377 49.2955 27.8567 48.8532 27.1102 48.6138C26.2351 48.3328 25.3071 48.2068 24.3884 48.2373C23.8961 48.2545 23.9991 48.9729 24.4396 48.9583L24.4393 48.9567Z" fill="#6E3B26"/>
<path d="M58.027 48.1504C57.0529 48.371 56.058 48.5188 55.1084 48.838C54.2433 49.1277 53.4741 49.5723 52.7629 50.1402C51.3622 51.2575 50.2552 52.7176 48.6916 53.6307C47.8652 54.1135 46.8986 54.4659 45.9304 54.3055C45.8306 54.2895 45.5436 54.2639 45.5178 54.4118C45.4921 54.5598 45.779 54.6325 45.8707 54.647C47.792 54.9645 49.5411 53.9655 50.9222 52.7266C52.3032 51.4877 53.469 50.0362 55.1964 49.324C56.2569 48.8869 57.4126 48.735 58.5261 48.4834C58.6793 48.4495 58.6846 48.326 58.5678 48.2412C58.4252 48.138 58.1966 48.1117 58.027 48.1504Z" fill="#6E3B26"/>
</g>
<defs xmlns="http://www.w3.org/2000/svg">
<clipPath id="clip0_134_1087">
<rect width="50" height="68" fill="white" transform="translate(0.800781 10.582) rotate(-11.345)"/>
</clipPath>
</defs>
</svg>