<svg width="38" height="188" viewBox="0 0 38 188" fill="none" xmlns="http://www.w3.org/2000/svg">
<path d="M19 4H22.5V0.5H19V4ZM0.333333 169C0.333333 179.309 8.69068 187.667 19 187.667C29.3093 187.667 37.6667 179.309 37.6667 169C37.6667 158.691 29.3093 150.333 19 150.333C8.69068 150.333 0.333333 158.691 0.333333 169ZM3 7.5H7V0.5H3V7.5ZM15 7.5H19V0.5H15V7.5ZM15.5 4V9.15625H22.5V4H15.5ZM15.5 19.4688V29.7812H22.5V19.4688H15.5ZM15.5 40.0938V50.4062H22.5V40.0938H15.5ZM15.5 60.7188V71.0312H22.5V60.7188H15.5ZM15.5 81.3438V91.6562H22.5V81.3438H15.5ZM15.5 101.969V112.281H22.5V101.969H15.5ZM15.5 122.594V132.906H22.5V122.594H15.5ZM15.5 143.219V153.531H22.5V143.219H15.5ZM15.5 163.844V169H22.5V163.844H15.5Z" fill="black"/>
</svg>
