<svg width="243" height="46" viewBox="0 0 243 46" fill="none" xmlns="http://www.w3.org/2000/svg">
<g clip-path="url(#clip0_543_2)">
<path d="M115.967 11.4569C118.387 11.4569 120.808 11.4569 123.231 11.4569C125.715 11.4569 127.49 13.232 127.492 15.7135C127.492 20.2519 127.492 24.7903 127.492 29.3287C127.492 31.9163 125.726 33.6804 123.145 33.6823H108.775C106.208 33.6823 104.436 31.9328 104.428 29.3854C104.417 24.808 104.417 20.233 104.428 15.6604C104.428 13.2393 106.262 11.4514 108.696 11.4514C111.131 11.4514 113.542 11.4569 115.967 11.4569ZM116.015 15.4152C114.48 15.4152 112.946 15.4152 111.413 15.4152C109.881 15.4152 108.759 16.504 108.751 18.0595C108.74 20.9387 108.74 23.8167 108.751 26.6935C108.751 28.3057 109.868 29.3854 111.49 29.3872C114.466 29.3872 117.442 29.3872 120.419 29.3872C122.091 29.3872 123.169 28.3313 123.169 26.6752C123.178 23.8155 123.178 20.9552 123.169 18.0943C123.169 16.4857 122.096 15.4207 120.496 15.4152C119.011 15.4097 117.513 15.4152 116.015 15.4152Z" fill="url(#paint0_linear_543_2)"/>
<path d="M242.117 24.0527V32.6335C242.117 33.4936 241.906 33.7004 241.033 33.7004H238.758C238.041 33.7004 237.799 33.4625 237.799 32.7342C237.799 30.5565 237.799 28.3788 237.799 26.2011C237.799 25.2605 237.616 25.0793 236.662 25.0793H224.562C223.646 25.0793 223.462 25.2751 223.462 26.1773C223.462 28.3367 223.462 30.4961 223.462 32.6555C223.462 33.4808 223.237 33.7059 222.416 33.7078H220.252C219.361 33.7078 219.152 33.4991 219.152 32.5878V26.278C219.152 22.8461 219.152 19.4136 219.152 15.9805C219.152 13.166 220.863 11.4568 223.671 11.4568C228.366 11.4568 233.062 11.4568 237.761 11.4568C240.346 11.4568 242.104 13.2118 242.108 15.803C242.119 18.5541 242.122 21.304 242.117 24.0527ZM230.616 21.8567H236.765C237.599 21.8567 237.796 21.6554 237.797 20.8081C237.797 19.776 237.797 18.7438 237.797 17.7099C237.786 16.0794 236.778 15.0619 235.139 15.0289C234.529 15.018 233.92 15.0289 233.306 15.0289C230.922 15.0289 228.539 15.018 226.156 15.0289C224.482 15.0399 223.464 16.072 223.459 17.7282C223.459 18.7786 223.459 19.829 223.459 20.8795C223.459 21.6298 223.69 21.853 224.458 21.8548L230.616 21.8567Z" fill="url(#paint1_linear_543_2)"/>
<path d="M160.31 24.029C160.31 21.3145 160.31 18.6012 160.31 15.8892C160.31 13.1588 162.007 11.4642 164.732 11.4624H178.709C181.223 11.4624 182.984 13.1771 182.994 15.6879C183.01 21.3737 182.994 27.0577 182.994 32.7416C182.994 33.4828 182.77 33.7042 182.042 33.7097C181.246 33.7097 180.453 33.7097 179.659 33.7097C178.991 33.7097 178.76 33.4645 178.76 32.8148C178.76 30.5822 178.76 28.349 178.76 26.1152C178.76 25.3173 178.539 25.0886 177.748 25.0886C173.7 25.0886 169.651 25.0886 165.601 25.0886C164.792 25.0886 164.561 25.3283 164.559 26.1555C164.559 28.2783 164.559 30.4011 164.559 32.5239C164.559 33.5889 164.429 33.7152 163.338 33.7152C162.634 33.7152 161.932 33.7152 161.23 33.7152C160.528 33.7152 160.313 33.4901 160.313 32.7782C160.309 29.8612 160.307 26.9448 160.31 24.029ZM171.614 21.8586H177.765C178.515 21.8586 178.749 21.6207 178.751 20.8649C178.751 19.8511 178.751 18.8373 178.751 17.8235C178.751 16.0539 177.745 15.0382 175.977 15.0309C174.406 15.0309 172.837 15.0309 171.268 15.0309C169.9 15.0309 168.534 15.0144 167.166 15.0309C165.57 15.0565 164.558 16.1015 164.55 17.6972C164.55 18.7659 164.55 19.8353 164.55 20.9052C164.55 21.6244 164.787 21.8531 165.518 21.855L171.614 21.8586Z" fill="url(#paint2_linear_543_2)"/>
<path d="M84.2082 33.7004C81.878 33.7004 79.5497 33.7004 77.2195 33.7004C76.7795 33.7004 76.3395 33.7114 76.1599 33.2063C75.9802 32.7012 76.3432 32.4322 76.675 32.1522C77.5734 31.3854 78.4827 30.6278 79.3554 29.8318C79.5219 29.6758 79.7184 29.5553 79.9331 29.4776C80.1477 29.3999 80.3759 29.3666 80.6039 29.3798C84.0982 29.3932 87.5919 29.3932 91.085 29.3798C92.823 29.3798 93.9634 27.6888 93.285 26.1425C92.8615 25.1891 92.0915 24.7261 91.041 24.7261C88.0087 24.7261 84.977 24.7261 81.9459 24.7261C81.0508 24.7368 80.1628 24.5668 79.3351 24.2265C78.5075 23.8861 77.7573 23.3823 77.1296 22.7452C76.5018 22.1082 76.0095 21.3512 75.6822 20.5195C75.3549 19.6879 75.1994 18.7988 75.2249 17.9057C75.2872 14.4524 78.1784 11.5007 81.6415 11.4695C86.3367 11.4238 91.0319 11.4586 95.727 11.4531C96.1157 11.4531 96.4897 11.561 96.5374 11.9582C96.5481 12.1134 96.5279 12.2691 96.4779 12.4165C96.4278 12.5638 96.349 12.6998 96.2459 12.8164C95.3439 13.715 94.4125 14.5824 93.4445 15.415C93.1766 15.6273 92.8461 15.7456 92.504 15.7517C88.9547 15.7755 85.4054 15.7627 81.856 15.77C80.855 15.77 80.107 16.2422 79.7092 17.1554C79.5193 17.5504 79.4508 17.9927 79.5125 18.4265C79.5742 18.8603 79.7632 19.2662 80.0557 19.5929C80.5452 20.1858 81.1979 20.4292 81.966 20.4256C85.0155 20.4182 88.0655 20.4182 91.1162 20.4256C91.9961 20.4284 92.8667 20.6055 93.6775 20.9468C94.4882 21.2881 95.223 21.7867 95.8392 22.4137C96.4554 23.0407 96.9408 23.7836 97.2671 24.5993C97.5933 25.415 97.7541 26.2873 97.74 27.1655C97.7144 30.7852 94.6655 33.7388 91.0154 33.7059C88.7512 33.6839 86.4779 33.7004 84.2082 33.7004Z" fill="url(#paint3_linear_543_2)"/>
<path d="M189.711 22.5906C189.711 19.2307 189.711 15.8715 189.711 12.5128C189.711 11.6326 189.894 11.4496 190.791 11.4478C191.64 11.4478 192.492 11.4697 193.341 11.4386C193.553 11.4238 193.765 11.4632 193.958 11.5532C194.15 11.6432 194.317 11.7807 194.441 11.9528C198.401 16.6816 202.367 21.4054 206.339 26.1244C206.541 26.3659 206.706 26.6532 206.963 26.8252C207.067 26.9004 207.187 26.9533 207.313 26.9807C207.439 27.0081 207.569 27.0094 207.696 26.9845C207.901 26.9076 208.044 26.6056 208.154 26.3751C208.22 26.2396 208.171 26.0475 208.171 25.881V12.5915C208.171 11.6472 208.367 11.4496 209.295 11.4478H211.458C212.219 11.4478 212.452 11.6765 212.453 12.4414C212.453 15.0998 212.453 17.7582 212.453 20.4166V32.5422C212.453 33.5249 212.27 33.7097 211.293 33.7097C210.406 33.7097 209.518 33.7317 208.631 33.6951C208.37 33.6768 208.126 33.5635 207.943 33.3766C203.811 28.6003 199.687 23.8161 195.572 19.024C195.523 18.9672 195.473 18.9123 195.427 18.8556C195.185 18.5463 194.905 18.3066 194.483 18.4621C194.061 18.6177 193.984 19.002 193.984 19.4156C193.984 23.7893 193.984 28.1636 193.984 32.5385C193.984 33.5798 193.847 33.7134 192.798 33.7134C192.078 33.7134 191.355 33.7134 190.635 33.7134C189.914 33.7134 189.718 33.4938 189.718 32.7782C189.711 29.3842 189.708 25.9883 189.711 22.5906Z" fill="url(#paint4_linear_543_2)"/>
<path d="M134.41 22.5795C134.41 19.2562 134.41 15.9336 134.41 12.6115C134.41 11.6288 134.593 11.4513 135.572 11.4495H137.626C138.409 11.4495 138.619 11.6508 138.621 12.4267C138.621 14.4763 138.621 16.5241 138.621 18.5737V28.7082C138.621 29.8922 138.751 30.024 139.905 30.024H153.398C153.581 30.0171 153.765 30.0201 153.948 30.0331C154.586 30.099 154.887 30.7139 154.47 31.197C153.785 31.993 153.055 32.7562 152.313 33.501C152.123 33.6443 151.89 33.7169 151.653 33.7059C146.216 33.7169 140.777 33.7169 135.336 33.7059C134.637 33.7059 134.403 33.4552 134.401 32.7067C134.405 29.3298 134.408 25.954 134.41 22.5795Z" fill="url(#paint5_linear_543_2)"/>
<g clip-path="url(#clip1_543_2)">
<path d="M9.58356 35.1088C9.93961 34.7546 10.4292 34.548 10.9484 34.548H58.0357C58.8961 34.548 59.3263 35.581 58.7181 36.1861L49.4163 45.4392C49.0603 45.7934 48.5707 46 48.0515 46H0.964249C0.103801 46 -0.326423 44.967 0.281825 44.3619L9.58356 35.1088Z" fill="url(#paint6_linear_543_2)"/>
<path d="M9.58356 0.560796C9.95444 0.206609 10.444 0 10.9484 0H58.0357C58.8961 0 59.3263 1.03304 58.7181 1.63811L49.4163 10.8912C49.0603 11.2454 48.5707 11.452 48.0515 11.452H0.964249C0.103801 11.452 -0.326423 10.419 0.281825 9.81392L9.58356 0.560796Z" fill="url(#paint7_linear_543_2)"/>
<path d="M49.4163 17.7241C49.0603 17.3699 48.5707 17.1633 48.0515 17.1633H0.964249C0.103801 17.1633 -0.326423 18.1963 0.281825 18.8014L9.58356 28.0545C9.93961 28.4087 10.4292 28.6153 10.9484 28.6153H58.0357C58.8961 28.6153 59.3263 27.5823 58.7181 26.9772L49.4163 17.7241Z" fill="url(#paint8_linear_543_2)"/>
</g>
</g>
<defs>
<linearGradient id="paint0_linear_543_2" x1="115.956" y1="11.4514" x2="115.956" y2="33.6823" gradientUnits="userSpaceOnUse">
<stop stop-color="#1BE5AF"/>
<stop offset="0.45" stop-color="#6D91D1"/>
<stop offset="1" stop-color="#B746F0"/>
</linearGradient>
<linearGradient id="paint1_linear_543_2" x1="230.636" y1="11.4568" x2="230.636" y2="33.7078" gradientUnits="userSpaceOnUse">
<stop stop-color="#1BE5AF"/>
<stop offset="0.45" stop-color="#6D91D1"/>
<stop offset="1" stop-color="#B746F0"/>
</linearGradient>
<linearGradient id="paint2_linear_543_2" x1="171.655" y1="11.4624" x2="171.655" y2="33.7152" gradientUnits="userSpaceOnUse">
<stop stop-color="#1BE5AF"/>
<stop offset="0.45" stop-color="#6D91D1"/>
<stop offset="1" stop-color="#B746F0"/>
</linearGradient>
<linearGradient id="paint3_linear_543_2" x1="86.4815" y1="11.4456" x2="86.4815" y2="33.7062" gradientUnits="userSpaceOnUse">
<stop stop-color="#1BE5AF"/>
<stop offset="0.45" stop-color="#6D91D1"/>
<stop offset="1" stop-color="#B746F0"/>
</linearGradient>
<linearGradient id="paint4_linear_543_2" x1="201.081" y1="11.4356" x2="201.081" y2="33.7163" gradientUnits="userSpaceOnUse">
<stop stop-color="#1BE5AF"/>
<stop offset="0.45" stop-color="#6D91D1"/>
<stop offset="1" stop-color="#B746F0"/>
</linearGradient>
<linearGradient id="paint5_linear_543_2" x1="144.532" y1="11.4495" x2="144.532" y2="33.7141" gradientUnits="userSpaceOnUse">
<stop stop-color="#1BE5AF"/>
<stop offset="0.45" stop-color="#6D91D1"/>
<stop offset="1" stop-color="#B746F0"/>
</linearGradient>
<linearGradient id="paint6_linear_543_2" x1="53.5375" y1="-5.52758" x2="21.2169" y2="56.7046" gradientUnits="userSpaceOnUse">
<stop stop-color="#00FFA3"/>
<stop offset="1" stop-color="#DC1FFF"/>
</linearGradient>
<linearGradient id="paint7_linear_543_2" x1="39.2882" y1="-12.928" x2="6.96755" y2="49.3041" gradientUnits="userSpaceOnUse">
<stop stop-color="#00FFA3"/>
<stop offset="1" stop-color="#DC1FFF"/>
</linearGradient>
<linearGradient id="paint8_linear_543_2" x1="46.3675" y1="-9.25135" x2="14.0468" y2="52.9808" gradientUnits="userSpaceOnUse">
<stop stop-color="#00FFA3"/>
<stop offset="1" stop-color="#DC1FFF"/>
</linearGradient>
<clipPath id="clip0_543_2">
<rect width="243" height="46" fill="white"/>
</clipPath>
<clipPath id="clip1_543_2">
<rect width="59" height="46" fill="white"/>
</clipPath>
</defs>
</svg>
