<svg width="243" height="46" viewBox="0 0 243 46" fill="none" xmlns="http://www.w3.org/2000/svg">
<path d="M24.0493 45.1453H1.4186C1.215 45.1532 1.01109 45.1483 0.808104 45.1306C0.651741 45.112 0.50282 45.0535 0.375695 44.9608C0.248569 44.868 0.147529 44.7441 0.0823111 44.601C0.0170937 44.458 -0.0101002 44.3005 0.00335044 44.1439C0.0168011 43.9873 0.0704431 43.8368 0.159105 43.7069C0.260223 43.575 0.37313 43.4525 0.496438 43.3409C3.38577 40.4568 6.27327 37.5703 9.15894 34.6814C9.39943 34.4284 9.69095 34.2292 10.0143 34.0971C10.3376 33.9649 10.6853 33.9027 11.0344 33.9146C26.1594 33.9256 41.2844 33.9256 56.4094 33.9146C56.5758 33.9069 56.7424 33.9112 56.9081 33.9274C57.0652 33.9458 57.2148 34.0044 57.3425 34.0976C57.4702 34.1908 57.5715 34.3154 57.6366 34.4593C57.7018 34.6032 57.7285 34.7614 57.7143 34.9187C57.7 35.0759 57.6452 35.2268 57.5553 35.3566C57.4213 35.5338 57.2709 35.698 57.1061 35.8471C54.2699 38.6799 51.4228 41.5036 48.6013 44.3474C48.3564 44.6089 48.0586 44.8154 47.7277 44.9533C47.3967 45.0911 47.0402 45.1572 46.6818 45.1471C39.1382 45.1361 31.594 45.1355 24.0493 45.1453Z" fill="black"/>
<path d="M33.6834 28.0697C26.1386 28.0697 18.5951 28.0697 11.0527 28.0697C10.6948 28.0821 10.3384 28.018 10.0073 27.8817C9.67626 27.7453 9.37823 27.5399 9.13324 27.2791C6.28058 24.4097 3.40958 21.5604 0.545912 18.7019C0.408841 18.5786 0.282498 18.4439 0.168245 18.2993C0.0795687 18.1711 0.0251416 18.0225 0.0101178 17.8675C-0.00490595 17.7124 0.0199716 17.5561 0.082394 17.4134C0.144816 17.2706 0.242717 17.1461 0.366823 17.0517C0.490928 16.9572 0.637129 16.896 0.791578 16.8737C1.03043 16.8511 1.27055 16.845 1.51024 16.8554C16.4874 16.8554 31.4632 16.8506 46.4379 16.8408C46.8678 16.8235 47.2964 16.8992 47.6942 17.0628C48.092 17.2265 48.4496 17.4741 48.7424 17.7887C51.5309 20.6161 54.3579 23.405 57.1757 26.2067C57.2978 26.3201 57.4112 26.4424 57.5149 26.5727C57.6202 26.7028 57.6877 26.8591 57.7103 27.0247C57.7328 27.1903 57.7095 27.359 57.6428 27.5123C57.5761 27.6656 57.4686 27.7978 57.332 27.8945C57.1953 27.9911 57.0348 28.0485 56.8677 28.0605C56.6845 28.0705 56.5009 28.0705 56.3177 28.0605L33.6834 28.0697Z" fill="black"/>
<path d="M33.6761 0.0120783H56.3049C56.5079 0.00410531 56.7112 0.00899826 56.9136 0.0267214C57.07 0.0462144 57.2188 0.105659 57.3455 0.199317C57.4723 0.292975 57.5726 0.417681 57.637 0.561374C57.7013 0.705068 57.7274 0.862892 57.7128 1.0196C57.6981 1.17631 57.6432 1.3266 57.5534 1.45595C57.4283 1.61631 57.289 1.76513 57.1373 1.90064C54.2846 4.74446 51.435 7.5895 48.5884 10.4358C48.3437 10.6969 48.0462 10.903 47.7156 11.0406C47.3849 11.1781 47.0288 11.2439 46.6708 11.2336C31.5665 11.2202 16.4617 11.2172 1.35625 11.2245C1.17285 11.2338 0.989013 11.2295 0.806249 11.2117C0.645839 11.1885 0.494282 11.1239 0.366616 11.0242C0.238951 10.9246 0.139614 10.7933 0.0784628 10.6435C0.0173114 10.4937 -0.00352862 10.3305 0.01801 10.1701C0.0395486 10.0098 0.102717 9.85783 0.201248 9.72938C0.28245 9.62874 0.37067 9.53396 0.465249 9.44573C3.36925 6.55067 6.27142 3.65378 9.17175 0.755058C9.40471 0.507764 9.68763 0.312673 10.0018 0.182697C10.3159 0.0527207 10.6542 -0.00917693 10.9941 0.00109873C18.5547 0.0169587 26.1154 0.0206183 33.6761 0.0120783Z" fill="black"/>
<path d="M115.967 11.4569C118.387 11.4569 120.808 11.4569 123.231 11.4569C125.715 11.4569 127.49 13.232 127.492 15.7135C127.492 20.2519 127.492 24.7903 127.492 29.3287C127.492 31.9163 125.726 33.6804 123.145 33.6823H108.775C106.208 33.6823 104.436 31.9328 104.428 29.3854C104.417 24.808 104.417 20.233 104.428 15.6604C104.428 13.2393 106.262 11.4514 108.696 11.4514C111.131 11.4514 113.542 11.4569 115.967 11.4569ZM116.015 15.4152C114.48 15.4152 112.946 15.4152 111.413 15.4152C109.881 15.4152 108.759 16.504 108.751 18.0595C108.74 20.9387 108.74 23.8167 108.751 26.6935C108.751 28.3057 109.868 29.3854 111.49 29.3872C114.466 29.3872 117.442 29.3872 120.419 29.3872C122.091 29.3872 123.169 28.3313 123.169 26.6752C123.178 23.8155 123.178 20.9552 123.169 18.0943C123.169 16.4857 122.096 15.4207 120.496 15.4152C119.011 15.4097 117.513 15.4152 116.015 15.4152Z" fill="black"/>
<path d="M242.117 24.0527V32.6335C242.117 33.4936 241.906 33.7004 241.033 33.7004H238.758C238.041 33.7004 237.799 33.4625 237.799 32.7342C237.799 30.5565 237.799 28.3788 237.799 26.2011C237.799 25.2605 237.616 25.0793 236.662 25.0793H224.562C223.646 25.0793 223.462 25.2751 223.462 26.1773C223.462 28.3367 223.462 30.4961 223.462 32.6555C223.462 33.4808 223.237 33.7059 222.416 33.7078H220.252C219.361 33.7078 219.152 33.4991 219.152 32.5878V26.278C219.152 22.8461 219.152 19.4136 219.152 15.9805C219.152 13.166 220.863 11.4568 223.671 11.4568C228.366 11.4568 233.062 11.4568 237.761 11.4568C240.346 11.4568 242.104 13.2118 242.108 15.803C242.119 18.5541 242.122 21.304 242.117 24.0527ZM230.616 21.8567H236.765C237.599 21.8567 237.796 21.6554 237.797 20.8081C237.797 19.776 237.797 18.7438 237.797 17.7099C237.786 16.0794 236.778 15.0619 235.139 15.0289C234.529 15.018 233.92 15.0289 233.306 15.0289C230.922 15.0289 228.539 15.018 226.156 15.0289C224.482 15.0399 223.464 16.072 223.459 17.7282C223.459 18.7786 223.459 19.829 223.459 20.8795C223.459 21.6298 223.69 21.853 224.458 21.8548L230.616 21.8567Z" fill="black"/>
<path d="M160.31 24.029C160.31 21.3145 160.31 18.6012 160.31 15.8892C160.31 13.1588 162.007 11.4642 164.732 11.4624H178.709C181.223 11.4624 182.984 13.1771 182.994 15.6879C183.01 21.3737 182.994 27.0577 182.994 32.7416C182.994 33.4828 182.77 33.7042 182.042 33.7097C181.246 33.7097 180.453 33.7097 179.659 33.7097C178.991 33.7097 178.76 33.4645 178.76 32.8148C178.76 30.5822 178.76 28.349 178.76 26.1152C178.76 25.3173 178.539 25.0886 177.748 25.0886C173.7 25.0886 169.651 25.0886 165.601 25.0886C164.792 25.0886 164.561 25.3283 164.559 26.1555C164.559 28.2783 164.559 30.4011 164.559 32.5239C164.559 33.5889 164.429 33.7152 163.338 33.7152C162.634 33.7152 161.932 33.7152 161.23 33.7152C160.528 33.7152 160.313 33.4901 160.313 32.7782C160.309 29.8612 160.307 26.9448 160.31 24.029ZM171.614 21.8586H177.765C178.515 21.8586 178.749 21.6207 178.751 20.8649C178.751 19.8511 178.751 18.8373 178.751 17.8235C178.751 16.0539 177.745 15.0382 175.977 15.0309C174.406 15.0309 172.837 15.0309 171.268 15.0309C169.9 15.0309 168.534 15.0144 167.166 15.0309C165.57 15.0565 164.558 16.1015 164.55 17.6972C164.55 18.7659 164.55 19.8353 164.55 20.9052C164.55 21.6244 164.787 21.8531 165.518 21.855L171.614 21.8586Z" fill="black"/>
<path d="M84.2082 33.7004C81.878 33.7004 79.5497 33.7004 77.2195 33.7004C76.7795 33.7004 76.3395 33.7114 76.1599 33.2063C75.9802 32.7012 76.3432 32.4322 76.675 32.1522C77.5734 31.3854 78.4827 30.6278 79.3554 29.8318C79.5219 29.6758 79.7184 29.5553 79.9331 29.4776C80.1477 29.3999 80.3759 29.3666 80.6039 29.3798C84.0982 29.3932 87.5919 29.3932 91.085 29.3798C92.823 29.3798 93.9634 27.6888 93.285 26.1425C92.8615 25.1891 92.0915 24.7261 91.041 24.7261C88.0087 24.7261 84.977 24.7261 81.9459 24.7261C81.0508 24.7368 80.1628 24.5668 79.3351 24.2265C78.5075 23.8861 77.7573 23.3823 77.1296 22.7452C76.5018 22.1082 76.0095 21.3512 75.6822 20.5195C75.3549 19.6879 75.1994 18.7988 75.2249 17.9057C75.2872 14.4524 78.1784 11.5007 81.6415 11.4695C86.3367 11.4238 91.0319 11.4586 95.727 11.4531C96.1157 11.4531 96.4897 11.561 96.5374 11.9582C96.5481 12.1134 96.5279 12.2691 96.4779 12.4165C96.4278 12.5638 96.349 12.6998 96.2459 12.8164C95.3439 13.715 94.4125 14.5824 93.4445 15.415C93.1766 15.6273 92.8461 15.7456 92.504 15.7517C88.9547 15.7755 85.4054 15.7627 81.856 15.77C80.855 15.77 80.107 16.2422 79.7092 17.1554C79.5193 17.5504 79.4508 17.9927 79.5125 18.4265C79.5742 18.8603 79.7632 19.2662 80.0557 19.5929C80.5452 20.1858 81.1979 20.4292 81.966 20.4256C85.0155 20.4182 88.0655 20.4182 91.1162 20.4256C91.9961 20.4284 92.8667 20.6055 93.6775 20.9468C94.4882 21.2881 95.223 21.7867 95.8392 22.4137C96.4554 23.0407 96.9408 23.7836 97.2671 24.5993C97.5933 25.415 97.7541 26.2873 97.74 27.1655C97.7144 30.7852 94.6655 33.7388 91.0154 33.7059C88.7512 33.6839 86.4779 33.7004 84.2082 33.7004Z" fill="black"/>
<path d="M189.711 22.5906C189.711 19.2307 189.711 15.8715 189.711 12.5128C189.711 11.6326 189.894 11.4496 190.791 11.4478C191.64 11.4478 192.492 11.4697 193.341 11.4386C193.553 11.4238 193.765 11.4632 193.958 11.5532C194.15 11.6432 194.317 11.7807 194.441 11.9528C198.401 16.6816 202.367 21.4054 206.339 26.1244C206.541 26.3659 206.706 26.6532 206.963 26.8252C207.067 26.9004 207.187 26.9533 207.313 26.9807C207.439 27.0081 207.569 27.0094 207.696 26.9845C207.901 26.9076 208.044 26.6056 208.154 26.3751C208.22 26.2396 208.171 26.0475 208.171 25.881V12.5915C208.171 11.6472 208.367 11.4496 209.295 11.4478H211.458C212.219 11.4478 212.452 11.6765 212.453 12.4414C212.453 15.0998 212.453 17.7582 212.453 20.4166V32.5422C212.453 33.5249 212.27 33.7097 211.293 33.7097C210.406 33.7097 209.518 33.7317 208.631 33.6951C208.37 33.6768 208.126 33.5635 207.943 33.3766C203.811 28.6003 199.687 23.8161 195.572 19.024C195.523 18.9672 195.473 18.9123 195.427 18.8556C195.185 18.5463 194.905 18.3066 194.483 18.4621C194.061 18.6177 193.984 19.002 193.984 19.4156C193.984 23.7893 193.984 28.1636 193.984 32.5385C193.984 33.5798 193.847 33.7134 192.798 33.7134C192.078 33.7134 191.355 33.7134 190.635 33.7134C189.914 33.7134 189.718 33.4938 189.718 32.7782C189.711 29.3842 189.708 25.9883 189.711 22.5906Z" fill="black"/>
<path d="M134.41 22.5795C134.41 19.2562 134.41 15.9336 134.41 12.6115C134.41 11.6288 134.593 11.4513 135.572 11.4495H137.626C138.409 11.4495 138.619 11.6508 138.621 12.4267C138.621 14.4763 138.621 16.5241 138.621 18.5737V28.7082C138.621 29.8922 138.751 30.024 139.905 30.024H153.398C153.581 30.0171 153.765 30.0201 153.948 30.0331C154.586 30.099 154.887 30.7139 154.47 31.197C153.785 31.993 153.055 32.7562 152.313 33.501C152.123 33.6443 151.89 33.7169 151.653 33.7059C146.216 33.7169 140.777 33.7169 135.336 33.7059C134.637 33.7059 134.403 33.4552 134.401 32.7067C134.405 29.3298 134.408 25.954 134.41 22.5795Z" fill="black"/>
</svg>
