<svg width="164" height="33" viewBox="0 0 164 33" fill="none" xmlns="http://www.w3.org/2000/svg">
<path d="M13.3686 32.838C20.7774 32.838 26.7876 26.832 26.7876 19.419C26.7876 12.006 20.7816 6 13.3686 6C6.342 6 0.5712 11.4096 0 18.2892H17.7324V20.5446H0C0.5712 27.4284 6.342 32.838 13.3686 32.838Z" fill="#2151F6"/>
<path d="M39.048 32.32C37.832 32.32 36.7013 32.16 35.656 31.84C34.632 31.52 33.6933 31.04 32.84 30.4C32.008 29.7387 31.2613 28.928 30.6 27.968L32.968 25.248C34.0133 26.7413 35.016 27.776 35.976 28.352C36.936 28.928 38.0773 29.216 39.4 29.216C40.2107 29.216 40.9467 29.088 41.608 28.832C42.2693 28.576 42.792 28.224 43.176 27.776C43.56 27.328 43.752 26.816 43.752 26.24C43.752 25.856 43.688 25.4933 43.56 25.152C43.432 24.8107 43.2293 24.5013 42.952 24.224C42.696 23.9467 42.3547 23.6907 41.928 23.456C41.5227 23.2213 41.0427 23.0187 40.488 22.848C39.9333 22.656 39.2933 22.496 38.568 22.368C37.416 22.1333 36.4133 21.824 35.56 21.44C34.7067 21.056 33.992 20.576 33.416 20C32.84 19.424 32.4133 18.7733 32.136 18.048C31.8587 17.3013 31.72 16.4693 31.72 15.552C31.72 14.656 31.912 13.824 32.296 13.056C32.7013 12.288 33.2453 11.6267 33.928 11.072C34.632 10.496 35.4533 10.0587 36.392 9.76C37.3307 9.44 38.344 9.28 39.432 9.28C40.584 9.28 41.64 9.42933 42.6 9.728C43.56 10.0267 44.4133 10.4747 45.16 11.072C45.9067 11.648 46.5253 12.3627 47.016 13.216L44.584 15.616C44.1573 14.912 43.6773 14.3253 43.144 13.856C42.6107 13.3653 42.024 13.0027 41.384 12.768C40.744 12.512 40.0613 12.384 39.336 12.384C38.504 12.384 37.7787 12.512 37.16 12.768C36.5413 13.024 36.0507 13.3867 35.688 13.856C35.3467 14.304 35.176 14.8373 35.176 15.456C35.176 15.904 35.2613 16.32 35.432 16.704C35.6027 17.0667 35.8587 17.3973 36.2 17.696C36.5627 17.9733 37.0427 18.2293 37.64 18.464C38.2373 18.6773 38.952 18.8693 39.784 19.04C40.9573 19.296 42.0027 19.6267 42.92 20.032C43.8373 20.416 44.616 20.8747 45.256 21.408C45.896 21.9413 46.376 22.5387 46.696 23.2C47.0373 23.8613 47.208 24.576 47.208 25.344C47.208 26.7733 46.8773 28.0107 46.216 29.056C45.5547 30.1013 44.616 30.912 43.4 31.488C42.184 32.0427 40.7333 32.32 39.048 32.32ZM61.4808 32.32C59.9021 32.32 58.4408 32.032 57.0968 31.456C55.7741 30.88 54.6114 30.08 53.6088 29.056C52.6274 28.0107 51.8594 26.7947 51.3048 25.408C50.7714 24 50.5048 22.464 50.5048 20.8C50.5048 19.136 50.7714 17.6107 51.3048 16.224C51.8594 14.816 52.6274 13.6 53.6088 12.576C54.6114 11.5307 55.7741 10.72 57.0968 10.144C58.4408 9.568 59.9021 9.28 61.4808 9.28C63.0594 9.28 64.5101 9.568 65.8328 10.144C67.1768 10.72 68.3394 11.5307 69.3208 12.576C70.3234 13.6213 71.0914 14.848 71.6248 16.256C72.1794 17.6427 72.4568 19.1573 72.4568 20.8C72.4568 22.4427 72.1794 23.968 71.6248 25.376C71.0914 26.7627 70.3234 27.9787 69.3208 29.024C68.3394 30.0693 67.1768 30.88 65.8328 31.456C64.5101 32.032 63.0594 32.32 61.4808 32.32ZM61.4808 28.96C62.5688 28.96 63.5608 28.7573 64.4568 28.352C65.3741 27.9467 66.1634 27.3813 66.8248 26.656C67.4861 25.9093 67.9981 25.0453 68.3608 24.064C68.7448 23.0613 68.9368 21.9733 68.9368 20.8C68.9368 19.6267 68.7448 18.5493 68.3608 17.568C67.9981 16.5653 67.4861 15.7013 66.8248 14.976C66.1634 14.2293 65.3741 13.6533 64.4568 13.248C63.5608 12.8427 62.5688 12.64 61.4808 12.64C60.3928 12.64 59.3901 12.8427 58.4728 13.248C57.5768 13.6533 56.7874 14.2187 56.1048 14.944C55.4434 15.6693 54.9314 16.5333 54.5688 17.536C54.2061 18.5173 54.0248 19.6053 54.0248 20.8C54.0248 21.9733 54.2061 23.0613 54.5688 24.064C54.9314 25.0667 55.4434 25.9307 56.1048 26.656C56.7874 27.3813 57.5768 27.9467 58.4728 28.352C59.3901 28.7573 60.3928 28.96 61.4808 28.96ZM77.136 32V9.6H80.592V28.672H91.088V32H77.136ZM93.9563 32L102.628 9.6H106.148L114.756 32H111.076L105.956 18.496C105.892 18.3467 105.764 17.984 105.572 17.408C105.402 16.832 105.199 16.192 104.964 15.488C104.73 14.784 104.516 14.144 104.324 13.568C104.132 12.9707 104.004 12.5867 103.94 12.416L104.676 12.384C104.548 12.7467 104.388 13.2053 104.196 13.76C104.026 14.3147 103.834 14.9013 103.62 15.52C103.428 16.1387 103.236 16.7253 103.044 17.28C102.852 17.8133 102.692 18.2613 102.564 18.624L97.4763 32H93.9563ZM97.7963 26.432L99.0763 23.104H109.252L110.724 26.432H97.7963ZM118.699 32V9.6H121.803L135.499 27.936L134.987 28.224C134.901 27.6907 134.827 27.1147 134.763 26.496C134.699 25.856 134.635 25.184 134.571 24.48C134.528 23.7547 134.485 22.9973 134.443 22.208C134.421 21.3973 134.4 20.5547 134.378 19.68C134.357 18.8053 134.347 17.8987 134.347 16.96V9.6H137.803V32H134.635L121.163 14.336L121.515 13.888C121.621 15.1893 121.707 16.2987 121.771 17.216C121.856 18.112 121.92 18.88 121.963 19.52C122.027 20.1387 122.069 20.6507 122.091 21.056C122.112 21.44 122.123 21.76 122.123 22.016C122.144 22.272 122.155 22.496 122.155 22.688V32H118.699ZM141.738 32L150.41 9.6H153.93L162.538 32H158.858L153.738 18.496C153.674 18.3467 153.546 17.984 153.354 17.408C153.183 16.832 152.98 16.192 152.746 15.488C152.511 14.784 152.298 14.144 152.106 13.568C151.914 12.9707 151.786 12.5867 151.722 12.416L152.458 12.384C152.33 12.7467 152.17 13.2053 151.978 13.76C151.807 14.3147 151.615 14.9013 151.402 15.52C151.21 16.1387 151.018 16.7253 150.826 17.28C150.634 17.8133 150.474 18.2613 150.345 18.624L145.258 32H141.738ZM145.578 26.432L146.858 23.104H157.034L158.506 26.432H145.578Z" fill="#2151F6"/>
</svg>
