<svg width="28" height="22" viewBox="0 0 28 22" fill="none" xmlns="http://www.w3.org/2000/svg">
<path fill-rule="evenodd" clip-rule="evenodd" d="M27.3334 2.85603C26.335 3.29363 25.2765 3.57902 24.1934 3.70269C25.3284 3.03332 26.1813 1.97423 26.5934 0.722693C25.5171 1.35012 24.3429 1.79227 23.1201 2.03069C22.6049 1.49289 21.9859 1.06518 21.3007 0.773435C20.6155 0.481693 19.8782 0.331983 19.1334 0.33336C18.4209 0.327736 17.7143 0.462557 17.0539 0.730121C16.3935 0.997685 15.7923 1.39275 15.2846 1.89274C14.7769 2.39273 14.3727 2.98784 14.0951 3.64409C13.8176 4.30033 13.672 5.00484 13.6667 5.71736C13.6667 6.13069 13.7134 6.54136 13.8067 6.94269C11.6395 6.83935 9.51759 6.28524 7.57653 5.31574C5.63546 4.34624 3.91787 2.98265 2.53341 1.31203C1.83504 2.49746 1.62104 3.90666 1.936 5.24598C2.25096 6.58529 3.07058 7.75142 4.22408 8.50136C3.35714 8.47575 2.50824 8.24743 1.74541 7.83469V7.90136C1.75314 9.15304 2.19471 10.3633 2.99486 11.3259C3.79501 12.2884 4.90422 12.9437 6.13341 13.18C5.32588 13.3958 4.48024 13.4277 3.65875 13.2734C4.01783 14.3493 4.7021 15.2873 5.61708 15.9577C6.53205 16.6281 7.6326 16.9979 8.76675 17.016C6.46084 18.7871 3.55417 19.5871 0.666748 19.2454C3.17629 20.8322 6.08561 21.672 9.05475 21.6667C11.0876 21.6969 13.1061 21.3227 14.993 20.5657C16.8799 19.8087 18.5974 18.684 20.0457 17.2572C21.494 15.8304 22.6441 14.1299 23.4292 12.2545C24.2143 10.3792 24.6186 8.36642 24.6187 6.33336C24.6187 6.09736 24.6187 5.86803 24.6027 5.63603C25.6732 4.88162 26.5983 3.93979 27.3334 2.85603Z" fill="#343230"/>
</svg>
